<svg width="103" height="104" viewBox="0 0 103 104" fill="none" xmlns="http://www.w3.org/2000/svg">
<rect x="1" y="1" width="101" height="102" rx="4" stroke="#6C2A80" stroke-width="2"/>
<path d="M82.25 72H79.75V68.975C80.8627 68.4869 81.8096 67.686 82.4754 66.6695C83.1412 65.6531 83.4972 64.4651 83.5 63.25V58.25C83.5 56.5924 82.8415 55.0027 81.6694 53.8306C80.4973 52.6585 78.9076 52 77.25 52H74.75C73.0924 52 71.5027 52.6585 70.3306 53.8306C69.1585 55.0027 68.5 56.5924 68.5 58.25V63.25C68.5028 64.4651 68.8588 65.6531 69.5246 66.6695C70.1904 67.686 71.1373 68.4869 72.25 68.975V72H69.75C68.0924 72 66.5027 72.6585 65.3306 73.8306C64.1585 75.0027 63.5 76.5924 63.5 78.25V88.25C63.5 88.5815 63.6317 88.8995 63.8661 89.1339C64.1005 89.3683 64.4185 89.5 64.75 89.5H87.25C87.5815 89.5 87.8995 89.3683 88.1339 89.1339C88.3683 88.8995 88.5 88.5815 88.5 88.25V78.25C88.5 76.5924 87.8415 75.0027 86.6694 73.8306C85.4973 72.6585 83.9076 72 82.25 72ZM74.75 54.5H77.25C78.2437 54.503 79.1958 54.899 79.8984 55.6016C80.601 56.3042 80.997 57.2564 81 58.25H79.0125L78.1375 57.3625C77.9718 57.198 77.7637 57.0829 77.5363 57.0299C77.3089 56.9769 77.0713 56.9882 76.85 57.0625L73.3 58.25H71C71.003 57.2564 71.399 56.3042 72.1016 55.6016C72.8042 54.899 73.7564 54.503 74.75 54.5ZM71 63.25V60.75H73.5C73.6356 60.7476 73.7702 60.7265 73.9 60.6875L76.9125 59.675L77.6125 60.3875C77.8509 60.6177 78.1686 60.7475 78.5 60.75H81V63.25C80.997 64.2436 80.601 65.1958 79.8984 65.8984C79.1958 66.601 78.2437 66.997 77.25 67H74.75C73.7564 66.997 72.8042 66.601 72.1016 65.8984C71.399 65.1958 71.003 64.2436 71 63.25ZM77.25 69.5V72H74.75V69.5H77.25ZM80.5125 74.5L78.85 79.5H73.15L71.4875 74.5H80.5125ZM86 87H66V78.25C66.0009 77.407 66.2866 76.589 66.8107 75.9288C67.3349 75.2685 68.0667 74.8047 68.8875 74.6125L71.0625 81.15C71.1486 81.3969 71.3089 81.611 71.5215 81.7632C71.7341 81.9154 71.9886 81.9981 72.25 82H79.75C80.0114 81.9981 80.2659 81.9154 80.4785 81.7632C80.6911 81.611 80.8514 81.3969 80.9375 81.15L83.1125 74.6125C83.9333 74.8047 84.6651 75.2685 85.1893 75.9288C85.7134 76.589 85.9991 77.407 86 78.25V87ZM32.25 34.5H29.75V31.475C30.8627 30.9869 31.8096 30.186 32.4754 29.1695C33.1412 28.1531 33.4972 26.9651 33.5 25.75V20.75C33.5 19.0924 32.8415 17.5027 31.6694 16.3306C30.4973 15.1585 28.9076 14.5 27.25 14.5H24.75C23.0924 14.5 21.5027 15.1585 20.3306 16.3306C19.1585 17.5027 18.5 19.0924 18.5 20.75V25.75C18.5028 26.9651 18.8588 28.1531 19.5246 29.1695C20.1904 30.186 21.1373 30.9869 22.25 31.475V34.5H19.75C18.0924 34.5 16.5027 35.1585 15.3306 36.3306C14.1585 37.5027 13.5 39.0924 13.5 40.75V50.75C13.5 51.0815 13.6317 51.3995 13.8661 51.6339C14.1005 51.8683 14.4185 52 14.75 52H37.25C37.5815 52 37.8995 51.8683 38.1339 51.6339C38.3683 51.3995 38.5 51.0815 38.5 50.75V40.75C38.5 39.0924 37.8415 37.5027 36.6694 36.3306C35.4973 35.1585 33.9076 34.5 32.25 34.5ZM24.75 17H27.25C28.2436 17.003 29.1958 17.399 29.8984 18.1016C30.601 18.8042 30.997 19.7564 31 20.75H29.0125L28.1375 19.8625C27.9718 19.698 27.7637 19.5829 27.5363 19.5299C27.3089 19.4769 27.0713 19.4882 26.85 19.5625L23.3 20.75H21C21.003 19.7564 21.399 18.8042 22.1016 18.1016C22.8042 17.399 23.7564 17.003 24.75 17ZM21 25.75V23.25H23.5C23.6356 23.2476 23.7702 23.2265 23.9 23.1875L26.9125 22.175L27.6125 22.8875C27.8509 23.1177 28.1686 23.2475 28.5 23.25H31V25.75C30.997 26.7436 30.601 27.6958 29.8984 28.3984C29.1958 29.101 28.2436 29.497 27.25 29.5H24.75C23.7564 29.497 22.8042 29.101 22.1016 28.3984C21.399 27.6958 21.003 26.7436 21 25.75ZM27.25 32V34.5H24.75V32H27.25ZM30.5125 37L28.85 42H23.15L21.4875 37H30.5125ZM36 49.5H16V40.75C16.0009 39.907 16.2866 39.089 16.8107 38.4287C17.3349 37.7685 18.0667 37.3047 18.8875 37.1125L21.0625 43.65C21.1486 43.8969 21.3089 44.111 21.5215 44.2632C21.7341 44.4154 21.9886 44.4981 22.25 44.5H29.75C30.0114 44.4981 30.2659 44.4154 30.4785 44.2632C30.6911 44.111 30.8514 43.8969 30.9375 43.65L33.1125 37.1125C33.9333 37.3047 34.6651 37.7685 35.1893 38.4287C35.7134 39.089 35.9991 39.907 36 40.75V49.5ZM43.5 82.225V70.75C43.497 69.7564 43.101 68.8042 42.3984 68.1016C41.6958 67.399 40.7436 67.003 39.75 67H19.75C18.7564 67.003 17.8042 67.399 17.1016 68.1016C16.399 68.8042 16.003 69.7564 16 70.75V82.225C15.1733 82.525 14.4783 83.106 14.0365 83.8664C13.5948 84.6269 13.4343 85.5184 13.5833 86.3851C13.7322 87.2519 14.181 88.0387 14.8513 88.6081C15.5215 89.1775 16.3706 89.4932 17.25 89.5H42.25C43.1294 89.4932 43.9785 89.1775 44.6487 88.6081C45.319 88.0387 45.7678 87.2519 45.9167 86.3851C46.0657 85.5184 45.9052 84.6269 45.4635 83.8664C45.0217 83.106 44.3267 82.525 43.5 82.225ZM18.5 70.75C18.5 70.4185 18.6317 70.1005 18.8661 69.8661C19.1005 69.6317 19.4185 69.5 19.75 69.5H39.75C40.0815 69.5 40.3995 69.6317 40.6339 69.8661C40.8683 70.1005 41 70.4185 41 70.75V82H32.25C31.9185 82 31.6005 82.1317 31.3661 82.3661C31.1317 82.6005 31 82.9185 31 83.25H28.5C28.5 82.9185 28.3683 82.6005 28.1339 82.3661C27.8995 82.1317 27.5815 82 27.25 82H18.5V70.75ZM42.25 87H17.25C16.9185 87 16.6005 86.8683 16.3661 86.6339C16.1317 86.3995 16 86.0815 16 85.75C16 85.4185 16.1317 85.1005 16.3661 84.8661C16.6005 84.6317 16.9185 84.5 17.25 84.5H26C26 84.8315 26.1317 85.1495 26.3661 85.3839C26.6005 85.6183 26.9185 85.75 27.25 85.75H32.25C32.5815 85.75 32.8995 85.6183 33.1339 85.3839C33.3683 85.1495 33.5 84.8315 33.5 84.5H42.25C42.5815 84.5 42.8995 84.6317 43.1339 84.8661C43.3683 85.1005 43.5 85.4185 43.5 85.75C43.5 86.0815 43.3683 86.3995 43.1339 86.6339C42.8995 86.8683 42.5815 87 42.25 87Z" fill="#6C2A80"/>
<path d="M28.5 74.5H31V77H28.5V74.5ZM33.5 74.5H36V77H33.5V74.5ZM23.5 74.5H26V77H23.5V74.5ZM86 29.725V18.25C85.997 17.2564 85.601 16.3042 84.8984 15.6016C84.1958 14.899 83.2437 14.503 82.25 14.5H62.25C61.2564 14.503 60.3042 14.899 59.6016 15.6016C58.899 16.3042 58.503 17.2564 58.5 18.25V29.725C57.6733 30.025 56.9783 30.606 56.5365 31.3664C56.0948 32.1269 55.9343 33.0184 56.0833 33.8851C56.2322 34.7519 56.681 35.5387 57.3513 36.1081C58.0215 36.6775 58.8706 36.9932 59.75 37H84.75C85.6294 36.9932 86.4785 36.6775 87.1487 36.1081C87.819 35.5387 88.2678 34.7519 88.4168 33.8851C88.5657 33.0184 88.4052 32.1269 87.9635 31.3664C87.5217 30.606 86.8267 30.025 86 29.725ZM61 18.25C61 17.9185 61.1317 17.6005 61.3661 17.3661C61.6005 17.1317 61.9185 17 62.25 17H82.25C82.5815 17 82.8995 17.1317 83.1339 17.3661C83.3683 17.6005 83.5 17.9185 83.5 18.25V29.5H74.75C74.4185 29.5 74.1005 29.6317 73.8661 29.8661C73.6317 30.1005 73.5 30.4185 73.5 30.75H71C71 30.4185 70.8683 30.1005 70.6339 29.8661C70.3995 29.6317 70.0815 29.5 69.75 29.5H61V18.25ZM84.75 34.5H59.75C59.4185 34.5 59.1005 34.3683 58.8661 34.1339C58.6317 33.8995 58.5 33.5815 58.5 33.25C58.5 32.9185 58.6317 32.6005 58.8661 32.3661C59.1005 32.1317 59.4185 32 59.75 32H68.5C68.5 32.3315 68.6317 32.6495 68.8661 32.8839C69.1005 33.1183 69.4185 33.25 69.75 33.25H74.75C75.0815 33.25 75.3995 33.1183 75.6339 32.8839C75.8683 32.6495 76 32.3315 76 32H84.75C85.0815 32 85.3995 32.1317 85.6339 32.3661C85.8683 32.6005 86 32.9185 86 33.25C86 33.5815 85.8683 33.8995 85.6339 34.1339C85.3995 34.3683 85.0815 34.5 84.75 34.5Z" fill="#6C2A80"/>
<path d="M71 22H73.5V24.5H71V22ZM76 22H78.5V24.5H76V22ZM66 22H68.5V24.5H66V22ZM25.385 65.0688L27.6113 63.9312C26.0895 60.9564 25.1558 57.716 24.8613 54.3875L22.3713 54.6125C22.695 58.2591 23.7182 61.8092 25.385 65.0688ZM46.2263 77.8175L45.7738 80.2762C47.4979 80.592 49.2472 80.7506 51 80.75C54.5769 80.7556 58.1231 80.0908 61.455 78.79L60.545 76.46C55.9887 78.2248 51.033 78.6946 46.2263 77.8175ZM77.1425 49.6125L79.6325 49.3875C79.3082 45.7404 78.2832 42.19 76.6138 38.9312L74.3875 40.0688C75.9117 43.043 76.8472 46.2835 77.1425 49.6125ZM51 25.75C52.6011 25.7501 54.1988 25.8949 55.7738 26.1825L56.2263 23.7237C54.5021 23.408 52.7529 23.2494 51 23.25C45.4315 23.2426 39.9816 24.8589 35.3175 27.9012L36.6825 30C40.9402 27.2212 45.9158 25.7442 51 25.75Z" fill="#6C2A80"/>
</svg>
