<svg width="24" height="24" viewBox="0 0 24 24" fill="none" xmlns="http://www.w3.org/2000/svg">
<g clip-path="url(#clip0_455_709)">
<path d="M6.28711 1.26511C6.28711 0.566417 6.85352 0 7.55222 0H22.7335C23.4322 0 23.9986 0.566417 23.9986 1.26511V16.4464C23.9986 17.1452 23.4322 17.7115 22.7335 17.7115C22.0348 17.7115 21.4684 17.1452 21.4684 16.4464V2.53023H7.55222C6.85352 2.53023 6.28711 1.96381 6.28711 1.26511Z" fill="#4F4F4F"/>
<path d="M23.6294 0.370539C24.1234 0.864593 24.1234 1.66563 23.6294 2.15969L2.15969 23.6295C1.66563 24.1236 0.864609 24.1236 0.370539 23.6295C-0.123513 23.1354 -0.123513 22.3342 0.370539 21.8403L21.8401 0.370539C22.3342 -0.123513 23.1353 -0.123513 23.6294 0.370539Z" fill="#4F4F4F"/>
</g>
<defs>
<clipPath id="clip0_455_709">
<rect width="24" height="24" fill="white"/>
</clipPath>
</defs>
</svg>
