<svg width="44" height="44" viewBox="0 0 44 44" fill="none" xmlns="http://www.w3.org/2000/svg">
<path d="M4.75 3.3125H6.1875V4.75H4.75V3.3125ZM7.625 3.3125H9.0625V4.75H7.625V3.3125ZM10.5 3.3125H11.9375V4.75H10.5V3.3125ZM5.46875 19.125H16.9688C17.1594 19.125 17.3422 19.0493 17.477 18.9145C17.6118 18.7797 17.6875 18.5969 17.6875 18.4062V11.2188C17.6875 11.0281 17.6118 10.8453 17.477 10.7105C17.3422 10.5757 17.1594 10.5 16.9688 10.5H5.46875C5.27813 10.5 5.09531 10.5757 4.96052 10.7105C4.82573 10.8453 4.75 11.0281 4.75 11.2188V18.4062C4.75 18.5969 4.82573 18.7797 4.96052 18.9145C5.09531 19.0493 5.27813 19.125 5.46875 19.125ZM6.1875 11.9375H16.25V17.6875H6.1875V11.9375ZM23.4375 11.2188H34.9375V12.6562H23.4375V11.2188ZM20.5625 14.0938H33.5V15.5312H20.5625V14.0938ZM20.5625 16.9688H30.625V18.4062H20.5625V16.9688ZM7.625 22H26.3125V23.4375H7.625V22ZM4.75 24.875H23.4375V26.3125H4.75V24.875ZM4.75 27.75H20.5625V29.1875H4.75V27.75ZM4.75 30.625H20.5625V32.0625H4.75V30.625ZM4.75 33.5H20.5625V34.9375H4.75V33.5ZM4.75 22H6.1875V23.4375H4.75V22Z" fill="#4F4F4F"/>
<path d="M39.9688 4.75H39.25V4.03125C39.25 3.07813 38.8714 2.16404 38.1974 1.49009C37.5235 0.816126 36.6094 0.4375 35.6562 0.4375H4.03125C3.07813 0.4375 2.16404 0.816126 1.49009 1.49009C0.816126 2.16404 0.4375 3.07813 0.4375 4.03125V35.6562C0.4375 36.6094 0.816126 37.5235 1.49009 38.1974C2.16404 38.8714 3.07813 39.25 4.03125 39.25H4.75V39.9688C4.75 40.9219 5.12863 41.836 5.80259 42.5099C6.47654 43.1839 7.39063 43.5625 8.34375 43.5625H39.9688C40.9219 43.5625 41.836 43.1839 42.5099 42.5099C43.1839 41.836 43.5625 40.9219 43.5625 39.9688V8.34375C43.5625 7.39063 43.1839 6.47654 42.5099 5.80259C41.836 5.12863 40.9219 4.75 39.9688 4.75ZM38.6822 15.9194L41.7369 18.9741L39.7028 21.0081L36.6481 17.9534L38.6822 15.9194ZM25.6872 30.3734L26.255 28.9L28.7563 31.4013L27.2828 31.9691L25.6872 30.3734ZM25.8166 32.5297L24.6881 32.9681L25.1266 31.8397L25.8166 32.5297ZM28.0088 28.6269L26.9953 27.6134L35.6347 18.9741L36.6481 19.9875L28.0088 28.6269ZM37.6688 21.0081L38.6822 22.0216L30.0428 30.6609L29.0294 29.6475L37.6688 21.0081ZM1.875 4.03125C1.87671 3.4599 2.10443 2.91244 2.50844 2.50844C2.91244 2.10443 3.4599 1.87671 4.03125 1.875H35.6562C36.2276 1.87671 36.7751 2.10443 37.1791 2.50844C37.5831 2.91244 37.8108 3.4599 37.8125 4.03125V6.1875H1.875V4.03125ZM4.03125 37.8125C3.4599 37.8108 2.91244 37.5831 2.50844 37.1791C2.10443 36.7751 1.87671 36.2276 1.875 35.6562V7.625H37.8125V14.7622L25.4716 27.1031C25.3996 27.1746 25.3432 27.2602 25.3062 27.3547L22.7691 33.96C22.7169 34.0895 22.704 34.2316 22.7322 34.3684C22.7603 34.5052 22.8281 34.6306 22.9272 34.7291C23.0631 34.8631 23.2466 34.9381 23.4375 34.9375C23.5262 34.9382 23.6142 34.9211 23.6963 34.8872L30.3016 32.35C30.396 32.313 30.4817 32.2567 30.5531 32.1847L37.8125 24.9253V35.6562C37.8108 36.2276 37.5831 36.7751 37.1791 37.1791C36.7751 37.5831 36.2276 37.8108 35.6562 37.8125H4.03125ZM42.125 39.9688C42.1233 40.5401 41.8956 41.0876 41.4916 41.4916C41.0876 41.8956 40.5401 42.1233 39.9688 42.125H8.34375C7.7724 42.1233 7.22494 41.8956 6.82094 41.4916C6.41693 41.0876 6.18921 40.5401 6.1875 39.9688V39.25H35.6562C36.6094 39.25 37.5235 38.8714 38.1974 38.1974C38.8714 37.5235 39.25 36.6094 39.25 35.6562V23.4878L42.125 20.6128V39.9688ZM42.125 17.3281L39.25 14.4531V11.9375H42.125V17.3281ZM42.125 10.5H39.25V6.1875H39.9688C40.5401 6.18921 41.0876 6.41693 41.4916 6.82094C41.8956 7.22494 42.1233 7.7724 42.125 8.34375V10.5Z" fill="#4F4F4F"/>
<path d="M20.5625 11.2188H22V12.6562H20.5625V11.2188Z" fill="#4F4F4F"/>
</svg>
