<svg width="24" height="24" viewBox="0 0 24 24" fill="none" xmlns="http://www.w3.org/2000/svg">
<path d="M16.2756 14.1194L12.9294 11.6097V6.4974C12.9294 5.98337 12.5139 5.56787 11.9998 5.56787C11.4858 5.56787 11.0703 5.98337 11.0703 6.4974V12.0745C11.0703 12.3673 11.2079 12.6434 11.4421 12.8181L15.1602 15.6067C15.3206 15.7275 15.5161 15.7928 15.7169 15.7926C16.0004 15.7926 16.2793 15.6652 16.4615 15.4198C16.7702 15.0099 16.6865 14.4271 16.2756 14.1194Z" fill="#4F4F4F"/>
<path d="M12 0C5.3828 0 0 5.3828 0 12C0 18.6172 5.3828 24 12 24C18.6172 24 24 18.6172 24 12C24 5.3828 18.6172 0 12 0ZM12 22.141C6.40898 22.141 1.85902 17.591 1.85902 12C1.85902 6.40898 6.40898 1.85902 12 1.85902C17.592 1.85902 22.141 6.40898 22.141 12C22.141 17.591 17.591 22.141 12 22.141Z" fill="#4F4F4F"/>
</svg>
