<svg width="103" height="104" viewBox="0 0 103 104" fill="none" xmlns="http://www.w3.org/2000/svg">
<rect x="1" y="1" width="101" height="102" rx="4" stroke="#6C2A80" stroke-width="2"/>
<g clip-path="url(#clip0_38_676)">
<path d="M90.9218 69.689L82.1718 46.8265C82.0626 46.5412 81.8463 46.3099 81.5691 46.1818C81.2918 46.0537 80.9755 46.0389 80.6875 46.1405L71.4687 49.4296C71.3207 49.4827 71.1848 49.565 71.0691 49.6716C70.9534 49.7782 70.8603 49.9069 70.7954 50.0501C70.7304 50.1934 70.6948 50.3482 70.6908 50.5055C70.6867 50.6627 70.7143 50.8191 70.7719 50.9655L71.5734 52.9968L65.2828 55.9843L54.9578 54.0452C53.9522 53.8572 52.9187 53.8787 51.9218 54.1083C50.9249 54.3379 49.9861 54.7707 49.164 55.3796L47.3187 56.7484L46.0968 55.8687C45.1746 55.2083 44.1141 54.7666 42.9957 54.5771C41.8773 54.3875 40.7305 54.4552 39.6422 54.7749L35.6797 55.9546L30.489 52.8515L31.2344 50.9671C31.2919 50.8207 31.3195 50.6643 31.3154 50.507C31.3114 50.3498 31.2758 50.1949 31.2108 50.0517C31.1459 49.9085 31.0528 49.7797 30.9371 49.6731C30.8214 49.5665 30.6855 49.4843 30.5375 49.4312L21.3125 46.1405C21.0241 46.0379 20.707 46.0523 20.429 46.1805C20.151 46.3086 19.9342 46.5405 19.825 46.8265L11.0781 69.689C10.9697 69.9705 10.9741 70.2831 11.0906 70.5614C11.207 70.8397 11.4265 71.0623 11.7031 71.1827L20.4531 74.953C20.5972 75.0153 20.7524 75.048 20.9094 75.0491C21.0664 75.0502 21.2221 75.0198 21.3671 74.9596C21.5121 74.8994 21.6436 74.8107 21.7536 74.6987C21.8637 74.5867 21.9501 74.4538 22.0078 74.3077L22.889 72.078L30.1422 76.1655C29.6534 76.8751 29.4283 77.7334 29.5059 78.5915C29.5836 79.4497 29.959 80.2536 30.5672 80.864C30.9093 81.2062 31.3156 81.4775 31.7629 81.6623C32.2101 81.847 32.6895 81.9416 33.1734 81.9405H33.2656C33.3476 82.8573 33.7701 83.7101 34.4498 84.3308C35.1295 84.9514 36.017 85.295 36.9375 85.2937H37.0328C37.107 86.1551 37.4833 86.9625 38.0953 87.5733C38.4374 87.9156 38.8437 88.1869 39.291 88.3717C39.7383 88.5564 40.2176 88.651 40.7015 88.6499H40.7937C40.8557 89.3483 41.1157 90.0145 41.5431 90.5702C41.9705 91.126 42.5476 91.5483 43.2066 91.7875C43.8657 92.0267 44.5793 92.0729 45.2637 91.9206C45.9481 91.7684 46.5748 91.4241 47.0703 90.928L48.4625 89.5374L50.3469 90.9437C51.1451 91.5386 52.1315 91.8252 53.1244 91.7505C54.1172 91.6759 55.0496 91.2451 55.75 90.5374L55.8828 90.403C56.4744 89.7992 56.867 89.0287 57.0078 88.1952C57.7128 88.3943 58.4581 88.4021 59.1671 88.2178C59.8761 88.0336 60.5233 87.6639 61.0422 87.1468L61.139 87.0499C61.7965 86.3937 62.2119 85.5338 62.3172 84.6108C63.0276 84.8225 63.7821 84.8376 64.5005 84.6547C65.2188 84.4717 65.8742 84.0975 66.3969 83.5718L66.4625 83.5062C67.1035 82.8709 67.5147 82.0402 67.6312 81.1452C68.2638 81.2961 68.923 81.2951 69.5551 81.1422C70.1872 80.9893 70.774 80.689 71.2677 80.2657C71.7614 79.8425 72.1478 79.3083 72.3954 78.707C72.643 78.1057 72.7447 77.4543 72.6922 76.8062C72.6717 76.5548 72.6283 76.3059 72.5625 76.0624L79.3734 72.728L79.9984 74.303C80.0557 74.4493 80.142 74.5826 80.252 74.6948C80.362 74.807 80.4934 74.8959 80.6386 74.9562C80.7837 75.0164 80.9395 75.0468 81.0966 75.0454C81.2538 75.0441 81.409 75.0111 81.5531 74.9483L90.3031 71.178C90.5775 71.0565 90.7947 70.8342 90.9098 70.5571C91.025 70.2799 91.0293 69.9692 90.9218 69.689ZM20.2703 72.3233L13.6687 69.4765L21.6015 48.7343L23.5469 49.4265L19.7969 60.0858C19.6933 60.3792 19.7104 60.7018 19.8447 60.9825C19.9789 61.2632 20.2191 61.4791 20.5125 61.5827C20.8059 61.6863 21.1284 61.6691 21.4091 61.5349C21.6898 61.4007 21.9058 61.1605 22.0094 60.8671L25.75 50.2187L28.6015 51.2358L20.2703 72.3233ZM34.125 79.2062C33.8719 79.4491 33.5339 79.5833 33.1832 79.58C32.8324 79.5768 32.4969 79.4364 32.2484 79.1889C31.9998 78.9414 31.8581 78.6065 31.8534 78.2558C31.8487 77.905 31.9816 77.5664 32.2234 77.3124L34.7234 74.8124C34.9114 74.6251 35.1507 74.4976 35.411 74.4461C35.6714 74.3946 35.9412 74.4213 36.1863 74.523C36.4315 74.6246 36.6411 74.7965 36.7887 75.0171C36.9363 75.2377 37.0152 75.497 37.0156 75.7624C37.0162 75.9387 36.9817 76.1134 36.9141 76.2762C36.8465 76.4391 36.7472 76.5868 36.6218 76.7108L34.125 79.2062ZM38.0968 82.3562C38.0265 82.4249 37.964 82.4983 37.9015 82.5718L37.889 82.5577C37.7655 82.687 37.6175 82.7904 37.4535 82.8616C37.2895 82.9329 37.1129 82.9707 36.9341 82.9728C36.7553 82.9749 36.5779 82.9412 36.4123 82.8738C36.2467 82.8064 36.0962 82.7066 35.9697 82.5802C35.8432 82.4538 35.7433 82.3034 35.6757 82.1378C35.6082 81.9723 35.5744 81.7949 35.5763 81.6161C35.5782 81.4373 35.6159 81.2607 35.687 81.0967C35.7582 80.9326 35.8614 80.7845 35.9906 80.6608L38.2843 78.3687C38.3531 78.2999 38.4187 78.228 38.4812 78.1546L38.4922 78.1655C38.7456 77.9231 39.0839 77.7895 39.4346 77.7933C39.7853 77.7971 40.1206 77.938 40.3687 78.1859C40.6168 78.4338 40.758 78.769 40.7621 79.1197C40.7662 79.4704 40.6328 79.8088 40.3906 80.0624L38.0968 82.3562ZM41.6469 85.9062C41.3914 86.1355 41.0578 86.2583 40.7146 86.2492C40.3715 86.2401 40.0448 86.0999 39.8019 85.8573C39.5589 85.6148 39.4181 85.2884 39.4085 84.9452C39.3988 84.602 39.521 84.2682 39.75 84.0124L42.25 81.5124C42.3712 81.3751 42.5194 81.264 42.6852 81.1861C42.851 81.1081 43.031 81.065 43.2142 81.0592C43.3973 81.0535 43.5797 81.0853 43.75 81.1528C43.9204 81.2202 44.0752 81.3218 44.2048 81.4513C44.3344 81.5808 44.4361 81.7355 44.5037 81.9058C44.5713 82.0761 44.6032 82.2585 44.5977 82.4416C44.5921 82.6247 44.5491 82.8048 44.4713 82.9707C44.3935 83.1366 44.2825 83.2848 44.1453 83.4062L41.6469 85.9062ZM47.9094 86.7593L45.4094 89.2593C45.1559 89.5017 44.8176 89.6353 44.4669 89.6315C44.1162 89.6277 43.781 89.4868 43.5329 89.2389C43.2848 88.991 43.1435 88.6558 43.1394 88.3051C43.1353 87.9544 43.2687 87.616 43.5109 87.3624L45.8047 85.0702C45.8734 85.0015 45.939 84.9296 46.0015 84.8562L46.0125 84.8671C46.2659 84.6247 46.6042 84.491 46.9549 84.4949C47.3056 84.4987 47.6409 84.6396 47.889 84.8875C48.1371 85.1354 48.2783 85.4706 48.2824 85.8213C48.2865 86.172 48.1531 86.5103 47.9109 86.764L47.9094 86.7593ZM69.8406 78.3843C69.5291 78.6992 69.1104 78.8852 68.6679 78.9052C68.2254 78.9252 67.7917 78.7777 67.4531 78.4921L66.539 77.7312C66.4752 77.6384 66.3984 77.5552 66.3109 77.4843L64.2031 75.7905C63.9602 75.608 63.6558 75.527 63.3543 75.5645C63.0528 75.6021 62.7776 75.7553 62.5869 75.9918C62.3961 76.2284 62.3047 76.5297 62.332 76.8324C62.3592 77.135 62.5029 77.4153 62.7328 77.614L64.5515 79.0812C64.6021 79.151 64.6596 79.2154 64.7234 79.2733C64.9041 79.4333 65.0501 79.6286 65.1525 79.8471C65.2549 80.0656 65.3115 80.3028 65.3188 80.544C65.3261 80.7852 65.284 81.0253 65.1951 81.2496C65.1061 81.474 64.9722 81.6777 64.8015 81.8483L64.7359 81.914C64.4395 82.2116 64.0469 82.3939 63.6282 82.4283C63.2096 82.4627 62.7925 82.3468 62.4515 82.1015L60.6406 80.8046L60.6218 80.7905L59.9375 80.3015C59.6847 80.1206 59.3704 80.0475 59.0638 80.0984C58.7571 80.1492 58.4832 80.3198 58.3023 80.5726C58.1214 80.8253 58.0484 81.1396 58.0992 81.4463C58.1501 81.7529 58.3206 82.0268 58.5734 82.2077L59.2703 82.7062C59.4771 82.8568 59.6489 83.0506 59.7736 83.274C59.8984 83.4975 59.9732 83.7453 59.993 84.0004C60.0127 84.2556 59.9769 84.512 59.888 84.752C59.7992 84.992 59.6593 85.2098 59.4781 85.3905L59.3812 85.4874C59.0624 85.8059 58.6343 85.991 58.1839 86.0053C57.7334 86.0195 57.2945 85.8617 56.9562 85.564L55.0031 83.8452C54.8909 83.7289 54.7559 83.637 54.6065 83.5753C54.4571 83.5137 54.2965 83.4836 54.135 83.487C53.9734 83.4904 53.8142 83.5271 53.6676 83.595C53.5209 83.6628 53.3898 83.7603 53.2826 83.8812C53.1754 84.0022 53.0943 84.144 53.0446 84.2977C52.9948 84.4515 52.9774 84.6139 52.9934 84.7747C53.0094 84.9356 53.0585 85.0913 53.1376 85.2323C53.2167 85.3732 53.3241 85.4962 53.4531 85.5937L54.1172 86.1812C54.2981 86.3402 54.4446 86.5346 54.5479 86.7523C54.6511 86.97 54.7088 87.2065 54.7174 87.4472C54.726 87.688 54.6854 87.928 54.598 88.1525C54.5107 88.3771 54.3784 88.5814 54.2094 88.753L54.0765 88.8874C53.775 89.1922 53.3735 89.3777 52.946 89.4099C52.5185 89.442 52.0937 89.3186 51.75 89.0624L50.0625 87.803C50.4191 87.246 50.6193 86.6033 50.642 85.9423C50.6648 85.2813 50.5092 84.6263 50.1917 84.0461C49.8742 83.4659 49.4064 82.9818 48.8374 82.6446C48.2684 82.3074 47.6192 82.1295 46.9578 82.1296H46.8656C46.7833 81.2131 46.3609 80.3606 45.6817 79.7397C45.0025 79.1189 44.1155 78.7747 43.1953 78.7749H43.1C43.0149 77.845 42.5789 76.9823 41.8806 76.3624C41.1823 75.7424 40.2741 75.4117 39.3406 75.4374C39.2671 74.5759 38.89 73.7686 38.2765 73.1593C37.5849 72.4689 36.6476 72.0811 35.6703 72.0811C34.693 72.0811 33.7557 72.4689 33.064 73.1593L31.8031 74.4187L23.7562 69.8874L29.6125 55.0687L34.9156 58.239C35.0552 58.3225 35.2106 58.3761 35.372 58.3962C35.5334 58.4164 35.6973 58.4028 35.8531 58.3562L40.3094 57.0296C41.0539 56.8103 41.8386 56.7634 42.604 56.8925C43.3693 57.0217 44.0952 57.3234 44.7265 57.7749L45.3422 58.2187L39.0781 62.8671C38.6133 63.2122 38.2353 63.6607 37.9739 64.1772C37.7126 64.6937 37.5751 65.264 37.5723 65.8429C37.5696 66.4217 37.7017 66.9933 37.9582 67.5122C38.2147 68.0312 38.5885 68.4833 39.05 68.8327C39.9204 69.4862 40.9681 69.8614 42.0555 69.9091C43.1429 69.9568 44.2194 69.6747 45.1437 69.0999L50.0625 66.0046C50.6343 67.1452 51.7031 68.6952 53.5593 69.6499C55.7109 70.7562 58.3265 70.7843 61.3422 69.7343L69.6234 75.6983C69.8315 75.8486 70.0045 76.0422 70.1305 76.2658C70.2564 76.4894 70.3324 76.7377 70.353 76.9935C70.3737 77.2494 70.3386 77.5066 70.2501 77.7475C70.1616 77.9885 70.0219 78.2073 69.8406 78.389V78.3843ZM71.3468 74.0468L62.2078 67.4687C62.0492 67.3548 61.8646 67.2823 61.6709 67.2577C61.4772 67.2331 61.2804 67.2573 61.0984 67.328C58.489 68.3405 56.3218 68.4218 54.6531 67.5765C52.4437 66.453 51.7672 63.9968 51.7609 63.9827C51.7153 63.8039 51.6281 63.6385 51.5064 63.4997C51.3847 63.361 51.232 63.253 51.0607 63.1845C50.8894 63.116 50.7043 63.0889 50.5205 63.1054C50.3367 63.1219 50.1594 63.1816 50.0031 63.2796L43.8969 67.1093C43.3751 67.4335 42.7675 67.5921 42.1539 67.5642C41.5403 67.5363 40.9495 67.3232 40.4593 66.953C40.288 66.8236 40.1491 66.6559 40.0539 66.4634C39.9586 66.2709 39.9096 66.0588 39.9106 65.844C39.9117 65.6293 39.9628 65.4177 40.06 65.2261C40.1571 65.0346 40.2976 64.8683 40.4703 64.7405L50.5547 57.2562C51.1172 56.8397 51.7595 56.5438 52.4416 56.3868C53.1236 56.2298 53.8307 56.2151 54.5187 56.3437L65.2187 58.353C65.462 58.3997 65.7138 58.3674 65.9375 58.2608L72.4312 55.1765L78.5047 70.5452L71.3468 74.0468ZM81.7297 72.3187L73.3937 51.2249L76.2468 50.2077L79.9859 60.8562C80.0895 61.1496 80.3054 61.3898 80.5861 61.524C80.8669 61.6582 81.1894 61.6754 81.4828 61.5718C81.7762 61.4682 82.0164 61.2523 82.1506 60.9716C82.2848 60.6908 82.302 60.3683 82.1984 60.0749L78.4484 49.4155L80.3937 48.7233L88.3265 69.4655L81.7297 72.3187Z" fill="#6C2A80"/>
<path d="M51 48.7188C54.6311 48.7188 58.1807 47.642 61.1999 45.6246C64.2191 43.6073 66.5723 40.7399 67.9618 37.3852C69.3514 34.0305 69.715 30.339 69.0066 26.7776C68.2982 23.2163 66.5496 19.9449 63.982 17.3773C61.4144 14.8097 58.1431 13.0612 54.5817 12.3528C51.0204 11.6444 47.3289 12.008 43.9742 13.3975C40.6194 14.7871 37.7521 17.1403 35.7347 20.1595C33.7174 23.1786 32.6406 26.7282 32.6406 30.3594C32.646 35.2269 34.582 39.8936 38.0239 43.3355C41.4658 46.7774 46.1324 48.7134 51 48.7188ZM51 14.3438C54.1676 14.3438 57.264 15.2831 59.8978 17.0429C62.5316 18.8027 64.5843 21.304 65.7965 24.2305C67.0087 27.1569 67.3259 30.3771 66.7079 33.4839C66.0899 36.5906 64.5646 39.4443 62.3248 41.6841C60.0849 43.924 57.2312 45.4493 54.1245 46.0673C51.0178 46.6852 47.7976 46.3681 44.8711 45.1559C41.9446 43.9437 39.4433 41.8909 37.6835 39.2572C35.9237 36.6234 34.9844 33.527 34.9844 30.3594C34.9889 26.1132 36.6777 22.0422 39.6803 19.0397C42.6828 16.0371 46.7538 14.3483 51 14.3438Z" fill="#6C2A80"/>
<path d="M51 44.0313C53.704 44.0313 56.3474 43.2294 58.5957 41.7271C60.844 40.2248 62.5964 38.0896 63.6312 35.5914C64.666 33.0932 64.9367 30.3442 64.4092 27.6921C63.8816 25.04 62.5795 22.604 60.6675 20.6919C58.7554 18.7799 56.3193 17.4777 53.6673 16.9502C51.0152 16.4227 48.2662 16.6934 45.768 17.7282C43.2698 18.763 41.1345 20.5154 39.6323 22.7637C38.13 25.012 37.3281 27.6553 37.3281 30.3594C37.3323 33.9841 38.774 37.4592 41.3371 40.0223C43.9002 42.5854 47.3753 44.0271 51 44.0313ZM51 19.0313C53.2405 19.0313 55.4307 19.6956 57.2936 20.9404C59.1565 22.1851 60.6084 23.9544 61.4658 26.0243C62.3232 28.0942 62.5476 30.3719 62.1105 32.5694C61.6734 34.7668 60.5945 36.7853 59.0102 38.3696C57.4259 39.9538 55.4074 41.0327 53.21 41.4698C51.0126 41.9069 48.7349 41.6826 46.6649 40.8252C44.595 39.9678 42.8258 38.5159 41.581 36.653C40.3363 34.79 39.6719 32.5999 39.6719 30.3594C39.6752 27.356 40.8697 24.4766 42.9935 22.3528C45.1172 20.2291 47.9966 19.0346 51 19.0313ZM74.5844 30.3594C74.5844 30.5133 74.6147 30.6657 74.6736 30.8078C74.7325 30.95 74.8188 31.0792 74.9276 31.188C75.0364 31.2968 75.1656 31.3832 75.3078 31.4421C75.45 31.5009 75.6024 31.5313 75.7562 31.5313H82.25C82.5608 31.5313 82.8589 31.4078 83.0786 31.188C83.2984 30.9683 83.4219 30.6702 83.4219 30.3594C83.4219 30.0486 83.2984 29.7505 83.0786 29.5307C82.8589 29.311 82.5608 29.1875 82.25 29.1875H75.7562C75.4454 29.1875 75.1474 29.311 74.9276 29.5307C74.7078 29.7505 74.5844 30.0486 74.5844 30.3594ZM73.3219 25.0172C73.5302 25.0188 73.7351 24.9649 73.9156 24.8609L78.7844 22C79.0537 21.8427 79.2496 21.5849 79.3289 21.2832C79.4081 20.9816 79.3643 20.6608 79.207 20.3914C79.0498 20.1221 78.7919 19.9262 78.4903 19.8469C78.1886 19.7677 77.8678 19.8115 77.5984 19.9688L72.7281 22.8344C72.5037 22.9635 72.3284 23.1633 72.2296 23.4026C72.1308 23.6419 72.1139 23.9072 72.1817 24.157C72.2496 24.4069 72.3982 24.6272 72.6045 24.7837C72.8107 24.9402 73.063 25.0239 73.3219 25.0219V25.0172ZM72.7281 37.8844L77.5984 40.75C77.7318 40.8279 77.8792 40.8787 78.0322 40.8996C78.1853 40.9205 78.3409 40.9111 78.4903 40.8718C78.6396 40.8326 78.7798 40.7643 78.9028 40.6709C79.0258 40.5775 79.1292 40.4607 79.207 40.3274C79.2849 40.194 79.3357 40.0466 79.3566 39.8936C79.3775 39.7405 79.3681 39.5849 79.3289 39.4355C79.2896 39.2861 79.2213 39.146 79.1279 39.023C79.0345 38.9 78.9178 38.7966 78.7844 38.7188L73.9156 35.8594C73.7829 35.7785 73.6354 35.7249 73.4817 35.7016C73.328 35.6783 73.1712 35.6858 73.0205 35.7237C72.8697 35.7616 72.728 35.8291 72.6036 35.9223C72.4792 36.0154 72.3745 36.1324 72.2958 36.2664C72.217 36.4004 72.1657 36.5488 72.1448 36.7028C72.1239 36.8568 72.1339 37.0135 72.1741 37.1636C72.2144 37.3137 72.2841 37.4544 72.3792 37.5773C72.4743 37.7002 72.5929 37.803 72.7281 37.8797V37.8844ZM19.75 31.5313H26.2437C26.5546 31.5313 26.8526 31.4078 27.0724 31.188C27.2922 30.9683 27.4156 30.6702 27.4156 30.3594C27.4156 30.0486 27.2922 29.7505 27.0724 29.5307C26.8526 29.311 26.5546 29.1875 26.2437 29.1875H19.75C19.4392 29.1875 19.1411 29.311 18.9214 29.5307C18.7016 29.7505 18.5781 30.0486 18.5781 30.3594C18.5781 30.6702 18.7016 30.9683 18.9214 31.188C19.1411 31.4078 19.4392 31.5313 19.75 31.5313ZM23.2156 22L28.0844 24.8594C28.2171 24.9402 28.3646 24.9939 28.5183 25.0172C28.672 25.0405 28.8288 25.0329 28.9795 24.9951C29.1303 24.9572 29.272 24.8897 29.3964 24.7965C29.5208 24.7033 29.6255 24.5863 29.7042 24.4523C29.783 24.3183 29.8343 24.17 29.8552 24.016C29.8761 23.862 29.8661 23.7053 29.8259 23.5552C29.7856 23.405 29.7159 23.2644 29.6208 23.1415C29.5257 23.0185 29.4071 22.9157 29.2719 22.8391L24.4016 19.9688C24.2682 19.8909 24.1208 19.84 23.9678 19.8191C23.8147 19.7982 23.6591 19.8077 23.5097 19.8469C23.2081 19.9262 22.9502 20.1221 22.793 20.3914C22.6357 20.6608 22.5919 20.9816 22.6711 21.2832C22.7504 21.5849 22.9463 21.8427 23.2156 22ZM28.0844 35.8641L23.2156 38.7188C22.9463 38.876 22.7504 39.1339 22.6711 39.4355C22.5919 39.7372 22.6357 40.058 22.793 40.3274C22.9502 40.5967 23.2081 40.7926 23.5097 40.8718C23.8114 40.9511 24.1322 40.9073 24.4016 40.75L29.2719 37.8891C29.4071 37.8124 29.5257 37.7096 29.6208 37.5867C29.7159 37.4637 29.7856 37.3231 29.8259 37.173C29.8661 37.0228 29.8761 36.8662 29.8552 36.7122C29.8343 36.5581 29.783 36.4098 29.7042 36.2758C29.6255 36.1418 29.5208 36.0248 29.3964 35.9316C29.272 35.8385 29.1303 35.771 28.9795 35.7331C28.8288 35.6952 28.672 35.6877 28.5183 35.711C28.3646 35.7343 28.2171 35.7879 28.0844 35.8688V35.8641Z" fill="#6C2A80"/>
<path d="M48.3703 35.456C48.4801 35.5742 48.6131 35.6684 48.761 35.7328C48.9088 35.7972 49.0684 35.8305 49.2297 35.8305C49.391 35.8305 49.5505 35.7972 49.6984 35.7328C49.8462 35.6684 49.9792 35.5742 50.089 35.456L58.1109 26.8623C58.216 26.7494 58.2978 26.617 58.3517 26.4725C58.4055 26.3281 58.4304 26.1744 58.4249 26.0203C58.4194 25.8662 58.3836 25.7147 58.3195 25.5745C58.2555 25.4342 58.1644 25.308 58.0516 25.2029C57.9387 25.0979 57.8063 25.0161 57.6618 24.9622C57.5173 24.9083 57.3637 24.8834 57.2096 24.8889C57.0555 24.8944 56.904 24.9303 56.7637 24.9943C56.6235 25.0584 56.4972 25.1494 56.3922 25.2623L49.2281 32.9373L45.6062 29.0576C45.3941 28.8297 45.1 28.6954 44.7888 28.6842C44.4777 28.6731 44.1748 28.7861 43.9469 28.9982C43.7189 29.2104 43.5846 29.5044 43.5735 29.8156C43.5624 30.1268 43.6753 30.4297 43.8875 30.6576L48.3703 35.456Z" fill="#6C2A80"/>
</g>
<defs>
<clipPath id="clip0_38_676">
<rect width="80" height="80" fill="white" transform="translate(11 12)"/>
</clipPath>
</defs>
</svg>
