<svg width="38" height="38" viewBox="0 0 38 38" fill="none" xmlns="http://www.w3.org/2000/svg">
<path d="M19.0002 0.666507C15.7652 0.665056 12.5875 1.52001 9.78992 3.1445C6.99237 4.76899 4.67471 7.10511 3.07247 9.91546C1.47023 12.7258 0.640517 15.9102 0.667636 19.1451C0.694756 22.38 1.57775 25.5501 3.22688 28.3332L0.768544 35.0965C0.676945 35.3482 0.647351 35.6182 0.682268 35.8838C0.717185 36.1493 0.815584 36.4026 0.969133 36.622C1.12268 36.8415 1.32685 37.0207 1.56436 37.1445C1.80187 37.2683 2.06571 37.333 2.33354 37.3332C2.52787 37.3327 2.72066 37.2989 2.90354 37.2332L9.66688 34.7732C12.0942 36.2111 14.8206 37.0694 17.6339 37.2814C20.4471 37.4933 23.2714 37.0531 25.8867 35.995C28.502 34.937 30.8378 33.2896 32.7124 31.1811C34.5869 29.0727 35.9495 26.5601 36.6942 23.8389C37.4389 21.1177 37.5454 18.2613 37.0057 15.4922C36.4659 12.7231 35.2943 10.1159 33.5821 7.87359C31.87 5.6313 29.6634 3.81441 27.1342 2.56436C24.605 1.31432 21.8215 0.664844 19.0002 0.666507Z" fill="#6C2A80"/>
</svg>
