<svg width="103" height="104" viewBox="0 0 103 104" fill="none" xmlns="http://www.w3.org/2000/svg">
<rect x="1" y="1" width="101" height="102" rx="4" stroke="#6C2A80" stroke-width="2"/>
<g clip-path="url(#clip0_113_1600)">
<path d="M19.9228 18.5145L19.9227 18.5145L18.1399 16.8518C18.1399 16.8517 18.1398 16.8517 18.1398 16.8516C17.7989 16.534 17.265 16.5528 16.9474 16.8933L19.9228 18.5145ZM19.9228 18.5145C20.4746 19.0291 20.1133 19.9753 19.3469 19.9753M19.9228 18.5145L19.3469 19.9753M15.9776 61.0797L16.9889 62.1642C16.6481 62.482 16.6295 63.0159 16.9471 63.3566L15.9776 61.0797ZM15.9776 61.0797L16.9889 62.1642L18.7719 60.5015C19.1126 60.1839 19.6464 60.2023 19.9645 60.5433C20.2822 60.884 20.2636 61.4179 19.9228 61.7357L20.9458 62.8328M15.9776 61.0797L20.9458 62.8328M20.9458 62.8328L19.9228 61.7358L18.1399 63.3983C18.1399 63.3983 18.1398 63.3984 18.1398 63.3984M20.9458 62.8328L18.1398 63.3984M19.3469 19.9753C19.1238 19.9753 18.9767 19.9291 18.6488 19.6418C18.4929 19.5051 18.3402 19.3532 18.1349 19.1487C18.0795 19.0936 18.0203 19.0346 17.9562 18.9711C17.6837 18.7014 17.3574 18.3864 16.9635 18.061M19.3469 19.9753L16.9635 18.061M16.9635 18.061C16.6475 17.7408 16.6377 17.2254 16.9473 16.8934L16.9635 18.061ZM18.1398 63.3984C17.7989 63.7161 17.2653 63.6976 16.9472 63.3567L18.1398 63.3984ZM83.2281 60.5015C82.8873 60.184 82.3535 60.2026 82.0356 60.5432L83.2281 60.5015ZM83.2281 60.5015C83.2282 60.5016 83.2282 60.5017 83.2283 60.5017M83.2281 60.5015L83.2283 60.5017M83.2283 60.5017L85.0111 62.1642L86.0341 61.0672L85.0111 62.1642C85.3519 62.482 85.3706 63.0159 85.0527 63.3568C84.735 63.6972 84.2013 63.7164 83.8602 63.3984C83.8602 63.3984 83.8601 63.3983 83.8601 63.3983L82.0772 61.7358L81.0542 62.8328L82.0772 61.7357C81.7365 61.4181 81.7177 60.8844 82.0353 60.5435L83.2283 60.5017ZM37.4704 27.661C37.588 27.5265 37.7812 27.2379 37.7812 26.2187C37.7812 24.0959 39.5022 22.375 41.625 22.375C43.7478 22.375 45.4688 24.0959 45.4688 26.2187C45.4688 29.2436 44.5016 31.3515 43.1442 32.8376C41.8567 34.2471 40.2956 35.001 39.3021 35.4808L39.2507 35.5056C38.8742 35.6875 38.6106 35.8214 38.4234 35.9253C38.2553 37.8929 36.6048 39.4375 34.5938 39.4375C32.4709 39.4375 30.75 37.7165 30.75 35.5937C30.75 33.3852 31.5721 31.8026 32.6995 30.6735C33.7435 29.6279 35.0145 29.0143 35.8488 28.6115L37.4704 27.661ZM37.4704 27.661C37.2603 27.9014 36.9033 28.102 35.9063 28.5837L37.4704 27.661ZM83.2281 19.7486L83.228 19.7486C82.8875 20.0662 82.3535 20.0478 82.0355 19.7069C81.7178 19.3662 81.7364 18.8323 82.0772 18.5145L81.0542 17.4175L82.0772 18.5145L83.8602 16.8519L83.8604 16.8517C84.2008 16.5341 84.7347 16.5525 85.0527 16.8935C85.3705 17.2342 85.3519 17.7681 85.0111 18.0859L86.0271 19.1755L85.0111 18.0859L83.2281 19.7486ZM77.0453 39.0753L76.0171 40.125L77.0453 41.1747C82.8656 47.1161 79.4789 57.1108 71.3846 58.4163L70.4485 58.5673L70.1833 59.4776C68.9236 63.8013 64.9905 66.8281 60.375 66.8281H54.8438V15.1298C60.4715 11.4795 68.1914 14.2237 70.1637 20.7811L70.4348 21.6823L71.3642 21.8304C79.5001 23.1262 82.8575 33.1422 77.0453 39.0753ZM62.8238 47.5814L62.8238 47.5814C60.7829 48.1651 59.6012 50.2927 60.185 52.3338C60.6684 54.0239 62.208 55.1212 63.8795 55.1212C64.4215 55.1212 65.0886 54.9626 65.7419 54.7406C66.4324 54.5059 67.2325 54.157 68.0722 53.6869C69.7475 52.749 71.6462 51.2912 73.1493 49.2084C74.3917 47.4868 74.003 45.0845 72.2818 43.8421L72.2816 43.842C70.5604 42.6 68.1579 42.9882 66.9155 44.7097C65.9083 46.1054 64.4419 47.1187 62.8238 47.5814ZM30.636 21.8304L31.5654 21.6823L31.8364 20.7811C33.8087 14.2235 41.5288 11.4796 47.1562 15.1298V66.8281H41.6252C37.0213 66.8281 33.0805 63.8153 31.8168 59.4776L31.5516 58.5673L30.6156 58.4163C22.5247 57.1112 19.1329 47.1176 24.9548 41.1747L25.9831 40.125L24.9548 39.0753C19.1447 33.1444 22.4958 23.127 30.636 21.8304ZM29.8739 44.3117L29.8738 44.3117C28.2051 45.6238 27.9158 48.0402 29.228 49.7091C30.6756 51.5502 32.4683 52.8814 34.0559 53.7537C34.8523 54.1913 35.6153 54.5235 36.2826 54.7497C36.9155 54.9643 37.5711 55.1212 38.1205 55.1212C39.7919 55.1212 41.3318 54.0238 41.815 52.3338C42.3988 50.2927 41.2173 48.1652 39.1763 47.5813L39.1761 47.5812C37.6237 47.1374 36.2461 46.1975 35.2712 44.9576C33.9592 43.2888 31.5429 42.9996 29.8739 44.3117ZM15.7817 39.4453C16.2477 39.4453 16.6255 39.8231 16.6255 40.289C16.6255 40.755 16.2477 41.1328 15.7817 41.1328H13.3438C12.8778 41.1328 12.5 40.755 12.5 40.289C12.5 39.8231 12.8778 39.4453 13.3438 39.4453H15.7817ZM86.2183 39.1173H88.6562C89.1222 39.1173 89.5 39.4951 89.5 39.9611C89.5 40.427 89.1222 40.8048 88.6562 40.8048H86.2183C85.7523 40.8048 85.3745 40.427 85.3745 39.9611C85.3745 39.4951 85.7523 39.1173 86.2183 39.1173ZM42.3591 80.5C40.4994 79.6042 39.2188 77.7031 39.2188 75.5156V73.6562H62.7812V75.5156C62.7812 77.7031 61.5006 79.6042 59.6409 80.5H42.3591ZM44.75 90.5C44.2847 90.5 43.9062 90.1216 43.9062 89.6562V88.1875H58.0938V89.6562C58.0938 90.1216 57.7153 90.5 57.25 90.5H44.75ZM60.375 22.375C58.2522 22.375 56.5312 24.0959 56.5312 26.2187C56.5312 29.2436 57.4984 31.3515 58.8558 32.8376C60.1433 34.2471 61.7044 35.001 62.6979 35.4808L62.7493 35.5056C63.1258 35.6875 63.3894 35.8214 63.5766 35.9253C63.7447 37.8929 65.3952 39.4375 67.4062 39.4375C69.5291 39.4375 71.25 37.7165 71.25 35.5937C71.25 33.3852 70.4279 31.8026 69.3005 30.6735C68.2565 29.6279 66.9855 29.0143 66.1512 28.6115L66.0937 28.5838C66.0937 28.5837 66.0937 28.5837 66.0937 28.5837C65.0968 28.102 64.7397 27.9014 64.5296 27.661C64.412 27.5264 64.2188 27.2378 64.2188 26.2187C64.2188 24.0959 62.4978 22.375 60.375 22.375Z" stroke="#6C2A80" stroke-width="3"/>
</g>
<defs>
<clipPath id="clip0_113_1600">
<rect width="80" height="80" fill="white" transform="translate(11 12)"/>
</clipPath>
</defs>
</svg>
