<svg width="40" height="50" viewBox="0 0 40 50" fill="none" xmlns="http://www.w3.org/2000/svg">
<g clip-path="url(#clip0_891_732)">
<path d="M26.9932 0.386427C26.7639 0.144922 26.4497 0 26.1239 0H6.61896C3.01964 0 0.0488281 2.95899 0.0488281 6.55783V43.4419C0.0488281 47.041 3.01973 50.0001 6.61886 50.0001H33.0922C36.6914 50.0001 39.6623 47.0411 39.6623 43.4419V14.1543C39.6623 13.8405 39.5173 13.5387 39.3121 13.309L26.9932 0.386427ZM27.3434 4.26339L35.5924 12.9227H30.23C28.6358 12.9227 27.3434 11.6424 27.3434 10.0484V4.26339ZM33.0922 47.5847H6.61886C4.36056 47.5847 2.46426 45.7128 2.46426 43.4419V6.55783C2.46426 4.29952 4.34835 2.41543 6.61886 2.41543H24.928V10.0483C24.928 12.9829 27.2954 15.3381 30.23 15.3381H37.2468V43.4419C37.2468 45.7128 35.3627 47.5847 33.0922 47.5847Z" fill="#6C2A80"/>
<path d="M29.795 39.2515H9.91573C9.25166 39.2515 8.70801 39.7946 8.70801 40.4592C8.70801 41.1232 9.25156 41.6669 9.91573 41.6669H29.8072C30.4712 41.6669 31.0149 41.1233 31.0149 40.4592C31.0149 39.7946 30.4712 39.2515 29.795 39.2515ZM18.9738 34.9156C19.2034 35.1571 19.5173 35.302 19.8553 35.302C20.1937 35.302 20.5076 35.1571 20.7369 34.9156L27.8143 27.319C28.2733 26.8356 28.237 26.0629 27.754 25.6162C27.2706 25.1572 26.4979 25.1931 26.0512 25.6764L21.063 31.0265V17.8383C21.063 17.1738 20.5195 16.6306 19.8553 16.6306C19.1912 16.6306 18.6476 17.1738 18.6476 17.8383V31.0265L13.6717 25.6764C13.2127 25.1934 12.4518 25.1572 11.9688 25.6162C11.4858 26.0751 11.4496 26.8361 11.9085 27.319L18.9738 34.9156Z" fill="#6C2A80"/>
</g>
<defs>
<clipPath id="clip0_891_732">
<rect width="40" height="50" fill="white"/>
</clipPath>
</defs>
</svg>
