<svg width="80" height="83" viewBox="0 0 80 83" fill="none" xmlns="http://www.w3.org/2000/svg">
<rect x="1" y="1" width="78" height="81" rx="4" stroke="#6C2A80" stroke-width="2"/>
<g clip-path="url(#clip0_785_88)">
<path d="M57.2331 30.3789L60.3852 25.4399L62.8551 27.0162L59.7029 31.9552L57.2331 30.3789ZM48.271 26.4082L50.1498 20.8655L52.9244 21.806L51.0456 27.3487L48.271 26.4082ZM38.5333 19.3511H41.4631V25.2108H38.5333V19.3511ZM27.0814 21.7907L29.856 20.8502L31.7348 26.393L28.9603 27.3335L27.0814 21.7907ZM17.1403 27.0217L19.6101 25.4455L22.7622 30.3845L20.2923 31.9608L17.1403 27.0217ZM64.2296 43.7107L65 42.7575L64.1978 41.831C64.0895 41.7059 61.495 38.7314 57.2428 35.733C51.5581 31.7243 45.595 29.6056 39.9982 29.6056C34.4009 29.6056 28.4426 31.7246 22.7671 35.7337C18.522 38.7324 15.9345 41.7074 15.8264 41.8325L15 42.7899L15.8264 43.7472C15.9345 43.8723 18.522 46.8473 22.7671 49.8461C28.4425 53.8552 34.4009 55.9742 39.9982 55.9742C42.7955 55.9742 45.6803 55.4559 48.5935 54.4348C48.7904 54.7879 49.0352 55.112 49.321 55.3979L56.572 62.6489L62.7871 56.4337L56.6875 50.3342C61.3992 47.1786 64.1052 43.8646 64.2296 43.7107ZM45.1775 45.0393C42.3217 47.8953 37.6747 47.8953 34.8189 45.0393C33.4354 43.6559 32.6736 41.8165 32.6736 39.86C32.6736 37.9036 33.4354 36.0642 34.8189 34.6808C36.2468 33.2528 38.1225 32.5388 39.9982 32.5388C41.8739 32.5388 43.7496 33.2528 45.1775 34.6808C46.561 36.0642 47.3228 37.9036 47.3228 39.86C47.3228 41.8165 46.561 43.6559 45.1775 45.0393ZM24.5183 47.4958C21.9506 45.6892 20.0067 43.8627 18.9469 42.7899C20.0069 41.7168 21.9509 39.8903 24.5183 38.0839C26.343 36.7999 28.6852 35.3915 31.369 34.3147C30.3112 35.9536 29.7437 37.8631 29.7437 39.86C29.7437 42.5991 30.8104 45.1741 32.7472 47.111C34.7463 49.11 37.3722 50.1096 39.9982 50.1096C42.1623 50.1096 44.3259 49.43 46.1391 48.0724L48.4633 50.3967C48.2972 50.7455 48.1779 51.1148 48.1086 51.4949C45.3415 52.5222 42.6171 53.0443 39.9982 53.0443C33.7215 53.0444 28.1157 50.027 24.5183 47.4958ZM56.572 58.5054L51.3927 53.3261C50.8215 52.755 50.8215 51.8256 51.3927 51.2543C51.9652 50.682 52.8918 50.6819 53.4644 51.2543L58.6437 56.4336L56.572 58.5054ZM54.3714 48.3472C53.1432 47.7406 51.716 47.757 50.5331 48.3232L48.2116 46.0019C49.5359 44.2386 50.2526 42.1045 50.2526 39.86C50.2526 37.8621 49.6845 35.9517 48.6256 34.3123C51.3153 35.3897 53.6639 36.7995 55.4937 38.0848C58.0853 39.9051 60.044 41.7456 61.1011 42.8152C59.9327 44.048 57.6023 46.2878 54.3714 48.3472Z" fill="#6C2A80"/>
<path d="M39.9982 35.4653C37.5749 35.4653 35.6034 37.4368 35.6034 39.8601C35.6034 42.2834 37.5749 44.2549 39.9982 44.2549C42.4215 44.2549 44.393 42.2834 44.393 39.8601C44.393 37.4368 42.4215 35.4653 39.9982 35.4653ZM39.9982 41.325C39.1904 41.325 38.5332 40.6679 38.5332 39.8601C38.5332 39.0524 39.1904 38.3952 39.9982 38.3952C40.8059 38.3952 41.4631 39.0524 41.4631 39.8601C41.4631 40.6679 40.8059 41.325 39.9982 41.325Z" fill="#6C2A80"/>
</g>
<defs>
<clipPath id="clip0_785_88">
<rect width="50" height="50" fill="white" transform="translate(15 16)"/>
</clipPath>
</defs>
</svg>
