<svg width="65" height="65" viewBox="0 0 65 65" fill="none" xmlns="http://www.w3.org/2000/svg">
<path d="M62.7123 28.4992L35.8024 1.58238C34.7805 0.568755 33.3995 0 31.9601 0C30.5208 0 29.1398 0.568755 28.1179 1.58238L1.58524 28.0941C0.569924 29.1151 0 30.4964 0 31.9363C0 33.3762 0.569924 34.7576 1.58524 35.7786L28.2576 62.8631C28.7641 63.3732 29.3665 63.7781 30.0301 64.0543C30.6938 64.3306 31.4055 64.4728 32.1243 64.4728C32.8432 64.4728 33.5549 64.3306 34.2185 64.0543C34.8822 63.7781 35.4846 63.3732 35.991 62.8631L62.7123 36.1349C63.731 35.1157 64.3033 33.7336 64.3033 32.2926C64.3033 30.8516 63.731 29.4695 62.7123 28.4503M57.4938 36.1349L36.012 57.6796C35.5055 58.1897 34.9031 58.5945 34.2395 58.8708C33.5759 59.147 32.8641 59.2893 32.1453 59.2893C31.4264 59.2893 30.7147 59.147 30.0511 58.8708C29.3875 58.5945 28.785 58.1897 28.2786 57.6796L6.75484 35.7926C5.74122 34.7707 5.17247 33.3896 5.17247 31.9503C5.17247 30.511 5.74122 29.1299 6.75484 28.108L28.062 6.80088C29.0821 5.78387 30.4638 5.21277 31.9043 5.21277C33.3447 5.21277 34.7264 5.78387 35.7465 6.80088L57.4379 28.4923C58.4532 29.5133 59.0232 30.8946 59.0232 32.3345C59.0232 33.7744 58.4532 35.1558 57.4379 36.1768" fill="#6C2A80"/>
<path d="M16.8076 27.2351L23.605 20.4657C23.9519 20.1201 24.4216 19.9261 24.9113 19.9261C25.401 19.9261 25.8707 20.1201 26.2177 20.4657L27.9502 22.1982C28.3013 22.5437 28.7753 22.7357 29.2679 22.7317C29.7605 22.7278 30.2314 22.5283 30.5769 22.1772C30.9225 21.8261 31.1144 21.3521 31.1105 20.8595C31.1065 20.3669 30.9071 19.8961 30.556 19.5505L28.8374 17.825C28.6655 17.6536 28.5291 17.45 28.436 17.2259C28.3429 17.0017 28.295 16.7613 28.295 16.5186C28.295 16.2759 28.3429 16.0355 28.436 15.8114C28.5291 15.5872 28.6655 15.3836 28.8374 15.2122L31.0101 13.0536C31.3558 12.7085 31.8244 12.5146 32.3129 12.5146C32.8015 12.5146 33.2701 12.7085 33.6158 13.0536L36.012 15.4637C36.3594 15.8093 36.8298 16.0027 37.3198 16.0014C37.8098 16 38.2792 15.8041 38.6248 15.4567C38.9703 15.1093 39.1637 14.6389 39.1624 14.1489C39.1611 13.6589 38.9652 13.1895 38.6178 12.844L33.6158 7.87001C33.2701 7.52489 32.8015 7.33105 32.3129 7.33105C31.8244 7.33105 31.3558 7.52489 31.0101 7.87001L14.2019 24.6014C14.0289 24.7725 13.8914 24.9759 13.7971 25.2002C13.7028 25.4244 13.6536 25.6651 13.6523 25.9083C13.651 26.1516 13.6976 26.3927 13.7895 26.618C13.8814 26.8432 14.0168 27.0482 14.1879 27.2211C14.359 27.394 14.5625 27.5316 14.7867 27.6259C15.011 27.7201 15.2516 27.7693 15.4949 27.7706C15.7381 27.7719 15.9793 27.7253 16.2045 27.6334C16.4298 27.5415 16.6347 27.4062 16.8076 27.2351Z" fill="#6C2A80"/>
<path d="M49.3272 38.1884C48.9815 37.8432 48.5129 37.6494 48.0244 37.6494C47.5358 37.6494 47.0672 37.8432 46.7215 38.1884L40.3014 44.6085C39.9544 44.954 39.4847 45.148 38.995 45.148C38.5053 45.148 38.0356 44.954 37.6886 44.6085L35.8374 42.7502C35.4904 42.4046 35.0207 42.2106 34.531 42.2106C34.0413 42.2106 33.5716 42.4046 33.2246 42.7502C33.0478 42.9221 32.9071 43.1277 32.8108 43.3548C32.7145 43.5819 32.6646 43.8259 32.6639 44.0726C32.6633 44.3192 32.7119 44.5635 32.807 44.7911C32.9021 45.0187 33.0417 45.225 33.2176 45.3979L35.0689 47.2491C35.2417 47.42 35.3789 47.6235 35.4725 47.8477C35.5661 48.0719 35.6143 48.3125 35.6143 48.5555C35.6143 48.7985 35.5661 49.0391 35.4725 49.2633C35.3789 49.4876 35.2417 49.691 35.0689 49.8619L32.9731 51.9577C32.6262 52.3032 32.1564 52.4972 31.6667 52.4972C31.1771 52.4972 30.7073 52.3032 30.3604 51.9577L28.2227 49.82C28.0674 49.6025 27.8667 49.4213 27.6345 49.289C27.4022 49.1567 27.144 49.0765 26.8777 49.0539C26.6114 49.0312 26.3434 49.0668 26.0922 49.158C25.841 49.2492 25.6126 49.3939 25.4228 49.5821C25.2331 49.7703 25.0865 49.9975 24.9933 50.248C24.9 50.4985 24.8623 50.7662 24.8827 51.0327C24.9032 51.2992 24.9813 51.558 25.1117 51.7913C25.2421 52.0246 25.4216 52.2268 25.6379 52.3838L30.3813 57.1273C30.5522 57.3001 30.7556 57.4372 30.9799 57.5308C31.2041 57.6245 31.4447 57.6727 31.6877 57.6727C31.9307 57.6727 32.1713 57.6245 32.3955 57.5308C32.6198 57.4372 32.8232 57.3001 32.9941 57.1273L49.3272 40.7941C49.499 40.6234 49.6352 40.4204 49.7282 40.1968C49.8212 39.9732 49.8691 39.7334 49.8691 39.4912C49.8691 39.2491 49.8212 39.0093 49.7282 38.7857C49.6352 38.5621 49.499 38.3591 49.3272 38.1884Z" fill="#6C2A80"/>
<path d="M13.2238 33.8367V33.8018C12.8783 33.4548 12.6843 32.9851 12.6843 32.4954C12.6843 32.0057 12.8783 31.536 13.2238 31.189C13.5703 30.8425 13.7649 30.3726 13.7649 29.8826C13.7649 29.3927 13.5703 28.9227 13.2238 28.5763C12.8774 28.2298 12.4074 28.0352 11.9174 28.0352C11.4275 28.0352 10.9576 28.2298 10.6111 28.5763L7.97039 31.217C7.79761 31.3878 7.66045 31.5913 7.56684 31.8155C7.47322 32.0398 7.42502 32.2803 7.42502 32.5233C7.42502 32.7663 7.47322 33.0069 7.56684 33.2312C7.66045 33.4554 7.79761 33.6588 7.97039 33.8297L10.6111 36.4704C10.9566 36.8169 11.4257 37.0119 11.915 37.0125C12.4043 37.0132 12.8739 36.8194 13.2203 36.4739C13.5668 36.1283 13.7618 35.6593 13.7625 35.17C13.7631 34.6807 13.5694 34.2111 13.2238 33.8646" fill="#6C2A80"/>
<path d="M51.94 26.2359C51.7684 26.0648 51.5648 25.9292 51.3409 25.8368C51.1169 25.7443 50.8769 25.6969 50.6346 25.6973C50.3923 25.6976 50.1525 25.7456 49.9287 25.8387C49.705 25.9317 49.5018 26.0679 49.3307 26.2394C49.1596 26.411 49.024 26.6145 48.9316 26.8385C48.8391 27.0625 48.7917 27.3025 48.7921 27.5448C48.7924 27.787 48.8404 28.0269 48.9334 28.2506C49.0265 28.4744 49.1627 28.6776 49.3342 28.8487L51.4789 31.0003C51.824 31.3461 52.0178 31.8147 52.0178 32.3032C52.0178 32.7917 51.824 33.2603 51.4789 33.6061L50.1376 34.9195C49.7874 35.2696 49.5907 35.7446 49.5907 36.2398C49.5907 36.735 49.7874 37.21 50.1376 37.5601C50.4878 37.9103 50.9627 38.107 51.4579 38.107C51.9531 38.107 52.4281 37.9103 52.7783 37.5601L56.7323 33.6061C57.0774 33.2603 57.2713 32.7917 57.2713 32.3032C57.2713 31.8147 57.0774 31.3461 56.7323 31.0003L51.94 26.2359Z" fill="#6C2A80"/>
<path d="M40.993 33.1661C41.2677 33.4457 41.4217 33.822 41.4217 34.214C41.4217 34.606 41.2677 34.9823 40.993 35.2619L39.9032 36.3447C39.6301 36.6251 39.4772 37.0011 39.4772 37.3926C39.4772 37.784 39.6301 38.16 39.9032 38.4405L40.4062 38.9365C40.5437 39.0742 40.707 39.1835 40.8868 39.258C41.0667 39.3325 41.2594 39.3709 41.4541 39.3709C41.6487 39.3709 41.8414 39.3325 42.0212 39.258C42.201 39.1835 42.3644 39.0742 42.5019 38.9365L46.2045 35.2409C46.4776 34.9605 46.6304 34.5845 46.6304 34.193C46.6304 33.8016 46.4776 33.4256 46.2045 33.1451L40.993 27.9336C40.7134 27.6588 40.3371 27.5049 39.9451 27.5049C39.5531 27.5049 39.1768 27.6588 38.8972 27.9336L38.7784 28.0524L24.1778 42.8067C23.8965 43.0782 23.5208 43.2299 23.1299 43.2299C22.739 43.2299 22.3633 43.0782 22.082 42.8067L16.5841 37.3018C16.3045 37.027 15.9282 36.873 15.5362 36.873C15.1442 36.873 14.7679 37.027 14.4883 37.3018L13.9923 37.8048C13.8546 37.9423 13.7453 38.1057 13.6708 38.2855C13.5962 38.4653 13.5578 38.658 13.5578 38.8527C13.5578 39.0473 13.5962 39.24 13.6708 39.4198C13.7453 39.5996 13.8546 39.763 13.9923 39.9005L22.1169 48.0252C22.3965 48.3 22.7728 48.4539 23.1648 48.4539C23.5568 48.4539 23.9331 48.3 24.2127 48.0252L38.8832 33.1521C39.1628 32.8774 39.5391 32.7234 39.9311 32.7234C40.3231 32.7234 40.6994 32.8774 40.979 33.1521" fill="#6C2A80"/>
<path d="M25.8893 31.2099C25.6014 31.4957 25.2122 31.6561 24.8065 31.6561C24.4008 31.6561 24.0116 31.4957 23.7237 31.2099L23.1089 30.5951C22.8231 30.3072 22.6627 29.918 22.6627 29.5123C22.6627 29.1066 22.8231 28.7174 23.1089 28.4295L26.9652 24.5732C27.1084 24.4316 27.2221 24.263 27.2997 24.0771C27.3773 23.8912 27.4172 23.6918 27.4172 23.4904C27.4172 23.289 27.3773 23.0896 27.2997 22.9037C27.2221 22.7179 27.1084 22.5492 26.9652 22.4076L26.5181 21.9605C26.2314 21.6751 25.8433 21.5149 25.4388 21.5149C25.0342 21.5149 24.6461 21.6751 24.3594 21.9605L19.4204 26.8996L17.8485 28.4085C17.7053 28.5502 17.5916 28.7188 17.514 28.9047C17.4364 29.0905 17.3965 29.2899 17.3965 29.4914C17.3965 29.6928 17.4364 29.8922 17.514 30.078C17.5916 30.2639 17.7053 30.4325 17.8485 30.5742L23.7307 36.4563C24.0174 36.7417 24.4055 36.902 24.81 36.902C25.2146 36.902 25.6026 36.7417 25.8893 36.4563L27.4402 34.9194L40.49 21.8627C40.6317 21.72 40.8002 21.6067 40.9857 21.5291C41.1713 21.4516 41.3703 21.4113 41.5714 21.4107C41.7725 21.41 41.9717 21.449 42.1578 21.5254C42.3438 21.6017 42.513 21.714 42.6556 21.8557C42.7983 21.9974 42.9116 22.1659 42.9892 22.3514C43.0667 22.537 43.107 22.736 43.1077 22.9371C43.1083 23.1382 43.0693 23.3374 42.993 23.5235C42.9166 23.7095 42.8043 23.8787 42.6626 24.0214L42.0758 24.6152C41.9334 24.7573 41.8205 24.926 41.7434 25.1118C41.6664 25.2977 41.6267 25.4968 41.6267 25.698C41.6267 25.8991 41.6664 26.0983 41.7434 26.2841C41.8205 26.4699 41.9334 26.6387 42.0758 26.7808L42.5229 27.2279C42.8108 27.5137 43.2 27.6741 43.6057 27.6741C44.0114 27.6741 44.4007 27.5137 44.6886 27.2279L48.8801 22.9735L48.5588 22.6591L42.5858 16.6093C42.4441 16.4661 42.2755 16.3524 42.0897 16.2748C41.9038 16.1972 41.7044 16.1572 41.5029 16.1572C41.3015 16.1572 41.1021 16.1972 40.9163 16.2748C40.7304 16.3524 40.5618 16.4661 40.4201 16.6093L38.9461 18.1532L25.8893 31.2099Z" fill="#6C2A80"/>
<path d="M15.124 31.2656C14.8548 31.5354 14.7036 31.901 14.7036 32.2821C14.7036 32.6632 14.8548 33.0288 15.124 33.2985L21.09 39.3484C21.3577 39.6189 21.722 39.772 22.1025 39.7739C22.4831 39.7759 22.8489 39.6266 23.1194 39.3589C23.3899 39.0911 23.543 38.7269 23.545 38.3463C23.5469 37.9657 23.3976 37.5999 23.1299 37.3294L17.1499 31.2796C17.0194 31.1422 16.8623 31.0328 16.6882 30.958C16.514 30.8833 16.3265 30.8447 16.137 30.8447C15.9475 30.8447 15.7599 30.8833 15.5858 30.958C15.4116 31.0328 15.2545 31.1422 15.124 31.2796" fill="#6C2A80"/>
<path d="M45.45 30.7276L47.6785 32.9491C47.8116 33.0826 47.9696 33.1886 48.1435 33.261C48.3175 33.3334 48.5041 33.3709 48.6925 33.3712C48.881 33.3715 49.0676 33.3347 49.2419 33.2629C49.4161 33.1911 49.5745 33.0857 49.708 32.9526C49.8414 32.8196 49.9474 32.6616 50.0198 32.4876C50.0922 32.3136 50.1297 32.1271 50.13 31.9386C50.1303 31.7502 50.0935 31.5635 50.0217 31.3893C49.9499 31.2151 49.8445 31.0567 49.7114 30.9232L47.4829 28.6947C47.2093 28.4459 46.8503 28.3119 46.4806 28.3207C46.1108 28.3295 45.7587 28.4803 45.4971 28.7418C45.2356 29.0033 45.0848 29.3555 45.076 29.7253C45.0673 30.095 45.2012 30.454 45.45 30.7276Z" fill="#6C2A80"/>
<path d="M38.1567 38.8314C37.883 38.5826 37.5241 38.4487 37.1544 38.4574C36.7846 38.4662 36.4324 38.617 36.1709 38.8785C35.9094 39.1401 35.7586 39.4922 35.7498 39.862C35.741 40.2317 35.8749 40.5907 36.1238 40.8643L37.7585 42.499C38.0321 42.7479 38.3911 42.8818 38.7608 42.873C39.1306 42.8642 39.4827 42.7134 39.7443 42.4519C40.0058 42.1904 40.1566 41.8382 40.1654 41.4684C40.1741 41.0987 40.0402 40.7398 39.7914 40.4661L38.1567 38.8314Z" fill="#6C2A80"/>
<path d="M29.1867 47.753L30.7097 49.2759C30.8407 49.42 30.9996 49.536 31.1767 49.6169C31.3538 49.6977 31.5456 49.7418 31.7402 49.7464C31.9349 49.7511 32.1285 49.7161 32.3093 49.6437C32.4901 49.5714 32.6543 49.463 32.792 49.3253C32.9297 49.1876 33.038 49.0234 33.1104 48.8427C33.1828 48.6619 33.2177 48.4683 33.2131 48.2736C33.2085 48.0789 33.1644 47.8872 33.0835 47.7101C33.0026 47.5329 32.8866 47.374 32.7426 47.243L31.2196 45.7201C30.946 45.4713 30.5871 45.3373 30.2173 45.3461C29.8476 45.3549 29.4954 45.5057 29.2338 45.7672C28.9723 46.0287 28.8215 46.3809 28.8128 46.7507C28.804 47.1204 28.9379 47.4794 29.1867 47.753Z" fill="#6C2A80"/>
</svg>
