<svg width="80" height="83" viewBox="0 0 80 83" fill="none" xmlns="http://www.w3.org/2000/svg">
<rect x="1" y="1" width="78" height="81" rx="4" stroke="#6C2A80" stroke-width="2"/>
<g clip-path="url(#clip0_785_87)">
<path d="M43.7382 27.3899C42.5268 27.0579 41.269 26.8896 40 26.8896C32.2194 26.8896 25.8896 33.2194 25.8896 41C25.8896 48.7806 32.2194 55.1105 40 55.1105C47.7806 55.1105 54.1105 48.7806 54.1105 41C54.1105 39.731 53.9421 38.4732 53.6101 37.2618C53.3819 36.4296 53.8717 35.57 54.7039 35.3419C55.5356 35.1139 56.3957 35.6035 56.6238 36.4357C57.0305 37.923 57.2362 39.4581 57.2355 41C57.2355 50.5036 49.5036 58.2355 40 58.2355C30.4964 58.2355 22.7646 50.5036 22.7646 41C22.7646 31.4964 30.4964 23.7646 40 23.7646C41.5481 23.7646 43.0837 23.9703 44.5643 24.3762C45.2583 24.5664 45.7142 25.1959 45.7141 25.8824C45.7139 26.0222 45.6951 26.1613 45.6581 26.2961C45.4301 27.1283 44.5706 27.6184 43.7382 27.3899ZM62.033 32.8398C61.2056 33.0849 60.7333 33.9541 60.9783 34.7816C61.5733 36.7914 61.875 38.8835 61.875 41C61.875 53.0619 52.0619 62.875 40 62.875C27.9381 62.875 18.125 53.0619 18.125 41C18.125 28.9381 27.9381 19.125 40 19.125C42.1166 19.125 44.2087 19.4267 46.2181 20.0216C47.0456 20.2667 47.9148 19.7942 48.1599 18.9669C48.2036 18.8189 48.2245 18.6698 48.2245 18.523C48.2247 17.8487 47.7848 17.2264 47.1052 17.0251C44.8075 16.3448 42.4171 16 40 16C33.3223 16 27.0441 18.6005 22.3223 23.3223C17.6005 28.0442 15 34.3223 15 41C15 47.6777 17.6005 53.9559 22.3223 58.6777C27.044 63.3996 33.3223 66 40 66C46.6777 66 52.9558 63.3995 57.6777 58.6777C62.3995 53.9559 65 47.6777 65 41C65 38.5831 64.6551 36.1925 63.9748 33.8945C63.7299 33.0671 62.8604 32.5952 62.033 32.8398ZM40 34.75C40.2298 34.75 40.4618 34.7627 40.6897 34.7877C41.5479 34.8821 42.3193 34.2627 42.4133 33.405C42.5074 32.5472 41.8884 31.7755 41.0306 31.6814C40.6883 31.6439 40.3443 31.625 40 31.625C34.8306 31.625 30.625 35.8306 30.625 41C30.625 46.1694 34.8306 50.375 40 50.375C45.1694 50.375 49.375 46.1694 49.375 41C49.375 40.137 48.6755 39.4375 47.8125 39.4375C46.9495 39.4375 46.25 40.137 46.25 41C46.25 44.4463 43.4463 47.25 40 47.25C36.5537 47.25 33.75 44.4463 33.75 41C33.75 37.5537 36.5537 34.75 40 34.75ZM47.9779 30.8126L48.7562 23.0053C48.792 22.6462 48.951 22.3105 49.2062 22.0554L54.8041 16.4576C55.0153 16.2465 55.2825 16.1003 55.5742 16.0363C55.8658 15.9724 56.1697 15.9933 56.4499 16.0967C56.73 16.2001 56.9747 16.3815 57.1549 16.6196C57.3351 16.8577 57.4433 17.1425 57.4667 17.4401L57.9105 23.0896L63.5599 23.5333C63.8576 23.5567 64.1423 23.6649 64.3805 23.8451C64.6186 24.0253 64.8001 24.2699 64.9034 24.5501C65.0068 24.8302 65.0278 25.1341 64.9638 25.4258C64.8998 25.7175 64.7535 25.9847 64.5424 26.1959L58.9445 31.7937C58.6894 32.0488 58.3538 32.2078 57.9947 32.2436L50.1876 33.0223L41.1049 42.1049C40.9599 42.2502 40.7877 42.3654 40.5981 42.4439C40.4085 42.5225 40.2052 42.5628 40 42.5625C39.7948 42.5628 39.5915 42.5225 39.4019 42.4439C39.2123 42.3654 39.0401 42.2501 38.8952 42.1048C38.285 41.4946 38.285 40.5053 38.8952 39.8951L47.9779 30.8126ZM51.2215 29.7787L57.1293 29.1895L59.9355 26.3833L56.3351 26.1005C55.9641 26.0713 55.6157 25.9107 55.3526 25.6476C55.0895 25.3845 54.9289 25.0361 54.8997 24.6651L54.6169 21.0645L51.8105 23.8707L51.2215 29.7787Z" fill="#6C2A80"/>
</g>
<defs>
<clipPath id="clip0_785_87">
<rect width="50" height="50" fill="white" transform="translate(15 16)"/>
</clipPath>
</defs>
</svg>
