<svg width="80" height="83" viewBox="0 0 80 83" fill="none" xmlns="http://www.w3.org/2000/svg">
<rect x="1" y="1" width="78" height="81" rx="4" stroke="#6C2A80" stroke-width="2"/>
<g clip-path="url(#clip0_785_89)">
<path d="M25.2272 38.4547C25.1913 40.394 25.5416 42.321 26.2576 44.1237C26.9735 45.9263 28.0409 47.5685 29.3976 48.9547C31.9119 51.6323 33.2713 55.192 33.1817 58.8639V60.3186C33.1817 63.4566 35.7256 66.0005 38.8636 66.0005H41.1364C44.2744 66.0005 46.8183 63.4566 46.8183 60.3186V58.455C46.7871 54.9616 48.1203 51.5939 50.5343 49.0685C56.2525 43.2488 56.17 33.8955 50.3503 28.1777C48.9088 26.7613 47.1921 25.6558 45.3063 24.9295C43.4205 24.2032 41.4057 23.8715 39.3866 23.955C31.6118 24.3653 25.4532 30.6723 25.2272 38.4547ZM39.841 54.6364L37.9205 42.1364H42.0797L40.1593 54.6364H39.841ZM44.6136 56.9092C44.6136 57.4205 44.5455 57.932 44.5455 58.4548V59.1819H35.4544V58.8637C35.4509 58.2106 35.413 57.5582 35.3409 56.9092H44.6136ZM41.1364 63.7272H38.8636C38.1603 63.7253 37.4747 63.5058 36.901 63.0989C36.3273 62.692 35.8935 62.1176 35.6592 61.4544H44.3411C44.1066 62.1176 43.6727 62.692 43.099 63.0988C42.5253 63.5057 41.8397 63.7252 41.1364 63.7272ZM39.4773 26.2272H40C46.9035 26.2308 52.4973 31.8299 52.4937 38.7335C52.4921 42.0032 51.2093 45.1422 48.9204 47.4772C46.9811 49.4567 45.628 51.9347 45.0114 54.6364H42.4658L44.3863 42.1364H45.6817C45.983 42.1364 46.2721 42.0167 46.4852 41.8035C46.6983 41.5904 46.818 41.3014 46.818 41C46.818 40.6986 46.6983 40.4096 46.4852 40.1965C46.2721 39.9833 45.983 39.8636 45.6817 39.8636H34.3183C34.0169 39.8636 33.7279 39.9833 33.5148 40.1965C33.3017 40.4096 33.1819 40.6986 33.1819 41C33.1819 41.3014 33.3017 41.5904 33.5148 41.8035C33.7279 42.0167 34.0169 42.1364 34.3183 42.1364H35.6137L37.5342 54.6364H34.9431C34.309 51.9248 32.9591 49.4329 31.0341 47.4206C29.8809 46.2438 28.9743 44.8486 28.3674 43.3168C27.7605 41.785 27.4656 40.1474 27.5 38.5002C27.6862 31.9138 32.8977 26.5738 39.4773 26.2272ZM41.1364 21.6819V17.1364C41.1364 16.835 41.0167 16.546 40.8035 16.3328C40.5904 16.1197 40.3014 16 40 16C39.6986 16 39.4096 16.1197 39.1964 16.3328C38.9833 16.546 38.8636 16.835 38.8636 17.1364V21.6819C38.8636 21.9833 38.9833 22.2724 39.1964 22.4855C39.4096 22.6986 39.6986 22.8183 40 22.8183C40.3014 22.8183 40.5904 22.6986 40.8035 22.4855C41.0167 22.2724 41.1364 21.9833 41.1364 21.6819ZM57.375 22.0114L52.8297 26.5569C52.7237 26.662 52.6395 26.7869 52.5818 26.9246C52.5241 27.0622 52.4941 27.2099 52.4935 27.3591C52.4929 27.5084 52.5217 27.6563 52.5782 27.7944C52.6348 27.9325 52.718 28.0581 52.8232 28.164L52.8297 28.1706C52.9348 28.2766 53.0597 28.3608 53.1973 28.4185C53.335 28.4762 53.4826 28.5062 53.6319 28.5068C53.7811 28.5074 53.929 28.4786 54.0672 28.422C54.2053 28.3655 54.3309 28.2822 54.4368 28.1771L54.4433 28.1706L58.9889 23.625C59.0948 23.519 59.1789 23.3932 59.2362 23.2548C59.2936 23.1163 59.3231 22.968 59.323 22.8181C59.323 22.6682 59.2935 22.5199 59.2361 22.3814C59.1788 22.243 59.0947 22.1172 58.9888 22.0112C58.8828 21.9053 58.757 21.8212 58.6185 21.7639C58.4801 21.7066 58.3317 21.6771 58.1818 21.6771C58.032 21.6771 57.8836 21.7066 57.7452 21.764C57.6067 21.8213 57.4809 21.9054 57.375 22.0114ZM22.625 22.0114C22.5191 21.9054 22.3933 21.8214 22.2548 21.764C22.1164 21.7067 21.968 21.6772 21.8182 21.6772C21.6683 21.6772 21.52 21.7067 21.3815 21.764C21.2431 21.8214 21.1173 21.9054 21.0114 22.0114C20.9054 22.1173 20.8214 22.2431 20.764 22.3815C20.7067 22.52 20.6772 22.6684 20.6772 22.8182C20.6772 22.968 20.7067 23.1164 20.764 23.2548C20.8214 23.3933 20.9054 23.5191 21.0114 23.625L25.5569 28.1706C25.662 28.2766 25.7869 28.3608 25.9246 28.4185C26.0622 28.4762 26.2099 28.5062 26.3591 28.5068C26.5084 28.5074 26.6563 28.4786 26.7944 28.422C26.9325 28.3655 27.0581 28.2822 27.164 28.1771L27.1706 28.1706C27.2766 28.0655 27.3608 27.9406 27.4185 27.8029C27.4762 27.6653 27.5062 27.5176 27.5068 27.3684C27.5074 27.2191 27.4786 27.0712 27.422 26.9331C27.3655 26.795 27.2822 26.6694 27.1771 26.5635L27.1706 26.5569L22.625 22.0114ZM55.9092 41C55.9092 41.3014 56.0289 41.5904 56.242 41.8035C56.4551 42.0167 56.7442 42.1364 57.0455 42.1364H61.5911C61.8925 42.1364 62.1815 42.0167 62.3946 41.8035C62.6078 41.5904 62.7275 41.3014 62.7275 41C62.7275 40.6986 62.6078 40.4096 62.3946 40.1965C62.1815 39.9833 61.8925 39.8636 61.5911 39.8636H57.0455C56.7442 39.8636 56.4551 39.9833 56.242 40.1965C56.0289 40.4096 55.9092 40.6986 55.9092 41ZM17.2728 41C17.2728 41.3014 17.3925 41.5904 17.6056 41.8035C17.8187 42.0167 18.1078 42.1364 18.4092 42.1364H22.9547C23.2561 42.1364 23.5451 42.0167 23.7583 41.8035C23.9714 41.5904 24.0911 41.3014 24.0911 41C24.0911 40.6986 23.9714 40.4096 23.7583 40.1965C23.5451 39.9833 23.2561 39.8636 22.9547 39.8636H18.4092C18.1078 39.8636 17.8187 39.9833 17.6056 40.1965C17.3925 40.4096 17.2728 40.6986 17.2728 41Z" fill="#6C2A80"/>
</g>
<defs>
<clipPath id="clip0_785_89">
<rect width="50" height="50" fill="white" transform="translate(15 16)"/>
</clipPath>
</defs>
</svg>
