<svg width="43" height="40" viewBox="0 0 43 40" fill="none" xmlns="http://www.w3.org/2000/svg">
<rect x="1" y="1" width="40.7313" height="37.3128" rx="4" stroke="#6C2A80" stroke-width="2"/>
<g clip-path="url(#clip0_48_940)">
<path d="M21.5 10.0726C24.5725 10.0726 24.9331 10.0863 26.1475 10.1411C27.2706 10.1913 27.8777 10.3785 28.2841 10.5383C28.8228 10.7483 29.2062 10.9948 29.608 11.3966C30.0097 11.7983 30.2608 12.1818 30.4663 12.7205C30.6215 13.1268 30.8132 13.734 30.8635 14.8571C30.9182 16.0715 30.9319 16.4321 30.9319 19.5046C30.9319 22.577 30.9182 22.9377 30.8635 24.152C30.8132 25.2751 30.6261 25.8823 30.4663 26.2886C30.2563 26.8273 30.0097 27.2108 29.608 27.6125C29.2062 28.0143 28.8228 28.2654 28.2841 28.4708C27.8777 28.626 27.2706 28.8178 26.1475 28.868C24.9331 28.9228 24.5725 28.9365 21.5 28.9365C18.4276 28.9365 18.0669 28.9228 16.8525 28.868C15.7295 28.8178 15.1223 28.6306 14.716 28.4708C14.1773 28.2608 13.7938 28.0143 13.392 27.6125C12.9903 27.2108 12.7392 26.8273 12.5337 26.2886C12.3785 25.8823 12.1868 25.2751 12.1366 24.152C12.0818 22.9377 12.0681 22.577 12.0681 19.5046C12.0681 16.4321 12.0818 16.0715 12.1366 14.8571C12.1868 13.734 12.374 13.1268 12.5337 12.7205C12.7437 12.1818 12.9903 11.7983 13.392 11.3966C13.7938 10.9948 14.1773 10.7437 14.716 10.5383C15.1223 10.3831 15.7295 10.1913 16.8525 10.1411C18.0669 10.0818 18.4321 10.0726 21.5 10.0726ZM21.5 8C18.3773 8 17.9847 8.0137 16.7567 8.06848C15.5332 8.12326 14.6977 8.31957 13.9673 8.60262C13.2094 8.8948 12.5703 9.29198 11.9311 9.93112C11.292 10.5703 10.8994 11.214 10.6026 11.9672C10.3196 12.6977 10.1233 13.5331 10.0685 14.7612C10.0137 15.9847 10 16.3773 10 19.5C10 22.6227 10.0137 23.0153 10.0685 24.2433C10.1233 25.4669 10.3196 26.3023 10.6026 27.0373C10.8948 27.7952 11.292 28.4343 11.9311 29.0734C12.5703 29.7126 13.214 30.1052 13.9673 30.4019C14.6977 30.685 15.5332 30.8813 16.7612 30.9361C17.9893 30.9909 18.3773 31.0046 21.5046 31.0046C24.6318 31.0046 25.0199 30.9909 26.2479 30.9361C27.4714 30.8813 28.3069 30.685 29.0419 30.4019C29.7997 30.1098 30.4389 29.7126 31.078 29.0734C31.7172 28.4343 32.1098 27.7906 32.4065 27.0373C32.6896 26.3069 32.8859 25.4714 32.9407 24.2433C32.9955 23.0153 33.0091 22.6272 33.0091 19.5C33.0091 16.3728 32.9955 15.9847 32.9407 14.7566C32.8859 13.5331 32.6896 12.6977 32.4065 11.9627C32.1143 11.2048 31.7172 10.5657 31.078 9.92656C30.4389 9.28742 29.7952 8.8948 29.0419 8.59805C28.3114 8.31501 27.476 8.1187 26.2479 8.06391C25.0153 8.0137 24.6227 8 21.5 8Z" fill="#6C2A80"/>
<path d="M21.5 13.597C18.2403 13.597 15.5925 16.2404 15.5925 19.5045C15.5925 22.7687 18.2358 25.412 21.5 25.412C24.7642 25.412 27.4075 22.7687 27.4075 19.5045C27.4075 16.2404 24.7642 13.597 21.5 13.597ZM21.5 23.3348C19.3817 23.3348 17.6651 21.6183 17.6651 19.5C17.6651 17.3817 19.3817 15.6651 21.5 15.6651C23.6183 15.6651 25.3348 17.3817 25.3348 19.5C25.3348 21.6183 23.6183 23.3348 21.5 23.3348Z" fill="#6C2A80"/>
<path d="M27.6403 14.7384C28.4018 14.7384 29.019 14.1211 29.019 13.3597C29.019 12.5982 28.4018 11.981 27.6403 11.981C26.8789 11.981 26.2616 12.5982 26.2616 13.3597C26.2616 14.1211 26.8789 14.7384 27.6403 14.7384Z" fill="#6C2A80"/>
</g>
<defs>
<clipPath id="clip0_48_940">
<rect width="23" height="23" fill="white" transform="translate(10 8)"/>
</clipPath>
</defs>
</svg>
