<svg width="26" height="26" viewBox="0 0 26 26" fill="none" xmlns="http://www.w3.org/2000/svg">
<path d="M13 25C18.5901 25 23.2874 21.1776 24.6209 16.0039M13 25C7.4099 25 2.71256 21.1776 1.37906 16.0039M13 25C16.3137 25 19 19.6274 19 13C19 6.37258 16.3137 1 13 1M13 25C9.68629 25 7 19.6274 7 13C7 6.37258 9.68629 1 13 1M13 1C17.4869 1 21.3987 3.46259 23.4574 7.10993M13 1C8.51308 1 4.60132 3.46259 2.54257 7.10993M23.4574 7.10993C20.653 9.53385 16.9977 11 13 11C9.00229 11 5.34703 9.53385 2.54257 7.10993M23.4574 7.10993C24.4396 8.84991 25 10.8595 25 13C25 14.0373 24.8684 15.0439 24.6209 16.0039M24.6209 16.0039C21.1778 17.913 17.2159 19 13 19C8.78414 19 4.82216 17.913 1.37906 16.0039M1.37906 16.0039C1.13162 15.0439 1 14.0373 1 13C1 10.8595 1.56043 8.84991 2.54257 7.10993" stroke="#6C2A80" stroke-width="1.25" stroke-linecap="round" stroke-linejoin="round"/>
</svg>
