<svg width="40" height="40" viewBox="0 0 40 40" fill="none" xmlns="http://www.w3.org/2000/svg">
<path d="M1.19891 17.5741C0.545392 17.5741 0.015625 18.1039 0.015625 18.7574V36.137C0.015625 36.7905 0.54547 37.3202 1.19891 37.3202H8.32806V17.5741H1.19891ZM39.9853 24.1084C39.9853 22.6063 39.1782 21.2891 37.9749 20.5677C38.4521 19.8798 38.7073 19.0623 38.7063 18.2251C38.7063 15.9507 36.8559 14.1002 34.5814 14.1002H25.8737C26.1406 12.8908 26.5056 11.076 26.7597 9.17627C27.4211 4.23244 26.9691 1.49063 25.3373 0.547741C24.32 -0.0399946 23.2231 -0.159214 22.2487 0.211725C21.496 0.498444 20.4794 1.20337 19.9001 2.93345L17.6115 8.92573C16.4513 11.7911 12.8982 14.7993 10.6947 16.4627V37.8438C14.7786 39.2748 19.0402 40.0001 23.3879 40.0001H32.8758C35.1503 40.0001 37.0008 38.1496 37.0008 35.8752C37.0017 35.1074 36.7871 34.3547 36.3812 33.703C37.7563 33.0333 38.7062 31.6212 38.7062 29.9918C38.7071 29.1546 38.4519 28.3371 37.9748 27.6492C39.1782 26.9278 39.9853 25.6105 39.9853 24.1084Z" fill="#6C2A80"/>
</svg>
