<svg width="22" height="24" viewBox="0 0 22 24" fill="none" xmlns="http://www.w3.org/2000/svg">
<path d="M15.0067 15.8571C17.5606 11.8496 17.2395 12.3496 17.3131 12.2451C18.2429 10.9336 18.7344 9.39009 18.7344 7.78125C18.7344 3.51469 15.2721 0 11 0C6.74178 0 3.26562 3.50775 3.26562 7.78125C3.26562 9.38906 3.76737 10.973 4.72766 12.3022L6.99322 15.8572C4.57095 16.2294 0.453125 17.3387 0.453125 19.7812C0.453125 20.6716 1.03428 21.9405 3.80291 22.9293C5.73612 23.6197 8.29208 24 11 24C16.0637 24 21.5469 22.5716 21.5469 19.7812C21.5469 17.3383 17.4339 16.2301 15.0067 15.8571ZM5.9023 11.5287C5.89457 11.5166 5.88649 11.5047 5.87806 11.4931C5.07898 10.3938 4.67188 9.09098 4.67188 7.78125C4.67188 4.26478 7.50341 1.40625 11 1.40625C14.4893 1.40625 17.3281 4.26605 17.3281 7.78125C17.3281 9.09309 16.9287 10.3517 16.1728 11.4221C16.1051 11.5114 16.4585 10.9624 11 19.5276L5.9023 11.5287ZM11 22.5938C5.46903 22.5938 1.85938 20.968 1.85938 19.7812C1.85938 18.9836 3.71413 17.6721 7.82413 17.1609L10.407 21.2138C10.4705 21.3135 10.5582 21.3956 10.6618 21.4525C10.7654 21.5093 10.8817 21.5391 11 21.5391C11.1182 21.5391 11.2345 21.5093 11.3381 21.4525C11.4417 21.3956 11.5294 21.3135 11.5929 21.2138L14.1757 17.1609C18.2858 17.6721 20.1406 18.9836 20.1406 19.7812C20.1406 20.9579 16.5635 22.5938 11 22.5938Z" fill="#4F4F4F"/>
<path d="M11 4.26562C9.06148 4.26562 7.48438 5.84273 7.48438 7.78125C7.48438 9.71977 9.06148 11.2969 11 11.2969C12.9385 11.2969 14.5156 9.71977 14.5156 7.78125C14.5156 5.84273 12.9385 4.26562 11 4.26562ZM11 9.89062C9.83689 9.89062 8.89062 8.94436 8.89062 7.78125C8.89062 6.61814 9.83689 5.67188 11 5.67188C12.1631 5.67188 13.1094 6.61814 13.1094 7.78125C13.1094 8.94436 12.1631 9.89062 11 9.89062Z" fill="#4F4F4F"/>
</svg>
