<svg width="177" height="65" viewBox="0 0 177 65" fill="none" xmlns="http://www.w3.org/2000/svg">
<path d="M3.54 24V10.04H12.8V12.74H6.58V15.6H11.88V18.28H6.58V24H3.54ZM20.7714 22.24H20.6714C20.5781 22.5067 20.4514 22.76 20.2914 23C20.1447 23.24 19.9514 23.4533 19.7114 23.64C19.4714 23.8267 19.1847 23.9733 18.8514 24.08C18.5314 24.1867 18.1581 24.24 17.7314 24.24C16.6514 24.24 15.8314 23.8867 15.2714 23.18C14.7247 22.46 14.4514 21.4333 14.4514 20.1V13.5H17.4114V19.84C17.4114 20.48 17.5247 20.9733 17.7514 21.32C17.9781 21.6667 18.3647 21.84 18.9114 21.84C19.1381 21.84 19.3647 21.8067 19.5914 21.74C19.8181 21.6733 20.0181 21.58 20.1914 21.46C20.3647 21.3267 20.5047 21.1667 20.6114 20.98C20.7181 20.7933 20.7714 20.5733 20.7714 20.32V13.5H23.7314V24H20.7714V22.24ZM29.4255 24C28.4121 24 27.6655 23.7533 27.1855 23.26C26.7188 22.7667 26.4855 22.0533 26.4855 21.12V9.2H29.4455V21.7H30.7655V24H29.4255ZM35.3239 24C34.3106 24 33.5639 23.7533 33.0839 23.26C32.6172 22.7667 32.3839 22.0533 32.3839 21.12V9.2H35.3439V21.7H36.6639V24H35.3239ZM43.1186 24.24C41.8919 24.24 40.8519 24.0333 39.9986 23.62C39.1453 23.1933 38.4186 22.6467 37.8186 21.98L39.8186 19.96C40.7653 21.0267 41.9319 21.56 43.3186 21.56C44.0653 21.56 44.6186 21.4067 44.9786 21.1C45.3386 20.7933 45.5186 20.3867 45.5186 19.88C45.5186 19.4933 45.4119 19.1733 45.1986 18.92C44.9853 18.6533 44.5519 18.4733 43.8986 18.38L42.5186 18.2C41.0386 18.0133 39.9519 17.5667 39.2586 16.86C38.5786 16.1533 38.2386 15.2133 38.2386 14.04C38.2386 13.4133 38.3586 12.84 38.5986 12.32C38.8386 11.8 39.1786 11.3533 39.6186 10.98C40.0719 10.6067 40.6186 10.32 41.2586 10.12C41.9119 9.90667 42.6519 9.8 43.4786 9.8C44.5319 9.8 45.4586 9.96667 46.2586 10.3C47.0586 10.6333 47.7453 11.12 48.3186 11.76L46.2986 13.8C45.9653 13.4133 45.5586 13.1 45.0786 12.86C44.6119 12.6067 44.0186 12.48 43.2986 12.48C42.6186 12.48 42.1119 12.6 41.7786 12.84C41.4453 13.08 41.2786 13.4133 41.2786 13.84C41.2786 14.32 41.4053 14.6667 41.6586 14.88C41.9253 15.0933 42.3519 15.2467 42.9386 15.34L44.3186 15.56C45.7586 15.7867 46.8253 16.2333 47.5186 16.9C48.2119 17.5533 48.5586 18.4867 48.5586 19.7C48.5586 20.3667 48.4386 20.98 48.1986 21.54C47.9586 22.1 47.6053 22.58 47.1386 22.98C46.6853 23.38 46.1186 23.6933 45.4386 23.92C44.7586 24.1333 43.9853 24.24 43.1186 24.24ZM55.1591 24.24C54.3724 24.24 53.6724 24.1133 53.0591 23.86C52.4457 23.5933 51.9324 23.2267 51.5191 22.76C51.1057 22.28 50.7924 21.7 50.5791 21.02C50.3657 20.34 50.2591 19.58 50.2591 18.74C50.2591 17.9 50.3657 17.1467 50.5791 16.48C50.7924 15.8 51.1057 15.22 51.5191 14.74C51.9324 14.26 52.4457 13.8933 53.0591 13.64C53.6724 13.3867 54.3724 13.26 55.1591 13.26C56.2257 13.26 57.1124 13.5 57.8191 13.98C58.5391 14.46 59.0524 15.1333 59.3591 16L56.9591 17.04C56.8657 16.64 56.6724 16.3 56.3791 16.02C56.0857 15.74 55.6791 15.6 55.1591 15.6C54.5591 15.6 54.1057 15.8 53.7991 16.2C53.4924 16.5867 53.3391 17.1133 53.3391 17.78V19.74C53.3391 20.4067 53.4924 20.9333 53.7991 21.32C54.1057 21.7067 54.5591 21.9 55.1591 21.9C55.6924 21.9 56.1124 21.76 56.4191 21.48C56.7391 21.1867 56.9724 20.8067 57.1191 20.34L59.4191 21.34C59.0724 22.34 58.5324 23.0733 57.7991 23.54C57.0791 24.0067 56.1991 24.24 55.1591 24.24ZM61.2511 24V13.5H64.2111V15.78H64.3111C64.3644 15.4867 64.4578 15.2067 64.5911 14.94C64.7244 14.66 64.8978 14.4133 65.1111 14.2C65.3378 13.9867 65.6044 13.82 65.9111 13.7C66.2178 13.5667 66.5778 13.5 66.9911 13.5H67.5111V16.26H66.7711C65.9044 16.26 65.2578 16.3733 64.8311 16.6C64.4178 16.8267 64.2111 17.2467 64.2111 17.86V24H61.2511ZM73.6194 24.24C72.8194 24.24 72.106 24.1133 71.4794 23.86C70.8527 23.5933 70.3194 23.2267 69.8794 22.76C69.4527 22.28 69.126 21.7 68.8994 21.02C68.686 20.34 68.5794 19.58 68.5794 18.74C68.5794 17.9133 68.686 17.1667 68.8994 16.5C69.1127 15.82 69.426 15.24 69.8394 14.76C70.266 14.28 70.786 13.9133 71.3994 13.66C72.0127 13.3933 72.7127 13.26 73.4994 13.26C74.366 13.26 75.106 13.4067 75.7194 13.7C76.346 13.9933 76.8527 14.3867 77.2394 14.88C77.6394 15.3733 77.926 15.9467 78.0994 16.6C78.286 17.24 78.3794 17.9133 78.3794 18.62V19.5H71.6394V19.66C71.6394 20.3533 71.826 20.9067 72.1994 21.32C72.5727 21.72 73.1594 21.92 73.9594 21.92C74.5727 21.92 75.0727 21.8 75.4594 21.56C75.846 21.3067 76.206 21.0067 76.5394 20.66L78.0194 22.5C77.5527 23.0467 76.9394 23.4733 76.1794 23.78C75.4327 24.0867 74.5794 24.24 73.6194 24.24ZM73.5594 15.44C72.9594 15.44 72.486 15.64 72.1394 16.04C71.806 16.4267 71.6394 16.9467 71.6394 17.6V17.76H75.3194V17.58C75.3194 16.94 75.1727 16.4267 74.8794 16.04C74.5994 15.64 74.1594 15.44 73.5594 15.44ZM84.8498 24.24C84.0498 24.24 83.3365 24.1133 82.7098 23.86C82.0832 23.5933 81.5498 23.2267 81.1098 22.76C80.6832 22.28 80.3565 21.7 80.1298 21.02C79.9165 20.34 79.8098 19.58 79.8098 18.74C79.8098 17.9133 79.9165 17.1667 80.1298 16.5C80.3432 15.82 80.6565 15.24 81.0698 14.76C81.4965 14.28 82.0165 13.9133 82.6298 13.66C83.2432 13.3933 83.9432 13.26 84.7298 13.26C85.5965 13.26 86.3365 13.4067 86.9498 13.7C87.5765 13.9933 88.0832 14.3867 88.4698 14.88C88.8698 15.3733 89.1565 15.9467 89.3298 16.6C89.5165 17.24 89.6098 17.9133 89.6098 18.62V19.5H82.8698V19.66C82.8698 20.3533 83.0565 20.9067 83.4298 21.32C83.8032 21.72 84.3898 21.92 85.1898 21.92C85.8032 21.92 86.3032 21.8 86.6898 21.56C87.0765 21.3067 87.4365 21.0067 87.7698 20.66L89.2498 22.5C88.7832 23.0467 88.1698 23.4733 87.4098 23.78C86.6632 24.0867 85.8098 24.24 84.8498 24.24ZM84.7898 15.44C84.1898 15.44 83.7165 15.64 83.3698 16.04C83.0365 16.4267 82.8698 16.9467 82.8698 17.6V17.76H86.5498V17.58C86.5498 16.94 86.4032 16.4267 86.1098 16.04C85.8298 15.64 85.3898 15.44 84.7898 15.44ZM91.7003 24V13.5H94.6603V15.28H94.7803C94.967 14.7333 95.2936 14.26 95.7603 13.86C96.227 13.46 96.8736 13.26 97.7003 13.26C98.7803 13.26 99.5936 13.62 100.14 14.34C100.7 15.06 100.98 16.0867 100.98 17.42V24H98.0203V17.66C98.0203 16.98 97.9136 16.48 97.7003 16.16C97.487 15.8267 97.107 15.66 96.5603 15.66C96.3203 15.66 96.087 15.6933 95.8603 15.76C95.6336 15.8133 95.427 15.9067 95.2403 16.04C95.067 16.1733 94.927 16.34 94.8203 16.54C94.7136 16.7267 94.6603 16.9467 94.6603 17.2V24H91.7003Z" fill="#6C2A80"/>
<path d="M9 56C7.908 55.988 7.11 55.724 6.606 55.208C6.102 54.68 5.85 53.96 5.85 53.048V52.958H5.742C5.646 53.378 5.532 53.732 5.4 54.02C5.28 54.308 5.124 54.542 4.932 54.722C4.74 54.89 4.512 55.016 4.248 55.1C3.984 55.172 3.672 55.208 3.312 55.208C2.448 55.208 1.8 54.98 1.368 54.524C0.936 54.056 0.72 53.402 0.72 52.562C0.72 51.578 0.99 50.78 1.53 50.168C2.082 49.544 2.82 49.004 3.744 48.548L5.76 47.54V46.55H7.92V52.328C7.92 52.688 7.998 52.94 8.154 53.084C8.322 53.228 8.604 53.3 9 53.3H9.54V55.46L9 56ZM3.906 52.508C4.602 52.508 5.082 52.442 5.346 52.31C5.622 52.178 5.76 51.938 5.76 51.59V49.43L4.428 50.06C4.104 50.216 3.822 50.354 3.582 50.474C3.354 50.594 3.156 50.72 2.988 50.852C2.832 50.972 2.712 51.098 2.628 51.23C2.556 51.362 2.52 51.512 2.52 51.68C2.52 51.98 2.616 52.196 2.808 52.328C3.012 52.448 3.378 52.508 3.906 52.508ZM6.678 45.11C6.366 45.11 6.108 45.014 5.904 44.822C5.712 44.63 5.616 44.324 5.616 43.904C5.616 43.484 5.712 43.178 5.904 42.986C6.108 42.794 6.366 42.698 6.678 42.698H7.038C7.35 42.698 7.602 42.794 7.794 42.986C7.998 43.178 8.1 43.484 8.1 43.904C8.1 44.324 7.998 44.63 7.794 44.822C7.602 45.014 7.35 45.11 7.038 45.11H6.678ZM3.834 45.11C3.522 45.11 3.264 45.014 3.06 44.822C2.868 44.63 2.772 44.324 2.772 43.904C2.772 43.484 2.868 43.178 3.06 42.986C3.264 42.794 3.522 42.698 3.834 42.698H4.194C4.506 42.698 4.758 42.794 4.95 42.986C5.154 43.178 5.256 43.484 5.256 43.904C5.256 44.324 5.154 44.63 4.95 44.822C4.758 45.014 4.506 45.11 4.194 45.11H3.834ZM9.00492 53.84L9.54492 53.3H9.99492C10.9549 53.3 11.4349 52.88 11.4349 52.04V42.68H13.5949V52.04C13.5949 52.88 14.0149 53.3 14.8549 53.3H15.4849V55.46L14.9449 56C13.9609 56 13.2109 55.808 12.6949 55.424C12.1789 55.028 11.8369 54.41 11.6689 53.57H11.5609C11.4049 54.41 11.1289 55.028 10.7329 55.424C10.3369 55.808 9.76092 56 9.00492 56V53.84ZM17.5923 54.992C17.3163 55.364 16.9683 55.628 16.5483 55.784C16.1403 55.928 15.6063 56 14.9463 56V53.84L15.4863 53.3C15.9303 53.3 16.2543 53.234 16.4583 53.102C16.6623 52.97 16.8303 52.736 16.9623 52.4L17.4663 51.158C17.6223 50.774 17.7963 50.414 17.9883 50.078C18.1803 49.742 18.4083 49.448 18.6723 49.196C18.9363 48.944 19.2303 48.746 19.5543 48.602C19.8903 48.458 20.2743 48.386 20.7063 48.386C21.8343 48.386 22.6803 48.83 23.2443 49.718C23.8203 50.606 24.1083 51.836 24.1083 53.408V53.93L22.3983 56.468L17.5923 54.992ZM18.5823 52.49L22.2003 53.588V53.408C22.2003 52.688 22.0263 52.124 21.6783 51.716C21.3303 51.308 20.8563 51.104 20.2563 51.104C19.8723 51.104 19.5363 51.206 19.2483 51.41C18.9723 51.614 18.7623 51.938 18.6183 52.382L18.5823 52.49ZM29.3944 56C28.1824 56 27.2824 55.712 26.6944 55.136C26.1064 54.56 25.8124 53.624 25.8124 52.328V42.68H27.9724V51.968C27.9724 52.508 28.0804 52.868 28.2964 53.048C28.5124 53.216 28.8844 53.3 29.4124 53.3H29.9524V55.46L29.4124 56H29.3944ZM29.4131 53.84L29.9531 53.3H31.6451C32.0771 53.3 32.3711 53.258 32.5271 53.174C32.6951 53.078 32.7791 52.916 32.7791 52.688C32.7791 52.532 32.7371 52.394 32.6531 52.274C32.5691 52.142 32.4251 51.992 32.2211 51.824L30.1331 49.952V45.2L38.7731 42.464V44.84L31.0331 47.27V47.378L35.6231 51.572C36.0071 51.932 36.3491 52.226 36.6491 52.454C36.9611 52.67 37.2431 52.844 37.4951 52.976C37.7591 53.096 38.0051 53.18 38.2331 53.228C38.4611 53.276 38.7011 53.3 38.9531 53.3V55.46L38.4131 56C38.0051 56 37.6331 55.964 37.2971 55.892C36.9731 55.808 36.6491 55.664 36.3251 55.46C36.0011 55.244 35.6591 54.962 35.2991 54.614C34.9511 54.254 34.5551 53.798 34.1111 53.246L33.6251 52.652L33.5351 52.706C33.5831 52.934 33.6071 53.174 33.6071 53.426C33.6071 53.786 33.5531 54.122 33.4451 54.434C33.3371 54.746 33.1811 55.022 32.9771 55.262C32.7731 55.49 32.5271 55.67 32.2391 55.802C31.9511 55.934 31.6271 56 31.2671 56H29.4131V53.84ZM38.4131 53.84L38.9531 53.3H39.7451C40.2011 53.3 40.5011 53.216 40.6451 53.048C40.8011 52.868 40.8791 52.592 40.8791 52.22V42.68H43.0391V52.22C43.0391 53.504 42.7871 54.452 42.2831 55.064C41.7911 55.676 40.9451 55.988 39.7451 56H38.4131V53.84ZM45.2011 42.68H47.3611V56H45.2011V42.68ZM61.6992 56C60.6072 55.988 59.8092 55.724 59.3052 55.208C58.8012 54.68 58.5492 53.96 58.5492 53.048V52.958H58.4412C58.3452 53.378 58.2312 53.732 58.0992 54.02C57.9792 54.308 57.8232 54.542 57.6312 54.722C57.4392 54.89 57.2112 55.016 56.9472 55.1C56.6832 55.172 56.3712 55.208 56.0112 55.208C55.1472 55.208 54.4992 54.98 54.0672 54.524C53.6352 54.056 53.4192 53.402 53.4192 52.562C53.4192 51.578 53.6892 50.78 54.2292 50.168C54.7812 49.544 55.5192 49.004 56.4432 48.548L58.4592 47.54V46.55H60.6192V52.328C60.6192 52.688 60.6972 52.94 60.8532 53.084C61.0212 53.228 61.3032 53.3 61.6992 53.3H62.2392V55.46L61.6992 56ZM56.6052 52.508C57.3012 52.508 57.7812 52.442 58.0452 52.31C58.3212 52.178 58.4592 51.938 58.4592 51.59V49.43L57.1272 50.06C56.8032 50.216 56.5212 50.354 56.2812 50.474C56.0532 50.594 55.8552 50.72 55.6872 50.852C55.5312 50.972 55.4112 51.098 55.3272 51.23C55.2552 51.362 55.2192 51.512 55.2192 51.68C55.2192 51.98 55.3152 52.196 55.5072 52.328C55.7112 52.448 56.0772 52.508 56.6052 52.508ZM59.3772 45.11C59.0652 45.11 58.8072 45.014 58.6032 44.822C58.4112 44.63 58.3152 44.324 58.3152 43.904C58.3152 43.484 58.4112 43.178 58.6032 42.986C58.8072 42.794 59.0652 42.698 59.3772 42.698H59.7372C60.0492 42.698 60.3012 42.794 60.4932 42.986C60.6972 43.178 60.7992 43.484 60.7992 43.904C60.7992 44.324 60.6972 44.63 60.4932 44.822C60.3012 45.014 60.0492 45.11 59.7372 45.11H59.3772ZM56.5332 45.11C56.2212 45.11 55.9632 45.014 55.7592 44.822C55.5672 44.63 55.4712 44.324 55.4712 43.904C55.4712 43.484 55.5672 43.178 55.7592 42.986C55.9632 42.794 56.2212 42.698 56.5332 42.698H56.8932C57.2052 42.698 57.4572 42.794 57.6492 42.986C57.8532 43.178 57.9552 43.484 57.9552 43.904C57.9552 44.324 57.8532 44.63 57.6492 44.822C57.4572 45.014 57.2052 45.11 56.8932 45.11H56.5332ZM61.7041 53.84L62.2441 53.3H62.2621C62.8381 53.3 63.2641 53.234 63.5401 53.102C63.8281 52.958 64.0561 52.712 64.2241 52.364L64.9261 50.906L66.7081 51.77L66.0781 53.084C66.3661 53.216 66.6601 53.33 66.9601 53.426C67.2601 53.51 67.5661 53.552 67.8781 53.552C68.3941 53.552 68.7661 53.444 68.9941 53.228C69.2221 53 69.3361 52.604 69.3361 52.04V50.906H71.3161V52.04C71.3161 52.544 71.4001 52.91 71.5681 53.138C71.7481 53.366 71.9881 53.48 72.2881 53.48H72.4681C72.7201 53.48 72.9241 53.39 73.0801 53.21C73.2361 53.018 73.3141 52.718 73.3141 52.31C73.3141 52.142 73.2961 51.932 73.2601 51.68C73.2241 51.416 73.1761 51.098 73.1161 50.726L72.9541 49.808L74.9161 49.484L75.0601 50.402C75.1201 50.75 75.1621 51.08 75.1861 51.392C75.2101 51.692 75.2221 51.998 75.2221 52.31C75.2221 53.654 74.9881 54.644 74.5201 55.28C74.0641 55.904 73.3501 56.216 72.3781 56.216C71.5261 56.216 70.8841 56.012 70.4521 55.604C70.0201 55.196 69.7261 54.566 69.5701 53.714H69.4621C69.3661 54.578 69.1501 55.214 68.8141 55.622C68.4901 56.018 68.0581 56.216 67.5181 56.216C67.1701 56.216 66.8221 56.15 66.4741 56.018C66.1381 55.898 65.6941 55.676 65.1421 55.352L64.7641 55.136C64.3921 55.496 63.9661 55.73 63.4861 55.838C63.0181 55.946 62.4241 56 61.7041 56V53.84ZM71.5681 49.466C71.2561 49.466 70.9981 49.37 70.7941 49.178C70.6021 48.986 70.5061 48.68 70.5061 48.26C70.5061 47.84 70.6021 47.534 70.7941 47.342C70.9981 47.15 71.2561 47.054 71.5681 47.054H71.9281C72.2401 47.054 72.4921 47.15 72.6841 47.342C72.8881 47.534 72.9901 47.84 72.9901 48.26C72.9901 48.68 72.8881 48.986 72.6841 49.178C72.4921 49.37 72.2401 49.466 71.9281 49.466H71.5681ZM68.7241 49.466C68.4121 49.466 68.1541 49.37 67.9501 49.178C67.7581 48.986 67.6621 48.68 67.6621 48.26C67.6621 47.84 67.7581 47.534 67.9501 47.342C68.1541 47.15 68.4121 47.054 68.7241 47.054H69.0841C69.3961 47.054 69.6481 47.15 69.8401 47.342C70.0441 47.534 70.1461 47.84 70.1461 48.26C70.1461 48.68 70.0441 48.986 69.8401 49.178C69.6481 49.37 69.3961 49.466 69.0841 49.466H68.7241ZM70.1461 46.838C69.8341 46.838 69.5761 46.742 69.3721 46.55C69.1801 46.358 69.0841 46.052 69.0841 45.632C69.0841 45.212 69.1801 44.906 69.3721 44.714C69.5761 44.522 69.8341 44.426 70.1461 44.426H70.5061C70.8181 44.426 71.0701 44.522 71.2621 44.714C71.4661 44.906 71.5681 45.212 71.5681 45.632C71.5681 46.052 71.4661 46.358 71.2621 46.55C71.0701 46.742 70.8181 46.838 70.5061 46.838H70.1461ZM80.4237 56C79.2117 56 78.3117 55.712 77.7237 55.136C77.1357 54.56 76.8417 53.624 76.8417 52.328V42.68H79.0017V51.968C79.0017 52.508 79.1097 52.868 79.3257 53.048C79.5417 53.216 79.9137 53.3 80.4417 53.3H80.9817V55.46L80.4417 56H80.4237ZM80.4424 53.84L80.9824 53.3H81.0004C81.5644 53.3 81.9904 53.234 82.2784 53.102C82.5664 52.958 82.7944 52.712 82.9624 52.364L83.6644 50.906L85.4464 51.77L84.8164 53.102C85.1044 53.234 85.3984 53.342 85.6984 53.426C85.9984 53.51 86.3044 53.552 86.6164 53.552C87.1324 53.552 87.5044 53.444 87.7324 53.228C87.9604 53 88.0744 52.604 88.0744 52.04V50.906H90.0544V52.04C90.0544 52.544 90.1264 52.91 90.2704 53.138C90.4144 53.366 90.6784 53.48 91.0624 53.48H91.2424C91.5544 53.48 91.8004 53.366 91.9804 53.138C92.1724 52.91 92.2684 52.544 92.2684 52.04V50.186H94.2484V52.04C94.2484 52.88 94.6684 53.3 95.5084 53.3H96.2284V55.46L95.6884 56C94.7764 56 94.0804 55.82 93.6004 55.46C93.1324 55.088 92.8324 54.506 92.7004 53.714H92.5924C92.5204 54.578 92.3044 55.214 91.9444 55.622C91.5844 56.018 91.1044 56.216 90.5044 56.216C89.8684 56.216 89.3764 56.018 89.0284 55.622C88.6804 55.214 88.4404 54.578 88.3084 53.714H88.2004C88.1044 54.578 87.8884 55.214 87.5524 55.622C87.2284 56.018 86.7964 56.216 86.2564 56.216C85.9084 56.216 85.5604 56.15 85.2124 56.018C84.8764 55.898 84.4324 55.676 83.8804 55.352L83.5204 55.136C83.1484 55.484 82.7224 55.718 82.2424 55.838C81.7744 55.946 81.1744 56 80.4424 56V53.84ZM90.3064 49.466C89.9944 49.466 89.7364 49.37 89.5324 49.178C89.3404 48.986 89.2444 48.68 89.2444 48.26C89.2444 47.84 89.3404 47.534 89.5324 47.342C89.7364 47.15 89.9944 47.054 90.3064 47.054H90.6664C90.9784 47.054 91.2304 47.15 91.4224 47.342C91.6264 47.534 91.7284 47.84 91.7284 48.26C91.7284 48.68 91.6264 48.986 91.4224 49.178C91.2304 49.37 90.9784 49.466 90.6664 49.466H90.3064ZM87.4624 49.466C87.1504 49.466 86.8924 49.37 86.6884 49.178C86.4964 48.986 86.4004 48.68 86.4004 48.26C86.4004 47.84 86.4964 47.534 86.6884 47.342C86.8924 47.15 87.1504 47.054 87.4624 47.054H87.8224C88.1344 47.054 88.3864 47.15 88.5784 47.342C88.7824 47.534 88.8844 47.84 88.8844 48.26C88.8844 48.68 88.7824 48.986 88.5784 49.178C88.3864 49.37 88.1344 49.466 87.8224 49.466H87.4624ZM88.8844 46.838C88.5724 46.838 88.3144 46.742 88.1104 46.55C87.9184 46.358 87.8224 46.052 87.8224 45.632C87.8224 45.212 87.9184 44.906 88.1104 44.714C88.3144 44.522 88.5724 44.426 88.8844 44.426H89.2444C89.5564 44.426 89.8084 44.522 90.0004 44.714C90.2044 44.906 90.3064 45.212 90.3064 45.632C90.3064 46.052 90.2044 46.358 90.0004 46.55C89.8084 46.742 89.5564 46.838 89.2444 46.838H88.8844ZM95.6827 53.84L96.2227 53.3H97.0147C97.4707 53.3 97.7707 53.216 97.9147 53.048C98.0707 52.868 98.1487 52.592 98.1487 52.22V42.68H100.309V52.22C100.309 53.504 100.057 54.452 99.5527 55.064C99.0607 55.676 98.2147 55.988 97.0147 56H95.6827V53.84ZM102.471 42.68H104.631V56H102.471V42.68Z" fill="#6C2A80"/>
<path d="M174.712 28.4992L147.802 1.58238C146.781 0.568755 145.399 0 143.96 0C142.521 0 141.14 0.568755 140.118 1.58238L113.585 28.0941C112.57 29.1151 112 30.4964 112 31.9363C112 33.3762 112.57 34.7576 113.585 35.7786L140.258 62.8631C140.764 63.3732 141.366 63.7781 142.03 64.0543C142.694 64.3306 143.405 64.4728 144.124 64.4728C144.843 64.4728 145.555 64.3306 146.219 64.0543C146.882 63.7781 147.485 63.3732 147.991 62.8631L174.712 36.1349C175.731 35.1157 176.303 33.7336 176.303 32.2926C176.303 30.8516 175.731 29.4695 174.712 28.4503M169.494 36.1349L148.012 57.6796C147.506 58.1897 146.903 58.5945 146.239 58.8708C145.576 59.147 144.864 59.2893 144.145 59.2893C143.426 59.2893 142.715 59.147 142.051 58.8708C141.387 58.5945 140.785 58.1897 140.279 57.6796L118.755 35.7926C117.741 34.7707 117.172 33.3896 117.172 31.9503C117.172 30.511 117.741 29.1299 118.755 28.108L140.062 6.80088C141.082 5.78387 142.464 5.21277 143.904 5.21277C145.345 5.21277 146.726 5.78387 147.747 6.80088L169.438 28.4923C170.453 29.5133 171.023 30.8946 171.023 32.3345C171.023 33.7744 170.453 35.1558 169.438 36.1768" fill="#6C2A80"/>
<path d="M128.808 27.2351L135.605 20.4657C135.952 20.1201 136.422 19.9261 136.911 19.9261C137.401 19.9261 137.871 20.1201 138.218 20.4657L139.95 22.1982C140.301 22.5437 140.775 22.7357 141.268 22.7317C141.761 22.7278 142.231 22.5283 142.577 22.1772C142.922 21.8261 143.114 21.3521 143.11 20.8595C143.107 20.3669 142.907 19.8961 142.556 19.5505L140.837 17.825C140.665 17.6536 140.529 17.45 140.436 17.2259C140.343 17.0017 140.295 16.7613 140.295 16.5186C140.295 16.2759 140.343 16.0355 140.436 15.8114C140.529 15.5872 140.665 15.3836 140.837 15.2122L143.01 13.0536C143.356 12.7085 143.824 12.5146 144.313 12.5146C144.801 12.5146 145.27 12.7085 145.616 13.0536L148.012 15.4637C148.359 15.8093 148.83 16.0027 149.32 16.0014C149.81 16 150.279 15.8041 150.625 15.4567C150.97 15.1093 151.164 14.6389 151.162 14.1489C151.161 13.6589 150.965 13.1895 150.618 12.844L145.616 7.87001C145.27 7.52489 144.801 7.33105 144.313 7.33105C143.824 7.33105 143.356 7.52489 143.01 7.87001L126.202 24.6014C126.029 24.7725 125.891 24.9759 125.797 25.2002C125.703 25.4244 125.654 25.6651 125.652 25.9083C125.651 26.1516 125.698 26.3927 125.79 26.618C125.881 26.8432 126.017 27.0482 126.188 27.2211C126.359 27.394 126.562 27.5316 126.787 27.6259C127.011 27.7201 127.252 27.7693 127.495 27.7706C127.738 27.7719 127.979 27.7253 128.205 27.6334C128.43 27.5415 128.635 27.4062 128.808 27.2351Z" fill="#6C2A80"/>
<path d="M161.327 38.1884C160.981 37.8432 160.513 37.6494 160.024 37.6494C159.536 37.6494 159.067 37.8432 158.721 38.1884L152.301 44.6085C151.954 44.954 151.485 45.148 150.995 45.148C150.505 45.148 150.036 44.954 149.689 44.6085L147.837 42.7502C147.49 42.4046 147.021 42.2106 146.531 42.2106C146.041 42.2106 145.572 42.4046 145.225 42.7502C145.048 42.9221 144.907 43.1277 144.811 43.3548C144.715 43.5819 144.665 43.8259 144.664 44.0726C144.663 44.3192 144.712 44.5635 144.807 44.7911C144.902 45.0187 145.042 45.225 145.218 45.3979L147.069 47.2491C147.242 47.42 147.379 47.6235 147.472 47.8477C147.566 48.0719 147.614 48.3125 147.614 48.5555C147.614 48.7985 147.566 49.0391 147.472 49.2633C147.379 49.4876 147.242 49.691 147.069 49.8619L144.973 51.9577C144.626 52.3032 144.156 52.4972 143.667 52.4972C143.177 52.4972 142.707 52.3032 142.36 51.9577L140.223 49.82C140.067 49.6025 139.867 49.4213 139.634 49.289C139.402 49.1567 139.144 49.0765 138.878 49.0539C138.611 49.0312 138.343 49.0668 138.092 49.158C137.841 49.2492 137.613 49.3939 137.423 49.5821C137.233 49.7703 137.087 49.9975 136.993 50.248C136.9 50.4985 136.862 50.7662 136.883 51.0327C136.903 51.2992 136.981 51.558 137.112 51.7913C137.242 52.0246 137.422 52.2268 137.638 52.3838L142.381 57.1273C142.552 57.3001 142.756 57.4372 142.98 57.5308C143.204 57.6245 143.445 57.6727 143.688 57.6727C143.931 57.6727 144.171 57.6245 144.396 57.5308C144.62 57.4372 144.823 57.3001 144.994 57.1273L161.327 40.7941C161.499 40.6234 161.635 40.4204 161.728 40.1968C161.821 39.9732 161.869 39.7334 161.869 39.4912C161.869 39.2491 161.821 39.0093 161.728 38.7857C161.635 38.5621 161.499 38.3591 161.327 38.1884Z" fill="#6C2A80"/>
<path d="M125.224 33.8367V33.8018C124.878 33.4548 124.684 32.9851 124.684 32.4954C124.684 32.0057 124.878 31.536 125.224 31.189C125.57 30.8425 125.765 30.3726 125.765 29.8826C125.765 29.3927 125.57 28.9227 125.224 28.5763C124.877 28.2298 124.407 28.0352 123.917 28.0352C123.427 28.0352 122.958 28.2298 122.611 28.5763L119.97 31.217C119.798 31.3878 119.66 31.5913 119.567 31.8155C119.473 32.0398 119.425 32.2803 119.425 32.5233C119.425 32.7663 119.473 33.0069 119.567 33.2312C119.66 33.4554 119.798 33.6588 119.97 33.8297L122.611 36.4704C122.957 36.8169 123.426 37.0119 123.915 37.0125C124.404 37.0132 124.874 36.8194 125.22 36.4739C125.567 36.1283 125.762 35.6593 125.762 35.17C125.763 34.6807 125.569 34.2111 125.224 33.8646" fill="#6C2A80"/>
<path d="M163.94 26.2359C163.768 26.0648 163.565 25.9292 163.341 25.8368C163.117 25.7443 162.877 25.6969 162.635 25.6973C162.392 25.6976 162.152 25.7456 161.929 25.8387C161.705 25.9317 161.502 26.0679 161.331 26.2394C161.16 26.411 161.024 26.6145 160.932 26.8385C160.839 27.0625 160.792 27.3025 160.792 27.5448C160.792 27.787 160.84 28.0269 160.933 28.2506C161.026 28.4744 161.163 28.6776 161.334 28.8487L163.479 31.0003C163.824 31.3461 164.018 31.8147 164.018 32.3032C164.018 32.7917 163.824 33.2603 163.479 33.6061L162.138 34.9195C161.787 35.2696 161.591 35.7446 161.591 36.2398C161.591 36.735 161.787 37.21 162.138 37.5601C162.488 37.9103 162.963 38.107 163.458 38.107C163.953 38.107 164.428 37.9103 164.778 37.5601L168.732 33.6061C169.077 33.2603 169.271 32.7917 169.271 32.3032C169.271 31.8147 169.077 31.3461 168.732 31.0003L163.94 26.2359Z" fill="#6C2A80"/>
<path d="M152.993 33.1661C153.268 33.4457 153.422 33.822 153.422 34.214C153.422 34.606 153.268 34.9823 152.993 35.2619L151.903 36.3447C151.63 36.6251 151.477 37.0011 151.477 37.3926C151.477 37.784 151.63 38.16 151.903 38.4405L152.406 38.9365C152.544 39.0742 152.707 39.1835 152.887 39.258C153.067 39.3325 153.259 39.3709 153.454 39.3709C153.649 39.3709 153.841 39.3325 154.021 39.258C154.201 39.1835 154.364 39.0742 154.502 38.9365L158.204 35.2409C158.478 34.9605 158.63 34.5845 158.63 34.193C158.63 33.8016 158.478 33.4256 158.204 33.1451L152.993 27.9336C152.713 27.6588 152.337 27.5049 151.945 27.5049C151.553 27.5049 151.177 27.6588 150.897 27.9336L150.778 28.0524L136.178 42.8067C135.896 43.0782 135.521 43.2299 135.13 43.2299C134.739 43.2299 134.363 43.0782 134.082 42.8067L128.584 37.3018C128.304 37.027 127.928 36.873 127.536 36.873C127.144 36.873 126.768 37.027 126.488 37.3018L125.992 37.8048C125.855 37.9423 125.745 38.1057 125.671 38.2855C125.596 38.4653 125.558 38.658 125.558 38.8527C125.558 39.0473 125.596 39.24 125.671 39.4198C125.745 39.5996 125.855 39.763 125.992 39.9005L134.117 48.0252C134.397 48.3 134.773 48.4539 135.165 48.4539C135.557 48.4539 135.933 48.3 136.213 48.0252L150.883 33.1521C151.163 32.8774 151.539 32.7234 151.931 32.7234C152.323 32.7234 152.699 32.8774 152.979 33.1521" fill="#6C2A80"/>
<path d="M137.889 31.2099C137.601 31.4957 137.212 31.6561 136.807 31.6561C136.401 31.6561 136.012 31.4957 135.724 31.2099L135.109 30.5951C134.823 30.3072 134.663 29.918 134.663 29.5123C134.663 29.1066 134.823 28.7174 135.109 28.4295L138.965 24.5732C139.108 24.4316 139.222 24.263 139.3 24.0771C139.377 23.8912 139.417 23.6918 139.417 23.4904C139.417 23.289 139.377 23.0896 139.3 22.9037C139.222 22.7179 139.108 22.5492 138.965 22.4076L138.518 21.9605C138.231 21.6751 137.843 21.5149 137.439 21.5149C137.034 21.5149 136.646 21.6751 136.359 21.9605L131.42 26.8996L129.849 28.4085C129.705 28.5502 129.592 28.7188 129.514 28.9047C129.436 29.0905 129.396 29.2899 129.396 29.4914C129.396 29.6928 129.436 29.8922 129.514 30.078C129.592 30.2639 129.705 30.4325 129.849 30.5742L135.731 36.4563C136.017 36.7417 136.405 36.902 136.81 36.902C137.215 36.902 137.603 36.7417 137.889 36.4563L139.44 34.9194L152.49 21.8627C152.632 21.72 152.8 21.6067 152.986 21.5291C153.171 21.4516 153.37 21.4113 153.571 21.4107C153.772 21.41 153.972 21.449 154.158 21.5254C154.344 21.6017 154.513 21.714 154.656 21.8557C154.798 21.9974 154.912 22.1659 154.989 22.3514C155.067 22.537 155.107 22.736 155.108 22.9371C155.108 23.1382 155.069 23.3374 154.993 23.5235C154.917 23.7095 154.804 23.8787 154.663 24.0214L154.076 24.6152C153.933 24.7573 153.82 24.926 153.743 25.1118C153.666 25.2977 153.627 25.4968 153.627 25.698C153.627 25.8991 153.666 26.0983 153.743 26.2841C153.82 26.4699 153.933 26.6387 154.076 26.7808L154.523 27.2279C154.811 27.5137 155.2 27.6741 155.606 27.6741C156.011 27.6741 156.401 27.5137 156.689 27.2279L160.88 22.9735L160.559 22.6591L154.586 16.6093C154.444 16.4661 154.276 16.3524 154.09 16.2748C153.904 16.1972 153.704 16.1572 153.503 16.1572C153.302 16.1572 153.102 16.1972 152.916 16.2748C152.73 16.3524 152.562 16.4661 152.42 16.6093L150.946 18.1532L137.889 31.2099Z" fill="#6C2A80"/>
<path d="M127.124 31.2656C126.855 31.5354 126.704 31.901 126.704 32.2821C126.704 32.6632 126.855 33.0288 127.124 33.2985L133.09 39.3484C133.358 39.6189 133.722 39.772 134.103 39.7739C134.483 39.7759 134.849 39.6266 135.119 39.3589C135.39 39.0911 135.543 38.7269 135.545 38.3463C135.547 37.9657 135.398 37.5999 135.13 37.3294L129.15 31.2796C129.019 31.1422 128.862 31.0328 128.688 30.958C128.514 30.8833 128.326 30.8447 128.137 30.8447C127.947 30.8447 127.76 30.8833 127.586 30.958C127.412 31.0328 127.255 31.1422 127.124 31.2796" fill="#6C2A80"/>
<path d="M157.45 30.7276L159.679 32.9491C159.812 33.0826 159.97 33.1886 160.144 33.261C160.318 33.3334 160.504 33.3709 160.693 33.3712C160.881 33.3715 161.068 33.3347 161.242 33.2629C161.416 33.1911 161.574 33.0857 161.708 32.9526C161.841 32.8196 161.947 32.6616 162.02 32.4876C162.092 32.3136 162.13 32.1271 162.13 31.9386C162.13 31.7502 162.094 31.5635 162.022 31.3893C161.95 31.2151 161.844 31.0567 161.711 30.9232L159.483 28.6947C159.209 28.4459 158.85 28.3119 158.481 28.3207C158.111 28.3295 157.759 28.4803 157.497 28.7418C157.236 29.0033 157.085 29.3555 157.076 29.7253C157.067 30.095 157.201 30.454 157.45 30.7276Z" fill="#6C2A80"/>
<path d="M150.157 38.8314C149.883 38.5826 149.524 38.4487 149.154 38.4574C148.785 38.4662 148.432 38.617 148.171 38.8785C147.909 39.1401 147.759 39.4922 147.75 39.862C147.741 40.2317 147.875 40.5907 148.124 40.8643L149.758 42.499C150.032 42.7479 150.391 42.8818 150.761 42.873C151.131 42.8642 151.483 42.7134 151.744 42.4519C152.006 42.1904 152.157 41.8382 152.165 41.4684C152.174 41.0987 152.04 40.7398 151.791 40.4661L150.157 38.8314Z" fill="#6C2A80"/>
<path d="M141.187 47.753L142.71 49.2759C142.841 49.42 143 49.536 143.177 49.6169C143.354 49.6977 143.546 49.7418 143.74 49.7464C143.935 49.7511 144.129 49.7161 144.309 49.6437C144.49 49.5714 144.654 49.463 144.792 49.3253C144.93 49.1876 145.038 49.0234 145.11 48.8427C145.183 48.6619 145.218 48.4683 145.213 48.2736C145.208 48.0789 145.164 47.8872 145.084 47.7101C145.003 47.5329 144.887 47.374 144.743 47.243L143.22 45.7201C142.946 45.4713 142.587 45.3373 142.217 45.3461C141.848 45.3549 141.495 45.5057 141.234 45.7672C140.972 46.0287 140.822 46.3809 140.813 46.7507C140.804 47.1204 140.938 47.4794 141.187 47.753Z" fill="#6C2A80"/>
</svg>
