<svg width="177" height="65" viewBox="0 0 177 65" fill="none" xmlns="http://www.w3.org/2000/svg">
<path d="M62.7123 28.4992L35.8024 1.58238C34.7805 0.568755 33.3995 0 31.9601 0C30.5208 0 29.1398 0.568755 28.1179 1.58238L1.58524 28.0941C0.569924 29.1151 0 30.4964 0 31.9363C0 33.3762 0.569924 34.7576 1.58524 35.7786L28.2576 62.8631C28.7641 63.3732 29.3665 63.7781 30.0301 64.0543C30.6938 64.3306 31.4055 64.4728 32.1243 64.4728C32.8432 64.4728 33.5549 64.3306 34.2185 64.0543C34.8822 63.7781 35.4846 63.3732 35.991 62.8631L62.7123 36.1349C63.731 35.1157 64.3033 33.7336 64.3033 32.2926C64.3033 30.8516 63.731 29.4695 62.7123 28.4503M57.4938 36.1349L36.012 57.6796C35.5055 58.1897 34.9031 58.5945 34.2395 58.8708C33.5759 59.147 32.8641 59.2893 32.1453 59.2893C31.4264 59.2893 30.7147 59.147 30.0511 58.8708C29.3875 58.5945 28.785 58.1897 28.2786 57.6796L6.75484 35.7926C5.74122 34.7707 5.17247 33.3896 5.17247 31.9503C5.17247 30.511 5.74122 29.1299 6.75484 28.108L28.062 6.80088C29.0821 5.78387 30.4638 5.21277 31.9043 5.21277C33.3447 5.21277 34.7264 5.78387 35.7465 6.80088L57.4379 28.4923C58.4532 29.5133 59.0232 30.8946 59.0232 32.3345C59.0232 33.7744 58.4532 35.1558 57.4379 36.1768" fill="#6C2A80"/>
<path d="M16.8076 27.2351L23.605 20.4657C23.9519 20.1201 24.4216 19.9261 24.9113 19.9261C25.401 19.9261 25.8707 20.1201 26.2177 20.4657L27.9502 22.1982C28.3013 22.5437 28.7753 22.7357 29.2679 22.7317C29.7605 22.7278 30.2314 22.5283 30.5769 22.1772C30.9225 21.8261 31.1144 21.3521 31.1105 20.8595C31.1065 20.3669 30.9071 19.8961 30.556 19.5505L28.8374 17.825C28.6655 17.6536 28.5291 17.45 28.436 17.2259C28.3429 17.0017 28.295 16.7613 28.295 16.5186C28.295 16.2759 28.3429 16.0355 28.436 15.8114C28.5291 15.5872 28.6655 15.3836 28.8374 15.2122L31.0101 13.0536C31.3558 12.7085 31.8244 12.5146 32.3129 12.5146C32.8015 12.5146 33.2701 12.7085 33.6158 13.0536L36.012 15.4637C36.3594 15.8093 36.8298 16.0027 37.3198 16.0014C37.8098 16 38.2792 15.8041 38.6248 15.4567C38.9703 15.1093 39.1637 14.6389 39.1624 14.1489C39.1611 13.6589 38.9652 13.1895 38.6178 12.844L33.6158 7.87001C33.2701 7.52489 32.8015 7.33105 32.3129 7.33105C31.8244 7.33105 31.3558 7.52489 31.0101 7.87001L14.2019 24.6014C14.0289 24.7725 13.8914 24.9759 13.7971 25.2002C13.7028 25.4244 13.6536 25.6651 13.6523 25.9083C13.651 26.1516 13.6976 26.3927 13.7895 26.618C13.8814 26.8432 14.0168 27.0482 14.1879 27.2211C14.359 27.394 14.5625 27.5316 14.7867 27.6259C15.011 27.7201 15.2516 27.7693 15.4949 27.7706C15.7381 27.7719 15.9793 27.7253 16.2045 27.6334C16.4298 27.5415 16.6347 27.4062 16.8076 27.2351Z" fill="#6C2A80"/>
<path d="M49.3272 38.1884C48.9815 37.8432 48.5129 37.6494 48.0244 37.6494C47.5358 37.6494 47.0672 37.8432 46.7215 38.1884L40.3014 44.6085C39.9544 44.954 39.4847 45.148 38.995 45.148C38.5053 45.148 38.0356 44.954 37.6886 44.6085L35.8374 42.7502C35.4904 42.4046 35.0207 42.2106 34.531 42.2106C34.0413 42.2106 33.5716 42.4046 33.2246 42.7502C33.0478 42.9221 32.9071 43.1277 32.8108 43.3548C32.7145 43.5819 32.6646 43.8259 32.6639 44.0726C32.6633 44.3192 32.7119 44.5635 32.807 44.7911C32.9021 45.0187 33.0417 45.225 33.2176 45.3979L35.0689 47.2491C35.2417 47.42 35.3789 47.6235 35.4725 47.8477C35.5661 48.0719 35.6143 48.3125 35.6143 48.5555C35.6143 48.7985 35.5661 49.0391 35.4725 49.2633C35.3789 49.4876 35.2417 49.691 35.0689 49.8619L32.9731 51.9577C32.6262 52.3032 32.1564 52.4972 31.6667 52.4972C31.1771 52.4972 30.7073 52.3032 30.3604 51.9577L28.2227 49.82C28.0674 49.6025 27.8667 49.4213 27.6345 49.289C27.4022 49.1567 27.144 49.0765 26.8777 49.0539C26.6114 49.0312 26.3434 49.0668 26.0922 49.158C25.841 49.2492 25.6126 49.3939 25.4228 49.5821C25.2331 49.7703 25.0865 49.9975 24.9933 50.248C24.9 50.4985 24.8623 50.7662 24.8827 51.0327C24.9032 51.2992 24.9813 51.558 25.1117 51.7913C25.2421 52.0246 25.4216 52.2268 25.6379 52.3838L30.3813 57.1273C30.5522 57.3001 30.7556 57.4372 30.9799 57.5308C31.2041 57.6245 31.4447 57.6727 31.6877 57.6727C31.9307 57.6727 32.1713 57.6245 32.3955 57.5308C32.6198 57.4372 32.8232 57.3001 32.9941 57.1273L49.3272 40.7941C49.499 40.6234 49.6352 40.4204 49.7282 40.1968C49.8212 39.9732 49.8691 39.7334 49.8691 39.4912C49.8691 39.2491 49.8212 39.0093 49.7282 38.7857C49.6352 38.5621 49.499 38.3591 49.3272 38.1884Z" fill="#6C2A80"/>
<path d="M13.2238 33.8367V33.8018C12.8783 33.4548 12.6843 32.9851 12.6843 32.4954C12.6843 32.0057 12.8783 31.536 13.2238 31.189C13.5703 30.8425 13.7649 30.3726 13.7649 29.8826C13.7649 29.3927 13.5703 28.9227 13.2238 28.5763C12.8774 28.2298 12.4074 28.0352 11.9174 28.0352C11.4275 28.0352 10.9576 28.2298 10.6111 28.5763L7.97039 31.217C7.79761 31.3878 7.66045 31.5913 7.56684 31.8155C7.47322 32.0398 7.42502 32.2803 7.42502 32.5233C7.42502 32.7663 7.47322 33.0069 7.56684 33.2312C7.66045 33.4554 7.79761 33.6588 7.97039 33.8297L10.6111 36.4704C10.9566 36.8169 11.4257 37.0119 11.915 37.0125C12.4043 37.0132 12.8739 36.8194 13.2203 36.4739C13.5668 36.1283 13.7618 35.6593 13.7625 35.17C13.7631 34.6807 13.5694 34.2111 13.2238 33.8646" fill="#6C2A80"/>
<path d="M51.94 26.2359C51.7684 26.0648 51.5648 25.9292 51.3409 25.8368C51.1169 25.7443 50.8769 25.6969 50.6346 25.6973C50.3923 25.6976 50.1525 25.7456 49.9287 25.8387C49.705 25.9317 49.5018 26.0679 49.3307 26.2394C49.1596 26.411 49.024 26.6145 48.9316 26.8385C48.8391 27.0625 48.7917 27.3025 48.7921 27.5448C48.7924 27.787 48.8404 28.0269 48.9334 28.2506C49.0265 28.4744 49.1627 28.6776 49.3342 28.8487L51.4789 31.0003C51.824 31.3461 52.0178 31.8147 52.0178 32.3032C52.0178 32.7917 51.824 33.2603 51.4789 33.6061L50.1376 34.9195C49.7874 35.2696 49.5907 35.7446 49.5907 36.2398C49.5907 36.735 49.7874 37.21 50.1376 37.5601C50.4878 37.9103 50.9627 38.107 51.4579 38.107C51.9531 38.107 52.4281 37.9103 52.7783 37.5601L56.7323 33.6061C57.0774 33.2603 57.2713 32.7917 57.2713 32.3032C57.2713 31.8147 57.0774 31.3461 56.7323 31.0003L51.94 26.2359Z" fill="#6C2A80"/>
<path d="M40.993 33.1661C41.2677 33.4457 41.4217 33.822 41.4217 34.214C41.4217 34.606 41.2677 34.9823 40.993 35.2619L39.9032 36.3447C39.6301 36.6251 39.4772 37.0011 39.4772 37.3926C39.4772 37.784 39.6301 38.16 39.9032 38.4405L40.4062 38.9365C40.5437 39.0742 40.707 39.1835 40.8868 39.258C41.0667 39.3325 41.2594 39.3709 41.4541 39.3709C41.6487 39.3709 41.8414 39.3325 42.0212 39.258C42.201 39.1835 42.3644 39.0742 42.5019 38.9365L46.2045 35.2409C46.4776 34.9605 46.6304 34.5845 46.6304 34.193C46.6304 33.8016 46.4776 33.4256 46.2045 33.1451L40.993 27.9336C40.7134 27.6588 40.3371 27.5049 39.9451 27.5049C39.5531 27.5049 39.1768 27.6588 38.8972 27.9336L38.7784 28.0524L24.1778 42.8067C23.8965 43.0782 23.5208 43.2299 23.1299 43.2299C22.739 43.2299 22.3633 43.0782 22.082 42.8067L16.5841 37.3018C16.3045 37.027 15.9282 36.873 15.5362 36.873C15.1442 36.873 14.7679 37.027 14.4883 37.3018L13.9923 37.8048C13.8546 37.9423 13.7453 38.1057 13.6708 38.2855C13.5962 38.4653 13.5578 38.658 13.5578 38.8527C13.5578 39.0473 13.5962 39.24 13.6708 39.4198C13.7453 39.5996 13.8546 39.763 13.9923 39.9005L22.1169 48.0252C22.3965 48.3 22.7728 48.4539 23.1648 48.4539C23.5568 48.4539 23.9331 48.3 24.2127 48.0252L38.8832 33.1521C39.1628 32.8774 39.5391 32.7234 39.9311 32.7234C40.3231 32.7234 40.6994 32.8774 40.979 33.1521" fill="#6C2A80"/>
<path d="M25.8893 31.2099C25.6014 31.4957 25.2122 31.6561 24.8065 31.6561C24.4008 31.6561 24.0116 31.4957 23.7237 31.2099L23.1089 30.5951C22.8231 30.3072 22.6627 29.918 22.6627 29.5123C22.6627 29.1066 22.8231 28.7174 23.1089 28.4295L26.9652 24.5732C27.1084 24.4316 27.2221 24.263 27.2997 24.0771C27.3773 23.8912 27.4172 23.6918 27.4172 23.4904C27.4172 23.289 27.3773 23.0896 27.2997 22.9037C27.2221 22.7179 27.1084 22.5492 26.9652 22.4076L26.5181 21.9605C26.2314 21.6751 25.8433 21.5149 25.4388 21.5149C25.0342 21.5149 24.6461 21.6751 24.3594 21.9605L19.4204 26.8996L17.8485 28.4085C17.7053 28.5502 17.5916 28.7188 17.514 28.9047C17.4364 29.0905 17.3965 29.2899 17.3965 29.4914C17.3965 29.6928 17.4364 29.8922 17.514 30.078C17.5916 30.2639 17.7053 30.4325 17.8485 30.5742L23.7307 36.4563C24.0174 36.7417 24.4055 36.902 24.81 36.902C25.2146 36.902 25.6026 36.7417 25.8893 36.4563L27.4402 34.9194L40.49 21.8627C40.6317 21.72 40.8002 21.6067 40.9857 21.5291C41.1713 21.4516 41.3703 21.4113 41.5714 21.4107C41.7725 21.41 41.9717 21.449 42.1578 21.5254C42.3438 21.6017 42.513 21.714 42.6556 21.8557C42.7983 21.9974 42.9116 22.1659 42.9892 22.3514C43.0667 22.537 43.107 22.736 43.1077 22.9371C43.1083 23.1382 43.0693 23.3374 42.993 23.5235C42.9166 23.7095 42.8043 23.8787 42.6626 24.0214L42.0758 24.6152C41.9334 24.7573 41.8205 24.926 41.7434 25.1118C41.6664 25.2977 41.6267 25.4968 41.6267 25.698C41.6267 25.8991 41.6664 26.0983 41.7434 26.2841C41.8205 26.4699 41.9334 26.6387 42.0758 26.7808L42.5229 27.2279C42.8108 27.5137 43.2 27.6741 43.6057 27.6741C44.0114 27.6741 44.4007 27.5137 44.6886 27.2279L48.8801 22.9735L48.5588 22.6591L42.5858 16.6093C42.4441 16.4661 42.2755 16.3524 42.0897 16.2748C41.9038 16.1972 41.7044 16.1572 41.5029 16.1572C41.3015 16.1572 41.1021 16.1972 40.9163 16.2748C40.7304 16.3524 40.5618 16.4661 40.4201 16.6093L38.9461 18.1532L25.8893 31.2099Z" fill="#6C2A80"/>
<path d="M15.124 31.2656C14.8548 31.5354 14.7036 31.901 14.7036 32.2821C14.7036 32.6632 14.8548 33.0288 15.124 33.2985L21.09 39.3484C21.3577 39.6189 21.722 39.772 22.1025 39.7739C22.4831 39.7759 22.8489 39.6266 23.1194 39.3589C23.3899 39.0911 23.543 38.7269 23.545 38.3463C23.5469 37.9657 23.3976 37.5999 23.1299 37.3294L17.1499 31.2796C17.0194 31.1422 16.8623 31.0328 16.6882 30.958C16.514 30.8833 16.3265 30.8447 16.137 30.8447C15.9475 30.8447 15.7599 30.8833 15.5858 30.958C15.4116 31.0328 15.2545 31.1422 15.124 31.2796" fill="#6C2A80"/>
<path d="M45.45 30.7276L47.6785 32.9491C47.8116 33.0826 47.9696 33.1886 48.1435 33.261C48.3175 33.3334 48.5041 33.3709 48.6925 33.3712C48.881 33.3715 49.0676 33.3347 49.2419 33.2629C49.4161 33.1911 49.5745 33.0857 49.708 32.9526C49.8414 32.8196 49.9474 32.6616 50.0198 32.4876C50.0922 32.3136 50.1297 32.1271 50.13 31.9386C50.1303 31.7502 50.0935 31.5635 50.0217 31.3893C49.9499 31.2151 49.8445 31.0567 49.7114 30.9232L47.4829 28.6947C47.2093 28.4459 46.8503 28.3119 46.4806 28.3207C46.1108 28.3295 45.7587 28.4803 45.4971 28.7418C45.2356 29.0033 45.0848 29.3555 45.076 29.7253C45.0673 30.095 45.2012 30.454 45.45 30.7276Z" fill="#6C2A80"/>
<path d="M38.1567 38.8314C37.883 38.5826 37.5241 38.4487 37.1544 38.4574C36.7846 38.4662 36.4324 38.617 36.1709 38.8785C35.9094 39.1401 35.7586 39.4922 35.7498 39.862C35.741 40.2317 35.8749 40.5907 36.1238 40.8643L37.7585 42.499C38.0321 42.7479 38.3911 42.8818 38.7608 42.873C39.1306 42.8642 39.4827 42.7134 39.7443 42.4519C40.0058 42.1904 40.1566 41.8382 40.1654 41.4684C40.1741 41.0987 40.0402 40.7398 39.7914 40.4661L38.1567 38.8314Z" fill="#6C2A80"/>
<path d="M29.1867 47.753L30.7097 49.2759C30.8407 49.42 30.9996 49.536 31.1767 49.6169C31.3538 49.6977 31.5456 49.7418 31.7402 49.7464C31.9349 49.7511 32.1285 49.7161 32.3093 49.6437C32.4901 49.5714 32.6543 49.463 32.792 49.3253C32.9297 49.1876 33.038 49.0234 33.1104 48.8427C33.1828 48.6619 33.2177 48.4683 33.2131 48.2736C33.2085 48.0789 33.1644 47.8872 33.0835 47.7101C33.0026 47.5329 32.8866 47.374 32.7426 47.243L31.2196 45.7201C30.946 45.4713 30.5871 45.3373 30.2173 45.3461C29.8476 45.3549 29.4954 45.5057 29.2338 45.7672C28.9723 46.0287 28.8215 46.3809 28.8128 46.7507C28.804 47.1204 28.9379 47.4794 29.1867 47.753Z" fill="#6C2A80"/>
<path d="M75.04 23.5V9.54H84.3V12.24H78.08V15.1H83.38V17.78H78.08V23.5H75.04ZM92.2714 21.74H92.1714C92.0781 22.0067 91.9514 22.26 91.7914 22.5C91.6447 22.74 91.4514 22.9533 91.2114 23.14C90.9714 23.3267 90.6847 23.4733 90.3514 23.58C90.0314 23.6867 89.6581 23.74 89.2314 23.74C88.1514 23.74 87.3314 23.3867 86.7714 22.68C86.2247 21.96 85.9514 20.9333 85.9514 19.6V13H88.9114V19.34C88.9114 19.98 89.0247 20.4733 89.2514 20.82C89.4781 21.1667 89.8647 21.34 90.4114 21.34C90.6381 21.34 90.8647 21.3067 91.0914 21.24C91.3181 21.1733 91.5181 21.08 91.6914 20.96C91.8647 20.8267 92.0047 20.6667 92.1114 20.48C92.2181 20.2933 92.2714 20.0733 92.2714 19.82V13H95.2314V23.5H92.2714V21.74ZM100.925 23.5C99.9121 23.5 99.1655 23.2533 98.6855 22.76C98.2188 22.2667 97.9855 21.5533 97.9855 20.62V8.7H100.945V21.2H102.265V23.5H100.925ZM106.824 23.5C105.811 23.5 105.064 23.2533 104.584 22.76C104.117 22.2667 103.884 21.5533 103.884 20.62V8.7H106.844V21.2H108.164V23.5H106.824ZM114.619 23.74C113.392 23.74 112.352 23.5333 111.499 23.12C110.645 22.6933 109.919 22.1467 109.319 21.48L111.319 19.46C112.265 20.5267 113.432 21.06 114.819 21.06C115.565 21.06 116.119 20.9067 116.479 20.6C116.839 20.2933 117.019 19.8867 117.019 19.38C117.019 18.9933 116.912 18.6733 116.699 18.42C116.485 18.1533 116.052 17.9733 115.399 17.88L114.019 17.7C112.539 17.5133 111.452 17.0667 110.759 16.36C110.079 15.6533 109.739 14.7133 109.739 13.54C109.739 12.9133 109.859 12.34 110.099 11.82C110.339 11.3 110.679 10.8533 111.119 10.48C111.572 10.1067 112.119 9.82 112.759 9.62C113.412 9.40667 114.152 9.3 114.979 9.3C116.032 9.3 116.959 9.46667 117.759 9.8C118.559 10.1333 119.245 10.62 119.819 11.26L117.799 13.3C117.465 12.9133 117.059 12.6 116.579 12.36C116.112 12.1067 115.519 11.98 114.799 11.98C114.119 11.98 113.612 12.1 113.279 12.34C112.945 12.58 112.779 12.9133 112.779 13.34C112.779 13.82 112.905 14.1667 113.159 14.38C113.425 14.5933 113.852 14.7467 114.439 14.84L115.819 15.06C117.259 15.2867 118.325 15.7333 119.019 16.4C119.712 17.0533 120.059 17.9867 120.059 19.2C120.059 19.8667 119.939 20.48 119.699 21.04C119.459 21.6 119.105 22.08 118.639 22.48C118.185 22.88 117.619 23.1933 116.939 23.42C116.259 23.6333 115.485 23.74 114.619 23.74ZM126.659 23.74C125.872 23.74 125.172 23.6133 124.559 23.36C123.946 23.0933 123.432 22.7267 123.019 22.26C122.606 21.78 122.292 21.2 122.079 20.52C121.866 19.84 121.759 19.08 121.759 18.24C121.759 17.4 121.866 16.6467 122.079 15.98C122.292 15.3 122.606 14.72 123.019 14.24C123.432 13.76 123.946 13.3933 124.559 13.14C125.172 12.8867 125.872 12.76 126.659 12.76C127.726 12.76 128.612 13 129.319 13.48C130.039 13.96 130.552 14.6333 130.859 15.5L128.459 16.54C128.366 16.14 128.172 15.8 127.879 15.52C127.586 15.24 127.179 15.1 126.659 15.1C126.059 15.1 125.606 15.3 125.299 15.7C124.992 16.0867 124.839 16.6133 124.839 17.28V19.24C124.839 19.9067 124.992 20.4333 125.299 20.82C125.606 21.2067 126.059 21.4 126.659 21.4C127.192 21.4 127.612 21.26 127.919 20.98C128.239 20.6867 128.472 20.3067 128.619 19.84L130.919 20.84C130.572 21.84 130.032 22.5733 129.299 23.04C128.579 23.5067 127.699 23.74 126.659 23.74ZM132.751 23.5V13H135.711V15.28H135.811C135.864 14.9867 135.958 14.7067 136.091 14.44C136.224 14.16 136.398 13.9133 136.611 13.7C136.838 13.4867 137.104 13.32 137.411 13.2C137.718 13.0667 138.078 13 138.491 13H139.011V15.76H138.271C137.404 15.76 136.758 15.8733 136.331 16.1C135.918 16.3267 135.711 16.7467 135.711 17.36V23.5H132.751ZM145.119 23.74C144.319 23.74 143.606 23.6133 142.979 23.36C142.353 23.0933 141.819 22.7267 141.379 22.26C140.953 21.78 140.626 21.2 140.399 20.52C140.186 19.84 140.079 19.08 140.079 18.24C140.079 17.4133 140.186 16.6667 140.399 16C140.613 15.32 140.926 14.74 141.339 14.26C141.766 13.78 142.286 13.4133 142.899 13.16C143.513 12.8933 144.213 12.76 144.999 12.76C145.866 12.76 146.606 12.9067 147.219 13.2C147.846 13.4933 148.353 13.8867 148.739 14.38C149.139 14.8733 149.426 15.4467 149.599 16.1C149.786 16.74 149.879 17.4133 149.879 18.12V19H143.139V19.16C143.139 19.8533 143.326 20.4067 143.699 20.82C144.073 21.22 144.659 21.42 145.459 21.42C146.073 21.42 146.573 21.3 146.959 21.06C147.346 20.8067 147.706 20.5067 148.039 20.16L149.519 22C149.053 22.5467 148.439 22.9733 147.679 23.28C146.933 23.5867 146.079 23.74 145.119 23.74ZM145.059 14.94C144.459 14.94 143.986 15.14 143.639 15.54C143.306 15.9267 143.139 16.4467 143.139 17.1V17.26H146.819V17.08C146.819 16.44 146.673 15.9267 146.379 15.54C146.099 15.14 145.659 14.94 145.059 14.94ZM156.35 23.74C155.55 23.74 154.837 23.6133 154.21 23.36C153.583 23.0933 153.05 22.7267 152.61 22.26C152.183 21.78 151.857 21.2 151.63 20.52C151.417 19.84 151.31 19.08 151.31 18.24C151.31 17.4133 151.417 16.6667 151.63 16C151.843 15.32 152.157 14.74 152.57 14.26C152.997 13.78 153.517 13.4133 154.13 13.16C154.743 12.8933 155.443 12.76 156.23 12.76C157.097 12.76 157.837 12.9067 158.45 13.2C159.077 13.4933 159.583 13.8867 159.97 14.38C160.37 14.8733 160.657 15.4467 160.83 16.1C161.017 16.74 161.11 17.4133 161.11 18.12V19H154.37V19.16C154.37 19.8533 154.557 20.4067 154.93 20.82C155.303 21.22 155.89 21.42 156.69 21.42C157.303 21.42 157.803 21.3 158.19 21.06C158.577 20.8067 158.937 20.5067 159.27 20.16L160.75 22C160.283 22.5467 159.67 22.9733 158.91 23.28C158.163 23.5867 157.31 23.74 156.35 23.74ZM156.29 14.94C155.69 14.94 155.217 15.14 154.87 15.54C154.537 15.9267 154.37 16.4467 154.37 17.1V17.26H158.05V17.08C158.05 16.44 157.903 15.9267 157.61 15.54C157.33 15.14 156.89 14.94 156.29 14.94ZM163.2 23.5V13H166.16V14.78H166.28C166.467 14.2333 166.794 13.76 167.26 13.36C167.727 12.96 168.374 12.76 169.2 12.76C170.28 12.76 171.094 13.12 171.64 13.84C172.2 14.56 172.48 15.5867 172.48 16.92V23.5H169.52V17.16C169.52 16.48 169.414 15.98 169.2 15.66C168.987 15.3267 168.607 15.16 168.06 15.16C167.82 15.16 167.587 15.1933 167.36 15.26C167.134 15.3133 166.927 15.4067 166.74 15.54C166.567 15.6733 166.427 15.84 166.32 16.04C166.214 16.2267 166.16 16.4467 166.16 16.7V23.5H163.2Z" fill="#6C2A80"/>
<path d="M80 55.5C78.908 55.488 78.11 55.224 77.606 54.708C77.102 54.18 76.85 53.46 76.85 52.548V52.458H76.742C76.646 52.878 76.532 53.232 76.4 53.52C76.28 53.808 76.124 54.042 75.932 54.222C75.74 54.39 75.512 54.516 75.248 54.6C74.984 54.672 74.672 54.708 74.312 54.708C73.448 54.708 72.8 54.48 72.368 54.024C71.936 53.556 71.72 52.902 71.72 52.062C71.72 51.078 71.99 50.28 72.53 49.668C73.082 49.044 73.82 48.504 74.744 48.048L76.76 47.04V46.05H78.92V51.828C78.92 52.188 78.998 52.44 79.154 52.584C79.322 52.728 79.604 52.8 80 52.8H80.54V54.96L80 55.5ZM74.906 52.008C75.602 52.008 76.082 51.942 76.346 51.81C76.622 51.678 76.76 51.438 76.76 51.09V48.93L75.428 49.56C75.104 49.716 74.822 49.854 74.582 49.974C74.354 50.094 74.156 50.22 73.988 50.352C73.832 50.472 73.712 50.598 73.628 50.73C73.556 50.862 73.52 51.012 73.52 51.18C73.52 51.48 73.616 51.696 73.808 51.828C74.012 51.948 74.378 52.008 74.906 52.008ZM77.678 44.61C77.366 44.61 77.108 44.514 76.904 44.322C76.712 44.13 76.616 43.824 76.616 43.404C76.616 42.984 76.712 42.678 76.904 42.486C77.108 42.294 77.366 42.198 77.678 42.198H78.038C78.35 42.198 78.602 42.294 78.794 42.486C78.998 42.678 79.1 42.984 79.1 43.404C79.1 43.824 78.998 44.13 78.794 44.322C78.602 44.514 78.35 44.61 78.038 44.61H77.678ZM74.834 44.61C74.522 44.61 74.264 44.514 74.06 44.322C73.868 44.13 73.772 43.824 73.772 43.404C73.772 42.984 73.868 42.678 74.06 42.486C74.264 42.294 74.522 42.198 74.834 42.198H75.194C75.506 42.198 75.758 42.294 75.95 42.486C76.154 42.678 76.256 42.984 76.256 43.404C76.256 43.824 76.154 44.13 75.95 44.322C75.758 44.514 75.506 44.61 75.194 44.61H74.834ZM80.0049 53.34L80.5449 52.8H80.9949C81.9549 52.8 82.4349 52.38 82.4349 51.54V42.18H84.5949V51.54C84.5949 52.38 85.0149 52.8 85.8549 52.8H86.4849V54.96L85.9449 55.5C84.9609 55.5 84.2109 55.308 83.6949 54.924C83.1789 54.528 82.8369 53.91 82.6689 53.07H82.5609C82.4049 53.91 82.1289 54.528 81.7329 54.924C81.3369 55.308 80.7609 55.5 80.0049 55.5V53.34ZM88.5923 54.492C88.3163 54.864 87.9683 55.128 87.5483 55.284C87.1403 55.428 86.6063 55.5 85.9463 55.5V53.34L86.4863 52.8C86.9303 52.8 87.2543 52.734 87.4583 52.602C87.6623 52.47 87.8303 52.236 87.9623 51.9L88.4663 50.658C88.6223 50.274 88.7963 49.914 88.9883 49.578C89.1803 49.242 89.4083 48.948 89.6723 48.696C89.9363 48.444 90.2303 48.246 90.5543 48.102C90.8903 47.958 91.2743 47.886 91.7063 47.886C92.8343 47.886 93.6803 48.33 94.2443 49.218C94.8203 50.106 95.1083 51.336 95.1083 52.908V53.43L93.3983 55.968L88.5923 54.492ZM89.5823 51.99L93.2003 53.088V52.908C93.2003 52.188 93.0263 51.624 92.6783 51.216C92.3303 50.808 91.8563 50.604 91.2563 50.604C90.8723 50.604 90.5363 50.706 90.2483 50.91C89.9723 51.114 89.7623 51.438 89.6183 51.882L89.5823 51.99ZM100.394 55.5C99.1824 55.5 98.2824 55.212 97.6944 54.636C97.1064 54.06 96.8124 53.124 96.8124 51.828V42.18H98.9724V51.468C98.9724 52.008 99.0804 52.368 99.2964 52.548C99.5124 52.716 99.8844 52.8 100.412 52.8H100.952V54.96L100.412 55.5H100.394ZM100.413 53.34L100.953 52.8H102.645C103.077 52.8 103.371 52.758 103.527 52.674C103.695 52.578 103.779 52.416 103.779 52.188C103.779 52.032 103.737 51.894 103.653 51.774C103.569 51.642 103.425 51.492 103.221 51.324L101.133 49.452V44.7L109.773 41.964V44.34L102.033 46.77V46.878L106.623 51.072C107.007 51.432 107.349 51.726 107.649 51.954C107.961 52.17 108.243 52.344 108.495 52.476C108.759 52.596 109.005 52.68 109.233 52.728C109.461 52.776 109.701 52.8 109.953 52.8V54.96L109.413 55.5C109.005 55.5 108.633 55.464 108.297 55.392C107.973 55.308 107.649 55.164 107.325 54.96C107.001 54.744 106.659 54.462 106.299 54.114C105.951 53.754 105.555 53.298 105.111 52.746L104.625 52.152L104.535 52.206C104.583 52.434 104.607 52.674 104.607 52.926C104.607 53.286 104.553 53.622 104.445 53.934C104.337 54.246 104.181 54.522 103.977 54.762C103.773 54.99 103.527 55.17 103.239 55.302C102.951 55.434 102.627 55.5 102.267 55.5H100.413V53.34ZM109.413 53.34L109.953 52.8H110.745C111.201 52.8 111.501 52.716 111.645 52.548C111.801 52.368 111.879 52.092 111.879 51.72V42.18H114.039V51.72C114.039 53.004 113.787 53.952 113.283 54.564C112.791 55.176 111.945 55.488 110.745 55.5H109.413V53.34ZM116.201 42.18H118.361V55.5H116.201V42.18ZM132.699 55.5C131.607 55.488 130.809 55.224 130.305 54.708C129.801 54.18 129.549 53.46 129.549 52.548V52.458H129.441C129.345 52.878 129.231 53.232 129.099 53.52C128.979 53.808 128.823 54.042 128.631 54.222C128.439 54.39 128.211 54.516 127.947 54.6C127.683 54.672 127.371 54.708 127.011 54.708C126.147 54.708 125.499 54.48 125.067 54.024C124.635 53.556 124.419 52.902 124.419 52.062C124.419 51.078 124.689 50.28 125.229 49.668C125.781 49.044 126.519 48.504 127.443 48.048L129.459 47.04V46.05H131.619V51.828C131.619 52.188 131.697 52.44 131.853 52.584C132.021 52.728 132.303 52.8 132.699 52.8H133.239V54.96L132.699 55.5ZM127.605 52.008C128.301 52.008 128.781 51.942 129.045 51.81C129.321 51.678 129.459 51.438 129.459 51.09V48.93L128.127 49.56C127.803 49.716 127.521 49.854 127.281 49.974C127.053 50.094 126.855 50.22 126.687 50.352C126.531 50.472 126.411 50.598 126.327 50.73C126.255 50.862 126.219 51.012 126.219 51.18C126.219 51.48 126.315 51.696 126.507 51.828C126.711 51.948 127.077 52.008 127.605 52.008ZM130.377 44.61C130.065 44.61 129.807 44.514 129.603 44.322C129.411 44.13 129.315 43.824 129.315 43.404C129.315 42.984 129.411 42.678 129.603 42.486C129.807 42.294 130.065 42.198 130.377 42.198H130.737C131.049 42.198 131.301 42.294 131.493 42.486C131.697 42.678 131.799 42.984 131.799 43.404C131.799 43.824 131.697 44.13 131.493 44.322C131.301 44.514 131.049 44.61 130.737 44.61H130.377ZM127.533 44.61C127.221 44.61 126.963 44.514 126.759 44.322C126.567 44.13 126.471 43.824 126.471 43.404C126.471 42.984 126.567 42.678 126.759 42.486C126.963 42.294 127.221 42.198 127.533 42.198H127.893C128.205 42.198 128.457 42.294 128.649 42.486C128.853 42.678 128.955 42.984 128.955 43.404C128.955 43.824 128.853 44.13 128.649 44.322C128.457 44.514 128.205 44.61 127.893 44.61H127.533ZM132.704 53.34L133.244 52.8H133.262C133.838 52.8 134.264 52.734 134.54 52.602C134.828 52.458 135.056 52.212 135.224 51.864L135.926 50.406L137.708 51.27L137.078 52.584C137.366 52.716 137.66 52.83 137.96 52.926C138.26 53.01 138.566 53.052 138.878 53.052C139.394 53.052 139.766 52.944 139.994 52.728C140.222 52.5 140.336 52.104 140.336 51.54V50.406H142.316V51.54C142.316 52.044 142.4 52.41 142.568 52.638C142.748 52.866 142.988 52.98 143.288 52.98H143.468C143.72 52.98 143.924 52.89 144.08 52.71C144.236 52.518 144.314 52.218 144.314 51.81C144.314 51.642 144.296 51.432 144.26 51.18C144.224 50.916 144.176 50.598 144.116 50.226L143.954 49.308L145.916 48.984L146.06 49.902C146.12 50.25 146.162 50.58 146.186 50.892C146.21 51.192 146.222 51.498 146.222 51.81C146.222 53.154 145.988 54.144 145.52 54.78C145.064 55.404 144.35 55.716 143.378 55.716C142.526 55.716 141.884 55.512 141.452 55.104C141.02 54.696 140.726 54.066 140.57 53.214H140.462C140.366 54.078 140.15 54.714 139.814 55.122C139.49 55.518 139.058 55.716 138.518 55.716C138.17 55.716 137.822 55.65 137.474 55.518C137.138 55.398 136.694 55.176 136.142 54.852L135.764 54.636C135.392 54.996 134.966 55.23 134.486 55.338C134.018 55.446 133.424 55.5 132.704 55.5V53.34ZM142.568 48.966C142.256 48.966 141.998 48.87 141.794 48.678C141.602 48.486 141.506 48.18 141.506 47.76C141.506 47.34 141.602 47.034 141.794 46.842C141.998 46.65 142.256 46.554 142.568 46.554H142.928C143.24 46.554 143.492 46.65 143.684 46.842C143.888 47.034 143.99 47.34 143.99 47.76C143.99 48.18 143.888 48.486 143.684 48.678C143.492 48.87 143.24 48.966 142.928 48.966H142.568ZM139.724 48.966C139.412 48.966 139.154 48.87 138.95 48.678C138.758 48.486 138.662 48.18 138.662 47.76C138.662 47.34 138.758 47.034 138.95 46.842C139.154 46.65 139.412 46.554 139.724 46.554H140.084C140.396 46.554 140.648 46.65 140.84 46.842C141.044 47.034 141.146 47.34 141.146 47.76C141.146 48.18 141.044 48.486 140.84 48.678C140.648 48.87 140.396 48.966 140.084 48.966H139.724ZM141.146 46.338C140.834 46.338 140.576 46.242 140.372 46.05C140.18 45.858 140.084 45.552 140.084 45.132C140.084 44.712 140.18 44.406 140.372 44.214C140.576 44.022 140.834 43.926 141.146 43.926H141.506C141.818 43.926 142.07 44.022 142.262 44.214C142.466 44.406 142.568 44.712 142.568 45.132C142.568 45.552 142.466 45.858 142.262 46.05C142.07 46.242 141.818 46.338 141.506 46.338H141.146ZM151.424 55.5C150.212 55.5 149.312 55.212 148.724 54.636C148.136 54.06 147.842 53.124 147.842 51.828V42.18H150.002V51.468C150.002 52.008 150.11 52.368 150.326 52.548C150.542 52.716 150.914 52.8 151.442 52.8H151.982V54.96L151.442 55.5H151.424ZM151.442 53.34L151.982 52.8H152C152.564 52.8 152.99 52.734 153.278 52.602C153.566 52.458 153.794 52.212 153.962 51.864L154.664 50.406L156.446 51.27L155.816 52.602C156.104 52.734 156.398 52.842 156.698 52.926C156.998 53.01 157.304 53.052 157.616 53.052C158.132 53.052 158.504 52.944 158.732 52.728C158.96 52.5 159.074 52.104 159.074 51.54V50.406H161.054V51.54C161.054 52.044 161.126 52.41 161.27 52.638C161.414 52.866 161.678 52.98 162.062 52.98H162.242C162.554 52.98 162.8 52.866 162.98 52.638C163.172 52.41 163.268 52.044 163.268 51.54V49.686H165.248V51.54C165.248 52.38 165.668 52.8 166.508 52.8H167.228V54.96L166.688 55.5C165.776 55.5 165.08 55.32 164.6 54.96C164.132 54.588 163.832 54.006 163.7 53.214H163.592C163.52 54.078 163.304 54.714 162.944 55.122C162.584 55.518 162.104 55.716 161.504 55.716C160.868 55.716 160.376 55.518 160.028 55.122C159.68 54.714 159.44 54.078 159.308 53.214H159.2C159.104 54.078 158.888 54.714 158.552 55.122C158.228 55.518 157.796 55.716 157.256 55.716C156.908 55.716 156.56 55.65 156.212 55.518C155.876 55.398 155.432 55.176 154.88 54.852L154.52 54.636C154.148 54.984 153.722 55.218 153.242 55.338C152.774 55.446 152.174 55.5 151.442 55.5V53.34ZM161.306 48.966C160.994 48.966 160.736 48.87 160.532 48.678C160.34 48.486 160.244 48.18 160.244 47.76C160.244 47.34 160.34 47.034 160.532 46.842C160.736 46.65 160.994 46.554 161.306 46.554H161.666C161.978 46.554 162.23 46.65 162.422 46.842C162.626 47.034 162.728 47.34 162.728 47.76C162.728 48.18 162.626 48.486 162.422 48.678C162.23 48.87 161.978 48.966 161.666 48.966H161.306ZM158.462 48.966C158.15 48.966 157.892 48.87 157.688 48.678C157.496 48.486 157.4 48.18 157.4 47.76C157.4 47.34 157.496 47.034 157.688 46.842C157.892 46.65 158.15 46.554 158.462 46.554H158.822C159.134 46.554 159.386 46.65 159.578 46.842C159.782 47.034 159.884 47.34 159.884 47.76C159.884 48.18 159.782 48.486 159.578 48.678C159.386 48.87 159.134 48.966 158.822 48.966H158.462ZM159.884 46.338C159.572 46.338 159.314 46.242 159.11 46.05C158.918 45.858 158.822 45.552 158.822 45.132C158.822 44.712 158.918 44.406 159.11 44.214C159.314 44.022 159.572 43.926 159.884 43.926H160.244C160.556 43.926 160.808 44.022 161 44.214C161.204 44.406 161.306 44.712 161.306 45.132C161.306 45.552 161.204 45.858 161 46.05C160.808 46.242 160.556 46.338 160.244 46.338H159.884ZM166.683 53.34L167.223 52.8H168.015C168.471 52.8 168.771 52.716 168.915 52.548C169.071 52.368 169.149 52.092 169.149 51.72V42.18H171.309V51.72C171.309 53.004 171.057 53.952 170.553 54.564C170.061 55.176 169.215 55.488 168.015 55.5H166.683V53.34ZM173.471 42.18H175.631V55.5H173.471V42.18Z" fill="#6C2A80"/>
</svg>
