<svg width="30" height="28" viewBox="0 0 30 28" fill="none" xmlns="http://www.w3.org/2000/svg">
<path d="M25.2669 8.36316L25.1852 8.47386L18.1376 16.4642C17.7631 16.8874 17.3029 17.2264 16.7875 17.4585C16.272 17.6906 15.713 17.8105 15.1476 17.8105C14.5822 17.8105 14.0232 17.6906 13.5078 17.4585C12.9923 17.2264 12.5321 16.8874 12.1576 16.4642L5.02252 8.37483C4.89618 8.67772 4.83078 9.00229 4.83002 9.33043V18.4867C4.83002 19.6217 5.28096 20.7102 6.08387 21.5134C6.88678 22.3166 7.97598 22.7685 9.11224 22.7701H21.1831C21.7459 22.7701 22.3032 22.6593 22.8231 22.444C23.343 22.2286 23.8153 21.913 24.2131 21.5151C24.6108 21.1173 24.9261 20.6449 25.1409 20.1252C25.3558 19.6056 25.466 19.0489 25.4653 18.4867V9.31307C25.4636 8.98633 25.3962 8.66333 25.2669 8.36316Z" fill="#6C2A80"/>
<path d="M13.762 15.0477C13.9344 15.2435 14.1467 15.4004 14.3846 15.5079C14.6225 15.6153 14.8806 15.6709 15.1417 15.6709C15.4028 15.6709 15.661 15.6153 15.8989 15.5079C16.1368 15.4004 16.3491 15.2435 16.5216 15.0477L23.5692 7.05739C23.5977 7.03361 23.625 7.00839 23.6508 6.9817C23.4472 6.92767 23.2373 6.90016 23.0266 6.90002H7.27445C7.07735 6.90304 6.88139 6.93053 6.69104 6.9817L13.762 15.0477Z" fill="#6C2A80"/>
<rect x="1" y="1" width="28" height="25.6" rx="4" stroke="#6C2A80" stroke-width="2"/>
</svg>
