<svg width="46" height="46" viewBox="0 0 46 46" fill="none" xmlns="http://www.w3.org/2000/svg">
<path d="M23.7188 33.7812H22.2812C21.4885 33.7812 20.8438 34.426 20.8438 35.2188V35.9375C20.8438 37.1263 21.8112 38.0938 23 38.0938C24.1888 38.0938 25.1562 37.1263 25.1562 35.9375V35.2188C25.1562 34.426 24.5115 33.7812 23.7188 33.7812ZM23.7188 35.9375C23.7105 36.1226 23.6311 36.2973 23.4972 36.4253C23.3634 36.5534 23.1852 36.6248 23 36.6248C22.8148 36.6248 22.6366 36.5534 22.5028 36.4253C22.3689 36.2973 22.2895 36.1226 22.2812 35.9375V35.2188H23.7188V35.9375ZM29.4688 6.46875H40.9688V7.90625H29.4688V6.46875ZM39.5312 9.34375H40.9688V10.7812H39.5312V9.34375ZM29.4688 9.34375H38.0938V10.7812H29.4688V9.34375Z" fill="#4F4F4F"/>
<path d="M45.5788 33.0626L40.9688 28.4525V26.8195C40.9711 25.9697 40.8049 25.1278 40.4797 24.3426C40.1545 23.5575 39.6767 22.8446 39.0741 22.2454L34.7358 17.907C34.3141 17.4877 33.7441 17.2517 33.1495 17.2501C32.7146 17.2509 32.2893 17.378 31.9253 17.616C31.5612 17.854 31.2741 18.1925 31.0989 18.5905C30.6825 18.1942 30.1305 17.9718 29.5557 17.9688C29.5263 17.9688 29.4982 17.9767 29.4688 17.9774V13.6563H30.9063V14.0157C30.907 14.3491 31.0005 14.6756 31.1761 14.959C31.3517 15.2424 31.6026 15.4714 31.9007 15.6205C32.1989 15.7696 32.5326 15.8329 32.8647 15.8033C33.1968 15.7738 33.5141 15.6526 33.7813 15.4532L36.1768 13.6563H41.1262C41.8576 13.6572 42.5683 13.4132 43.1449 12.9631C43.7215 12.513 44.1307 11.8828 44.3073 11.173L45.1842 7.66696C45.3042 7.1836 45.3126 6.67929 45.2088 6.1922C45.105 5.70511 44.8917 5.24803 44.5851 4.85556C44.2785 4.4631 43.8867 4.14554 43.4392 3.92694C42.9917 3.70833 42.5003 3.59441 42.0023 3.59381H29.3954C29.229 2.79035 28.7908 2.06873 28.1548 1.55036C27.5187 1.03199 26.7236 0.748494 25.903 0.747559H8.625C6.64341 0.747559 5.03125 2.35971 5.03125 4.34131V21.265L3.04678 23.2487C2.3063 23.9852 1.71926 24.8613 1.31965 25.8262C0.92004 26.7911 0.7158 27.8257 0.718751 28.8701C0.718751 29.3057 0.755407 29.7455 0.826563 30.1768L1.94494 36.8842C2.10021 37.8175 2.35589 38.7313 2.70753 39.6097L3.59375 41.8263V45.2813H13.6563V41.8263L13.9991 40.9688H25.875C27.8566 40.9688 29.4688 39.3567 29.4688 37.3751V35.7859C29.9163 35.8847 30.3732 35.9355 30.8315 35.9376H33.483L38.0938 40.5476L45.5788 33.0626ZM27.3204 20.133C27.0716 20.1412 26.8259 20.1912 26.5938 20.281V12.2087C26.9489 12.732 27.4482 13.141 28.0313 13.3861V18.5762C27.8161 18.7761 27.6425 19.0165 27.5206 19.2837C27.3986 19.5508 27.3306 19.8394 27.3204 20.133ZM19.4063 17.9688V16.5313H22.2813V17.9688H19.4063ZM17.9688 15.0938V19.4063H18.1183C18.0255 19.6507 17.9688 19.9123 17.9688 20.189C17.9692 20.4944 18.0324 20.7964 18.1544 21.0764C18.2764 21.3563 18.4547 21.6081 18.6782 21.8163L24.6014 27.3169C24.5733 27.3162 24.546 27.3126 24.5173 27.3126C23.3857 27.3116 22.2793 27.6465 21.3383 28.275L21.0702 28.4532C20.7791 28.647 20.5405 28.9098 20.3756 29.2182C20.2107 29.5266 20.1246 29.8709 20.125 30.2206C20.125 30.4621 20.1739 30.69 20.2486 30.9063H14.7638L14.4922 27.3751C14.4434 26.7724 14.1701 26.21 13.7265 25.7991C13.2829 25.3882 12.7012 25.1588 12.0966 25.1563C11.5605 25.1557 11.0397 25.3347 10.6172 25.6647C10.1947 25.9947 9.89494 26.4567 9.76566 26.9769L9.34375 28.6624V7.93506H25.1563V21.6661L22.6909 19.4063H23.7188V15.0938H17.9688ZM15.0758 35.2188H17.9688C17.9688 36.0116 17.324 36.6563 16.5313 36.6563H15.0485C15.0715 36.3379 15.0938 36.0188 15.0938 35.6968C15.0938 35.5372 15.0815 35.3784 15.0758 35.2188ZM43.8438 6.87275C43.8438 7.02225 43.8258 7.17246 43.7891 7.31909L42.913 10.8244C42.8135 11.2229 42.5835 11.5767 42.2597 11.8294C41.9359 12.0821 41.5369 12.2192 41.1262 12.2188H35.6982L32.9202 14.3025C32.6981 14.4699 32.3438 14.291 32.3438 14.0157V12.2188H29.3113C28.9006 12.2192 28.5016 12.0821 28.1778 11.8294C27.854 11.5767 27.624 11.2229 27.5245 10.8244L26.6491 7.31981C26.5816 7.04836 26.5767 6.7651 26.6349 6.4915C26.6931 6.2179 26.8127 5.96112 26.9848 5.74061C27.1569 5.5201 27.377 5.34165 27.6282 5.21876C27.8795 5.09587 28.1555 5.03177 28.4352 5.03131H42.003C42.4912 5.03188 42.9591 5.22609 43.3042 5.57133C43.6493 5.91656 43.8434 6.38461 43.8438 6.87275ZM13.6563 2.18506H20.8438V2.90381C20.8438 3.29984 20.5218 3.62256 20.125 3.62256H14.375C13.9783 3.62256 13.6563 3.29984 13.6563 2.90381V2.18506ZM6.46875 4.34131C6.46875 3.1525 7.43619 2.18506 8.625 2.18506H12.2188V2.90381C12.2188 4.09262 13.1862 5.06006 14.375 5.06006H20.125C21.3138 5.06006 22.2813 4.09262 22.2813 2.90381V2.18506H25.9038C26.8424 2.18506 27.6323 2.80103 27.9141 3.647C27.2123 3.76139 26.567 4.10165 26.0761 4.61611C25.5853 5.13058 25.2757 5.79116 25.1943 6.49756H7.90625V32.8534C7.81569 33.0496 7.72872 33.2487 7.63169 33.4421C7.56944 33.5652 7.46756 33.6638 7.34247 33.722C7.21738 33.7801 7.07634 33.7946 6.94207 33.7629C6.8078 33.7311 6.6881 33.6552 6.60224 33.5472C6.51638 33.4392 6.46936 33.3055 6.46875 33.1675V4.34131ZM2.24466 29.941C2.18576 29.5871 2.15619 29.2289 2.15625 28.8701C2.15625 27.1307 2.83331 25.4948 4.06309 24.2651L5.03125 23.2976V33.1675C5.03182 33.7114 5.24813 34.2328 5.6327 34.6174C6.01727 35.0019 6.5387 35.2182 7.08256 35.2188C7.46383 35.22 7.8378 35.1144 8.16211 34.9139C8.48642 34.7135 8.74811 34.4262 8.91753 34.0846C9.65124 32.6163 10.2222 31.0721 10.6203 29.4796L11.1593 27.3248C11.2145 27.1019 11.3473 26.9059 11.5339 26.7721C11.7205 26.6383 11.9487 26.5754 12.1775 26.5947C12.4063 26.614 12.6207 26.7143 12.7823 26.8775C12.9439 27.0406 13.042 27.2561 13.059 27.4851L13.6218 34.7976C13.7592 36.5877 13.484 38.3854 12.8175 40.0524L12.4509 40.9688H4.79909L4.04225 39.0763C3.72916 38.2938 3.50143 37.4798 3.36303 36.6484L2.24466 29.941ZM12.2188 43.8438H5.03125V42.4063H12.2188V43.8438ZM28.0313 37.3751C28.0313 38.5639 27.0638 39.5313 25.875 39.5313H14.518C14.6625 39.0577 14.7811 38.579 14.8709 38.0938H16.5313C18.1168 38.0938 19.4063 36.8044 19.4063 35.2188C19.4063 34.426 18.7615 33.7813 17.9688 33.7813H14.9852L14.8745 32.3438H22.3553C23.5297 32.3438 24.674 32.7578 25.576 33.5096L26.6908 34.4382C27.1019 34.7811 27.5533 35.0664 28.0305 35.2957L28.0313 37.3751ZM27.6108 33.3342L26.496 32.4056C25.3334 31.4378 23.8687 30.9074 22.356 30.9063H22.2489C22.1019 30.906 21.9589 30.8585 21.8409 30.7707C21.7229 30.683 21.6362 30.5598 21.5936 30.4191C21.5509 30.2784 21.5546 30.1277 21.604 29.9893C21.6533 29.8508 21.7459 29.7318 21.868 29.6499L22.1361 29.471C22.8593 28.9877 23.7127 28.7361 24.5825 28.7499C25.4523 28.7636 26.2972 29.042 27.0049 29.5479L28.2605 30.7144L28.75 30.1876L29.2582 29.6794L28.5703 28.9908C28.3719 28.7958 28.1598 28.6152 27.9357 28.4503L19.6564 20.7626C19.5776 20.6892 19.5148 20.6004 19.4718 20.5018C19.4288 20.4031 19.4065 20.2967 19.4063 20.189C19.4063 19.7571 19.757 19.4063 20.2601 19.4063C20.4563 19.4063 20.6439 19.4796 20.7884 19.6126L28.9829 27.1242L29.4688 26.5938L29.9769 26.0857L26.8295 22.9382C26.6859 22.7856 26.6074 22.583 26.6106 22.3734C26.6138 22.1638 26.6985 21.9637 26.8467 21.8155C26.9949 21.6673 27.195 21.5827 27.4046 21.5794C27.6142 21.5762 27.8168 21.6547 27.9694 21.7983L31.1168 24.9457L32.1332 23.9294L28.9858 20.782C28.8422 20.6293 28.7637 20.4267 28.7669 20.2172C28.7701 20.0076 28.8548 19.8075 29.003 19.6593C29.1512 19.5111 29.3513 19.4264 29.5608 19.4232C29.7704 19.42 29.973 19.4985 30.1257 19.6421L31.5632 21.0796L33.2731 22.7895L34.2894 21.7732L32.5795 20.0632C32.4359 19.9106 32.3574 19.708 32.3606 19.4984C32.3638 19.2888 32.4485 19.0887 32.5967 18.9405C32.7449 18.7923 32.945 18.7077 33.1546 18.7044C33.3642 18.7012 33.5668 18.7797 33.7194 18.9233L38.0578 23.2617C38.5263 23.7279 38.8977 24.2824 39.1506 24.8931C39.4036 25.5038 39.5329 26.1585 39.5313 26.8195V28.4525L33.4837 34.5001H30.8322C29.6553 34.4992 28.5157 34.0868 27.6108 33.3342ZM40.25 29.7664L43.5462 33.0626L38.0938 38.515L34.7976 35.2188L40.25 29.7664Z" fill="#4F4F4F"/>
<path d="M10.7812 13.6562H16.5312V9.34375H10.7812V13.6562ZM12.2188 10.7812H15.0938V12.2188H12.2188V10.7812ZM23.7188 9.34375H17.9688V13.6562H23.7188V9.34375ZM22.2812 12.2188H19.4062V10.7812H22.2812V12.2188ZM10.7812 19.4062H16.5312V15.0938H10.7812V19.4062ZM12.2188 16.5312H15.0938V17.9688H12.2188V16.5312ZM16.5312 20.8438H10.7812V25.1562H16.5312V20.8438ZM15.0938 23.7188H12.2188V22.2812H15.0938V23.7188Z" fill="#4F4F4F"/>
</svg>
