<svg width="30" height="28" viewBox="0 0 30 28" fill="none" xmlns="http://www.w3.org/2000/svg">
<path fill-rule="evenodd" clip-rule="evenodd" d="M21.9088 16.2222C21.1472 15.7553 20.1647 15.2353 19.252 15.6312C18.5602 15.9149 18.1184 17.014 17.6707 17.5754C17.5768 17.7091 17.4373 17.8025 17.2794 17.8374C17.1214 17.8724 16.9563 17.8463 16.8162 17.7644C14.2889 16.7582 12.1706 14.9132 10.8051 12.5288C10.6899 12.3783 10.6354 12.189 10.6526 11.9991C10.6699 11.8092 10.7577 11.633 10.898 11.5065C11.41 11.0123 11.7867 10.3913 11.991 9.70431C12.0301 8.96058 11.8607 8.22063 11.5027 7.57084C11.1422 6.77899 10.7353 5.65031 9.95044 5.20711C9.57235 5.02505 9.1497 4.96096 8.73581 5.02302C8.32191 5.08508 7.93534 5.27068 7.62506 5.55595C7.09345 6.01887 6.67153 6.59763 6.39069 7.2494C6.10985 7.90117 5.97739 8.60891 6.00315 9.31997C6.00873 9.71816 6.05747 10.1145 6.14849 10.5018C6.39676 11.4331 6.77662 12.323 7.27627 13.1434C7.63206 13.7705 8.02017 14.3781 8.43896 14.9635C9.81813 16.8945 11.5537 18.5342 13.549 19.7914C14.5501 20.4249 15.6189 20.9405 16.7348 21.3279C17.9847 21.7475 19.095 22.1847 20.4438 21.9188C21.1658 21.8053 21.8497 21.5144 22.4362 21.0717C23.0227 20.6289 23.4942 20.0474 23.8098 19.3776C23.988 18.9698 24.0426 18.5173 23.9667 18.0778C23.8155 17.2032 22.6238 16.6713 21.9088 16.2222Z" fill="#6C2A80"/>
<rect x="1" y="1" width="28" height="25.6" rx="4" stroke="#6C2A80" stroke-width="2"/>
</svg>
