<svg width="85" height="85" viewBox="0 0 85 85" fill="none" xmlns="http://www.w3.org/2000/svg">
<g clip-path="url(#clip0_306_69)">
<path d="M42.4999 0C19.0279 0 0 19.0279 0 42.4999C0 65.9719 19.0279 84.9998 42.4999 84.9998C65.9719 84.9998 84.9998 65.9719 84.9998 42.4999C84.9749 19.0384 65.9616 0.0250802 42.4999 0ZM60.3983 43.8541C60.1041 44.4443 59.6257 44.9227 59.0354 45.2169V45.232L34.7498 57.375C33.2499 58.1243 31.4267 57.5162 30.6772 56.0164C30.4641 55.59 30.3544 55.1195 30.357 54.6428V30.3572C30.3563 28.6805 31.7147 27.3209 33.3913 27.32C33.8629 27.3198 34.328 27.4294 34.7498 27.6402L59.0354 39.7831C60.5359 40.5308 61.1462 42.3535 60.3983 43.8541Z" fill="#4F4F4F"/>
</g>
<defs>
<clipPath id="clip0_306_69">
<rect width="85" height="85" fill="white"/>
</clipPath>
</defs>
</svg>
