<svg width="103" height="104" viewBox="0 0 103 104" fill="none" xmlns="http://www.w3.org/2000/svg">
<rect x="1" y="1" width="101" height="102" rx="4" stroke="#6C2A80" stroke-width="2"/>
<path d="M68.8625 55.7499C69.5255 55.7499 70.1614 56.0133 70.6302 56.4821C71.0991 56.951 71.3625 57.5869 71.3625 58.2499H73.8625C73.8625 56.9238 73.3357 55.6521 72.398 54.7144C71.4603 53.7767 70.1885 53.2499 68.8625 53.2499H68.5V50.2124H66V53.2499H65.6375C64.3114 53.2499 63.0396 53.7767 62.1019 54.7144C61.1642 55.6521 60.6375 56.9238 60.6375 58.2499C60.6375 59.576 61.1642 60.8478 62.1019 61.7854C63.0396 62.7231 64.3114 63.2499 65.6375 63.2499H66V68.2499H65.6375C64.9744 68.2499 64.3385 67.9865 63.8697 67.5177C63.4008 67.0488 63.1375 66.4129 63.1375 65.7499H60.6375C60.6375 67.076 61.1642 68.3478 62.1019 69.2854C63.0396 70.2231 64.3114 70.7499 65.6375 70.7499H66V73.7874H68.5V70.7499H68.8625C70.1885 70.7499 71.4603 70.2231 72.398 69.2854C73.3357 68.3478 73.8625 67.076 73.8625 65.7499C73.8625 64.4238 73.3357 63.1521 72.398 62.2144C71.4603 61.2767 70.1885 60.7499 68.8625 60.7499H68.5V55.7499H68.8625ZM68.8625 63.2499C69.5255 63.2499 70.1614 63.5133 70.6302 63.9821C71.0991 64.451 71.3625 65.0869 71.3625 65.7499C71.3625 66.4129 71.0991 67.0488 70.6302 67.5177C70.1614 67.9865 69.5255 68.2499 68.8625 68.2499H68.5V63.2499H68.8625ZM66 60.7499H65.6375C64.9744 60.7499 64.3385 60.4865 63.8697 60.0177C63.4008 59.5488 63.1375 58.9129 63.1375 58.2499C63.1375 57.5869 63.4008 56.951 63.8697 56.4821C64.3385 56.0133 64.9744 55.7499 65.6375 55.7499H66V60.7499Z" fill="#6C2A80"/>
<path d="M74.75 15.6001C74.25 18.5399 72.9822 21.2953 71.075 23.5876C70.4957 22.9933 69.8039 22.5203 69.0398 22.1962C68.2758 21.8722 67.4549 21.7035 66.625 21.7001C65.6456 21.7098 64.6822 21.9496 63.8125 22.4001L52.9 22.6001C49.9857 22.6385 47.2029 23.8189 45.15 25.8876L17.0625 53.9751C15.8908 55.1471 15.2325 56.7366 15.2325 58.3938C15.2325 60.0511 15.8908 61.6405 17.0625 62.8126L24.75 70.5126C25.1867 72.0949 26.2284 73.4419 27.65 74.2626L48.2125 86.1376C49.0606 86.641 50.0158 86.9366 51 87.0001C52.0779 87.8189 53.3963 88.2584 54.75 88.2501H78.5C80.1576 88.2501 81.7473 87.5916 82.9194 86.4195C84.0915 85.2474 84.75 83.6577 84.75 82.0001V42.2876C84.7449 39.3824 83.6161 36.5918 81.6 34.5001L72.85 25.4251C75.1782 22.7238 76.7025 19.424 77.25 15.9001L74.75 15.6001ZM18.825 55.7501L46.9125 27.6501C48.5235 26.0713 50.682 25.1757 52.9375 25.1501L55.8375 25.0876L51.875 26.2251C49.0788 27.0322 46.7042 28.8916 45.25 31.4126L25.3875 65.7501C25.1603 66.1461 24.976 66.5651 24.8375 67.0001L18.825 61.0376C18.1265 60.335 17.7345 59.3845 17.7345 58.3938C17.7345 57.4032 18.1265 56.4527 18.825 55.7501ZM28.925 72.1251C28.498 71.8791 28.1236 71.5513 27.8234 71.1605C27.5232 70.7697 27.3029 70.3236 27.1752 69.8476C27.0475 69.3716 27.0149 68.8751 27.0792 68.3865C27.1435 67.8979 27.3035 67.4268 27.55 67.0001L47.4125 32.6126C48.5423 30.6513 50.3882 29.2042 52.5625 28.5751L59.1625 26.6876L51.6625 34.4751C49.6358 36.5711 48.5019 39.372 48.5 42.2876V82.0001C48.5046 82.5287 48.5803 83.0542 48.725 83.5626L28.925 72.1251ZM82.25 42.2876V82.0001C82.25 82.9947 81.8549 83.9485 81.1516 84.6517C80.4483 85.355 79.4945 85.7501 78.5 85.7501H54.75C53.7554 85.7501 52.8016 85.355 52.0983 84.6517C51.3951 83.9485 51 82.9947 51 82.0001V42.2876C51.0126 40.0148 51.9092 37.836 53.5 36.2126L63.975 25.3501C64.3186 24.9937 64.7294 24.7088 65.1837 24.512C65.638 24.3151 66.1268 24.2102 66.6218 24.2032C67.1169 24.1962 67.6084 24.2874 68.0681 24.4713C68.5277 24.6553 68.9464 24.9285 69.3 25.2751C68.9793 25.5145 68.6455 25.7357 68.3 25.9376C67.8831 25.5812 67.3606 25.3718 66.8129 25.3416C66.2653 25.3114 65.7229 25.4622 65.2694 25.7707C64.8159 26.0791 64.4764 26.5281 64.3033 27.0485C64.1301 27.5689 64.1329 28.1319 64.3112 28.6505C64.4895 29.1692 64.8334 29.6148 65.2899 29.9188C65.7465 30.2228 66.2903 30.3681 66.8376 30.3326C67.3849 30.297 67.9053 30.0824 68.3187 29.7219C68.732 29.3614 69.0153 28.875 69.125 28.3376C69.8035 27.974 70.4515 27.5559 71.0625 27.0876L79.8125 36.2001C81.3833 37.8366 82.2573 40.0192 82.25 42.2876Z" fill="#6C2A80"/>
</svg>
