<svg width="16" height="33" viewBox="0 0 16 33" fill="none" xmlns="http://www.w3.org/2000/svg">
<path d="M1.41727 33C1.23183 33.001 1.04799 32.9663 0.87631 32.8979C0.704629 32.8295 0.548477 32.7287 0.41681 32.6013C0.284737 32.4735 0.179908 32.3214 0.10837 32.1539C0.0368318 31.9864 0 31.8067 0 31.6252C0 31.4437 0.0368318 31.264 0.10837 31.0965C0.179908 30.929 0.284737 30.7769 0.41681 30.6491L11.9292 19.4173C12.7208 18.644 13.1655 17.5957 13.1655 16.5028C13.1655 15.4099 12.7208 14.3616 11.9292 13.5883L0.41681 2.35647C0.151471 2.0976 0.00240478 1.74649 0.00240478 1.38039C0.00240478 1.01429 0.151471 0.66318 0.41681 0.404307C0.68215 0.145433 1.04203 0 1.41727 0C1.79252 0 2.1524 0.145433 2.41774 0.404307L13.9301 11.6361C14.5862 12.2747 15.1068 13.0332 15.462 13.8683C15.8172 14.7034 16 15.5987 16 16.5028C16 17.4069 15.8172 18.3022 15.462 19.1373C15.1068 19.9724 14.5862 20.7309 13.9301 21.3695L2.41774 32.6013C2.28607 32.7287 2.12992 32.8295 1.95824 32.8979C1.78656 32.9663 1.60272 33.001 1.41727 33Z" fill="white"/>
</svg>
