<svg width="80" height="83" viewBox="0 0 80 83" fill="none" xmlns="http://www.w3.org/2000/svg">
<rect x="1" y="1" width="78" height="81" rx="4" stroke="#6C2A80" stroke-width="2"/>
<g clip-path="url(#clip0_785_139)">
<path d="M63.9405 48.6961C63.5956 47.6777 62.7718 46.9383 61.6208 46.6138C60.3824 46.2645 58.7717 46.3757 56.8333 46.9444L48.0097 49.533C47.9724 49.4572 47.9326 49.3826 47.8904 49.3094C47.3976 48.456 46.6051 47.8463 45.6586 47.5927L39.39 45.913C34.8155 42.7076 32.3639 43.6282 28.7588 45.3911C27.0344 46.2342 25.3209 47.0498 23.7007 47.8155L23.3609 46.9997C22.9101 45.9173 21.6625 45.4025 20.5793 45.852L17.1932 47.2581C16.6653 47.4771 16.2554 47.8867 16.0391 48.411C15.8227 48.9354 15.8246 49.5148 16.0444 50.0425L21.7783 63.811C22.1184 64.6277 22.9121 65.1214 23.7466 65.1213C24.018 65.1213 24.294 65.069 24.5598 64.9586L27.946 63.5525C28.4738 63.3333 28.8837 62.9238 29.1 62.3994C29.3163 61.8751 29.3144 61.2957 29.0947 60.7681L28.7106 59.8458L30.9176 58.7727C31.7236 58.3808 32.5339 58.3117 33.3948 58.5617L40.4381 60.6067C40.9566 60.7573 41.4925 60.8217 42.0362 60.8217C43.9082 60.8216 45.8712 60.0578 47.5212 59.4156C47.6666 59.3591 61.1672 54.1561 61.1672 54.1561C63.3073 53.3313 64.6291 50.729 63.9405 48.6961ZM27.8362 61.878C27.7593 62.0645 27.6121 62.2107 27.4217 62.2898L24.0355 63.6959C23.6479 63.8565 23.2016 63.6727 23.0404 63.2854L17.3065 49.5168C17.2272 49.3266 17.226 49.119 17.303 48.9325C17.38 48.7461 17.5271 48.5999 17.7176 48.5208L21.1036 47.1146C21.1958 47.0763 21.2946 47.0565 21.3945 47.0564C21.693 47.0564 21.9771 47.2331 22.0988 47.5253L27.8327 61.2938C27.9119 61.484 27.9132 61.6915 27.8362 61.878ZM60.6757 52.8802C60.6757 52.8802 47.1722 58.0844 47.0255 58.1415C45.0885 58.8954 42.678 59.8334 40.8193 59.2938L33.7761 57.2487C32.5918 56.9049 31.4289 57.0039 30.3198 57.5433L28.1842 58.5816L24.2267 49.079C25.8685 48.3032 27.6072 47.476 29.3592 46.6192C32.7287 44.9717 34.6745 44.2447 38.7 47.0994C38.7662 47.1463 38.8401 47.1812 38.9185 47.2021L45.3047 48.9133C45.8984 49.0724 46.3962 49.4558 46.7063 49.993C47.0165 50.5302 47.0997 51.153 46.9405 51.7467C46.7814 52.3403 46.398 52.8382 45.8607 53.1483C45.3235 53.4585 44.7007 53.5417 44.107 53.3825L35.6201 51.1085C35.2557 51.0112 34.8806 51.2271 34.7829 51.5919C34.736 51.767 34.7605 51.9536 34.8512 52.1106C34.9418 52.2676 35.0912 52.3822 35.2663 52.4291L43.7532 54.7031C44.6996 54.9565 45.6909 54.825 46.5444 54.3322C47.3979 53.8396 48.0076 53.0469 48.2612 52.1004C48.3708 51.6934 48.4094 51.2706 48.3751 50.8505L57.2181 48.2562C60.14 47.3992 62.1689 47.7275 62.6456 49.1347C63.0971 50.4679 62.1214 52.3231 60.6757 52.8802ZM56.0657 25.0598C58.3214 25.0598 60.1565 23.2247 60.1565 20.969C60.1564 18.7138 58.3214 16.8789 56.0657 16.8789C53.81 16.8789 51.975 18.7138 51.975 20.9691C51.975 23.2247 53.81 25.0598 56.0657 25.0598ZM56.0657 18.2461C57.5675 18.2461 58.7893 19.4677 58.7893 20.9691C58.7893 22.4709 57.5676 23.6927 56.0657 23.6927C54.5639 23.6927 53.3422 22.4709 53.3422 20.9691C53.3422 19.4677 54.5639 18.2461 56.0657 18.2461ZM30.456 35.5969C31.9128 36.9159 34.8856 37.446 37.6148 37.446C38.1129 37.446 38.6026 37.4279 39.0738 37.3941C39.4219 38.0263 40.1399 38.6817 41.5316 39.194C42.9424 39.7134 44.8261 39.9995 46.8359 39.9995C50.2034 39.9995 53.5959 39.1843 54.5963 37.394C55.068 37.4278 55.5582 37.446 56.057 37.446C58.786 37.4459 61.7592 36.9158 63.2159 35.5969C63.8079 35.0609 64.1208 34.4088 64.1208 33.7111C64.1208 29.2695 60.5073 25.6561 56.0657 25.6561C53.5777 25.6561 51.247 26.8013 49.724 28.7448C48.8028 28.3893 47.8238 28.2071 46.8363 28.2075C45.8487 28.2071 44.8696 28.3893 43.9482 28.7449C42.4252 26.8014 40.0946 25.6561 37.6067 25.6561C33.1649 25.6561 29.5511 29.2695 29.5511 33.7111C29.551 34.4088 29.864 35.0609 30.456 35.5969ZM56.0657 27.0232C59.7534 27.0232 62.7536 30.0234 62.7536 33.7111C62.7536 34.0206 62.6047 34.306 62.2982 34.5834C61.1268 35.6439 58.0204 36.2413 54.8857 36.0439C54.8096 33.2106 53.2655 30.7374 50.9858 29.3615C51.6135 28.6281 52.3926 28.0393 53.2695 27.6356C54.1464 27.232 55.1003 27.023 56.0657 27.0232ZM53.5241 36.2625C53.5241 37.5913 50.5863 38.6323 46.8359 38.6323C43.0855 38.6323 40.1477 37.5914 40.1477 36.2625C40.1477 32.5748 43.1481 29.5747 46.8362 29.5747C50.5239 29.5747 53.5241 32.5749 53.5241 36.2625ZM37.6066 27.0232C38.5719 27.0231 39.5258 27.232 40.4027 27.6356C41.2796 28.0392 42.0587 28.628 42.6863 29.3614C40.4064 30.7374 38.8622 33.2105 38.7861 36.0438C35.6513 36.2412 32.545 35.6438 31.3736 34.5833C31.0673 34.3059 30.9182 34.0205 30.9182 33.711C30.9182 30.0234 33.9187 27.0232 37.6066 27.0232ZM37.6066 25.0598C39.8623 25.0598 41.6974 23.2247 41.6974 20.969C41.6974 18.7138 39.8623 16.8789 37.6066 16.8789C35.351 16.8789 33.5159 18.7138 33.5159 20.9691C33.5159 23.2247 35.351 25.0598 37.6066 25.0598ZM37.6066 18.2461C39.1084 18.2461 40.3302 19.4677 40.3302 20.9691C40.3302 22.4709 39.1085 23.6927 37.6066 23.6927C36.1049 23.6927 34.8831 22.4709 34.8831 20.9691C34.8831 19.4677 36.1049 18.2461 37.6066 18.2461ZM46.8362 27.6111C49.0919 27.6111 50.9269 25.7761 50.9269 23.5204C50.9269 21.265 49.0919 19.4302 46.8362 19.4302C44.5805 19.4302 42.7455 21.265 42.7455 23.5204C42.7455 25.7761 44.5805 27.6111 46.8362 27.6111ZM46.8362 20.7975C48.338 20.7975 49.5597 22.019 49.5597 23.5205C49.5597 25.0223 48.338 26.244 46.8362 26.244C45.3344 26.244 44.1127 25.0223 44.1127 23.5205C44.1127 22.019 45.3344 20.7975 46.8362 20.7975Z" fill="#6C2A80"/>
</g>
<defs>
<clipPath id="clip0_785_139">
<rect width="50" height="50" fill="white" transform="translate(15 16)"/>
</clipPath>
</defs>
</svg>
