<svg width="38" height="40" viewBox="0 0 38 40" fill="none" xmlns="http://www.w3.org/2000/svg">
<path d="M30.7188 25.9375C28.403 25.9375 26.3624 27.0766 25.0807 28.809L13.9992 23.1347C14.1832 22.5076 14.3125 21.8577 14.3125 21.1719C14.3125 20.2417 14.1218 19.3574 13.7923 18.5441L25.3896 11.5653C26.6802 13.08 28.5773 14.0625 30.7188 14.0625C34.596 14.0625 37.75 10.9085 37.75 7.03125C37.75 3.15398 34.596 0 30.7188 0C26.8415 0 23.6875 3.15398 23.6875 7.03125C23.6875 7.92477 23.8715 8.77234 24.1767 9.55922L12.5449 16.5584C11.2554 15.0887 9.3857 14.1406 7.28125 14.1406C3.40398 14.1406 0.25 17.2946 0.25 21.1719C0.25 25.0491 3.40398 28.2031 7.28125 28.2031C9.63516 28.2031 11.7102 27.0305 12.9871 25.2495L24.0321 30.9054C23.8287 31.5621 23.6875 32.2461 23.6875 32.9688C23.6875 36.846 26.8415 40 30.7188 40C34.596 40 37.75 36.846 37.75 32.9688C37.75 29.0915 34.596 25.9375 30.7188 25.9375Z" fill="#6C2A80"/>
</svg>
