<svg width="43" height="40" viewBox="0 0 43 40" fill="none" xmlns="http://www.w3.org/2000/svg">
<rect x="1" y="1" width="40.7313" height="37.3128" rx="4" stroke="#6C2A80" stroke-width="2"/>
<path d="M30.1797 14.48C30.1885 14.7 30.1885 14.91 30.1885 15.13C30.1974 21.8 25.689 29.5 17.4442 29.5C15.0125 29.5 12.6251 28.71 10.575 27.23C10.93 27.28 11.285 27.3 11.64 27.3C13.6546 27.3 15.616 26.54 17.2046 25.13C15.2876 25.09 13.6014 23.68 13.0156 21.62C13.6901 21.77 14.3823 21.74 15.0391 21.53C12.9535 21.07 11.4536 19 11.4448 16.59C11.4448 16.57 11.4448 16.55 11.4448 16.53C12.066 16.92 12.7671 17.14 13.4771 17.16C11.5158 15.68 10.9034 12.7299 12.0926 10.4199C14.3735 13.5799 17.7282 15.49 21.3314 15.7C20.9675 13.95 21.4645 12.1099 22.6271 10.8699C24.4287 8.95993 27.2687 9.05993 28.9727 11.0899C29.9755 10.8699 30.9429 10.4499 31.8215 9.85994C31.4843 11.0299 30.7832 12.0199 29.8513 12.6499C30.7388 12.5299 31.6085 12.2599 32.425 11.8599C31.8215 12.8799 31.0583 13.7599 30.1797 14.48Z" fill="#6C2A80"/>
</svg>
