<svg width="80" height="83" viewBox="0 0 80 83" fill="none" xmlns="http://www.w3.org/2000/svg">
<rect x="1" y="1" width="78" height="81" rx="4" stroke="#6C2A80" stroke-width="2"/>
<path d="M41.5441 50.4895H43.0013C44.5648 50.4895 45.8369 49.2173 45.8369 47.6536V47.2823C46.6507 46.9678 47.2297 46.1775 47.2297 45.2542V42.784C47.2297 42.3176 47.4505 41.9292 47.8513 41.6903C51.1412 39.7301 53.185 36.1357 53.185 32.3098C53.185 26.2928 48.2897 21.3976 42.2726 21.3976C36.2557 21.3976 31.3604 26.2928 31.3604 32.3098C31.3604 36.1356 33.4042 39.7301 36.6941 41.6903C37.0949 41.9292 37.3157 42.3176 37.3157 42.784V45.2542C37.3157 46.1775 37.8947 46.9679 38.7085 47.2823V47.6536C38.7085 49.2172 39.9806 50.4895 41.5441 50.4895ZM38.8782 44.4792H45.6672V45.2542C45.667 45.4163 45.6025 45.5717 45.4879 45.6863C45.3732 45.8009 45.2178 45.8654 45.0558 45.8656H39.4896C39.3275 45.8654 39.1721 45.8009 39.0575 45.6863C38.9429 45.5717 38.8784 45.4163 38.8782 45.2542V44.4792ZM43.0013 48.927H41.5441C40.8422 48.927 40.271 48.3557 40.271 47.6536V47.428H44.2744V47.6536C44.2744 48.3557 43.7032 48.927 43.0013 48.927ZM37.4938 40.3479C34.6744 38.668 32.9228 35.588 32.9228 32.3097C32.9228 27.1542 37.1171 22.96 42.2725 22.96C47.428 22.96 51.6224 27.1542 51.6224 32.3097C51.6224 35.5879 49.8708 38.668 47.0514 40.3479C46.1716 40.8722 45.667 41.76 45.667 42.7839V42.9166H38.878V42.7839C38.8782 41.76 38.3736 40.8722 37.4938 40.3479ZM52.6147 26.2585C52.5111 26.0791 52.4831 25.8658 52.5367 25.6657C52.5903 25.4655 52.7212 25.2949 52.9007 25.1913L55.1761 23.8776C55.2649 23.8255 55.3633 23.7915 55.4653 23.7776C55.5674 23.7636 55.6713 23.77 55.7709 23.7963C55.8705 23.8226 55.9639 23.8684 56.0457 23.931C56.1276 23.9936 56.1962 24.0717 56.2478 24.161C56.2993 24.2502 56.3326 24.3487 56.3459 24.4509C56.3592 24.5531 56.3521 24.6569 56.3251 24.7563C56.2981 24.8557 56.2517 24.9488 56.1886 25.0303C56.1255 25.1117 56.0469 25.1798 55.9573 25.2308L53.6819 26.5444C53.5931 26.5958 53.495 26.6291 53.3933 26.6425C53.2916 26.6559 53.1882 26.6492 53.0891 26.6226C52.99 26.596 52.8971 26.5502 52.8157 26.4877C52.7343 26.4253 52.666 26.3474 52.6147 26.2585ZM58.4447 32.2402C58.4447 32.4474 58.3624 32.6462 58.2159 32.7927C58.0694 32.9392 57.8707 33.0215 57.6635 33.0215H55.0361C54.8289 33.0215 54.6302 32.9392 54.4837 32.7927C54.3372 32.6462 54.2549 32.4474 54.2549 32.2402C54.2549 32.033 54.3372 31.8343 54.4837 31.6878C54.6302 31.5413 54.8289 31.459 55.0361 31.459H57.6635C57.8707 31.459 58.0694 31.5413 58.2159 31.6878C58.3624 31.8343 58.4447 32.033 58.4447 32.2402ZM52.6147 38.2004C52.666 38.1115 52.7343 38.0336 52.8157 37.9711C52.8971 37.9087 52.99 37.8628 53.0891 37.8363C53.1882 37.8097 53.2916 37.803 53.3933 37.8164C53.495 37.8298 53.5931 37.8631 53.6819 37.9145L55.9573 39.2282C56.1064 39.3142 56.2228 39.447 56.2887 39.606C56.3545 39.765 56.366 39.9413 56.3214 40.1075C56.2767 40.2736 56.1785 40.4205 56.0419 40.5251C55.9053 40.6297 55.738 40.6863 55.5659 40.6861C55.429 40.6861 55.2945 40.65 55.1761 40.5813L52.9007 39.2676C52.7212 39.164 52.5903 38.9933 52.5367 38.7932C52.4831 38.5931 52.5111 38.3798 52.6147 38.2004ZM41.4915 19.5062V16.8789C41.4915 16.6717 41.5738 16.473 41.7203 16.3265C41.8668 16.18 42.0655 16.0977 42.2727 16.0977C42.4799 16.0977 42.6787 16.18 42.8252 16.3265C42.9717 16.473 43.054 16.6717 43.054 16.8789V19.5062C43.054 19.7135 42.9717 19.9122 42.8252 20.0587C42.6787 20.2052 42.4799 20.2875 42.2727 20.2875C42.0655 20.2875 41.8668 20.2052 41.7203 20.0587C41.5738 19.9122 41.4915 19.7135 41.4915 19.5062ZM33.9209 19.3262C33.8189 19.1468 33.792 18.9344 33.8461 18.7353C33.9001 18.5362 34.0307 18.3666 34.2094 18.2635C34.3881 18.1603 34.6003 18.132 34.7997 18.1847C34.9992 18.2375 35.1697 18.3669 35.274 18.5449L36.5877 20.8202C36.6562 20.9389 36.6924 21.0736 36.6924 21.2107C36.6925 21.3478 36.6564 21.4824 36.588 21.6012C36.5195 21.7199 36.421 21.8186 36.3023 21.8872C36.1836 21.9559 36.049 21.9921 35.9119 21.9922C35.7746 21.9923 35.6397 21.9563 35.5208 21.8877C35.4019 21.8191 35.3032 21.7204 35.2346 21.6015L33.9209 19.3262ZM28.3022 24.1636C28.3535 24.0747 28.4218 23.9968 28.5032 23.9344C28.5846 23.8719 28.6775 23.8261 28.7766 23.7995C28.8757 23.773 28.9791 23.7662 29.0808 23.7796C29.1825 23.793 29.2806 23.8263 29.3694 23.8776L31.6447 25.1913C31.7938 25.2773 31.9102 25.4101 31.9761 25.5691C32.0419 25.7281 32.0534 25.9044 32.0088 26.0705C31.9641 26.2367 31.8659 26.3835 31.7293 26.4882C31.5927 26.5928 31.4254 26.6494 31.2533 26.6492C31.1164 26.6492 30.9819 26.6131 30.8635 26.5444L28.5882 25.2308C28.4087 25.1272 28.2778 24.9565 28.2242 24.7564C28.1706 24.5563 28.1986 24.343 28.3022 24.1636ZM26.1409 32.2295C26.1409 32.0223 26.2232 31.8236 26.3697 31.6771C26.5162 31.5306 26.715 31.4482 26.9222 31.4482H29.5494C29.7566 31.4482 29.9553 31.5306 30.1018 31.6771C30.2483 31.8236 30.3307 32.0223 30.3307 32.2295C30.3307 32.4367 30.2483 32.6354 30.1018 32.7819C29.9553 32.9284 29.7566 33.0107 29.5494 33.0107H26.9222C26.4908 33.0107 26.1409 32.6609 26.1409 32.2295ZM31.9307 38.2004C32.0342 38.3798 32.0623 38.5931 32.0087 38.7932C31.9551 38.9933 31.8241 39.164 31.6447 39.2676L29.3694 40.5813C29.2806 40.6327 29.1825 40.666 29.0808 40.6794C28.9791 40.6928 28.8757 40.6861 28.7766 40.6595C28.6775 40.633 28.5846 40.5871 28.5032 40.5247C28.4218 40.4622 28.3535 40.3843 28.3022 40.2954C28.1986 40.116 28.1706 39.9027 28.2242 39.7026C28.2778 39.5025 28.4087 39.3318 28.5882 39.2282L30.8635 37.9145C31.0429 37.8109 31.2561 37.7828 31.4563 37.8364C31.6564 37.89 31.8271 38.021 31.9307 38.2004ZM47.9578 20.8202L49.2715 18.5449C49.3227 18.456 49.391 18.3781 49.4724 18.3157C49.5538 18.2532 49.6467 18.2074 49.7458 18.1808C49.8449 18.1543 49.9483 18.1475 50.05 18.1609C50.1517 18.1743 50.2498 18.2077 50.3387 18.259C50.5181 18.3626 50.649 18.5332 50.7026 18.7334C50.7563 18.9335 50.7282 19.1467 50.6246 19.3262L49.3109 21.6015C49.2597 21.6903 49.1914 21.7682 49.11 21.8307C49.0286 21.8932 48.9357 21.939 48.8366 21.9656C48.7375 21.9921 48.6341 21.9989 48.5324 21.9855C48.4307 21.9721 48.3326 21.9387 48.2437 21.8874C48.1549 21.8361 48.077 21.7678 48.0145 21.6864C47.9521 21.605 47.9063 21.5121 47.8797 21.413C47.8532 21.3139 47.8464 21.2106 47.8598 21.1089C47.8732 21.0071 47.9065 20.9091 47.9578 20.8202ZM55.0411 49.4721C54.1955 49.2456 53.315 49.3605 52.5612 49.7956L44.5499 54.4208C44.4785 54.0145 44.337 53.6238 44.1316 53.266C43.6616 52.4443 42.9033 51.856 41.9965 51.6091L32.7257 49.0857C32.692 49.0765 32.6577 49.0696 32.623 49.065C31.1818 48.874 29.8661 49.2256 28.7125 50.1091L26.4182 51.8661L26.3744 51.7029C26.3296 51.5342 26.2518 51.376 26.1454 51.2376C26.0391 51.0991 25.9063 50.9831 25.7549 50.8963C25.604 50.8085 25.4372 50.7515 25.2641 50.7286C25.091 50.7057 24.9151 50.7174 24.7466 50.7629L22.5407 51.354C22.372 51.3988 22.2138 51.4766 22.0753 51.583C21.9369 51.6894 21.8209 51.8221 21.7342 51.9736C21.6464 52.1245 21.5894 52.2914 21.5665 52.4644C21.5436 52.6375 21.5553 52.8134 21.6009 52.9819L24.7989 64.9173C24.9579 65.5103 25.4964 65.9024 26.0831 65.9024C26.1966 65.9024 26.312 65.8878 26.4267 65.857L28.6327 65.266C29.3405 65.0763 29.7621 64.346 29.5725 63.6381L29.4769 63.2816C30.7307 62.3643 31.8508 62.1204 33.2552 62.4424L38.5653 63.6598C39.0375 63.768 39.4978 63.8221 39.9452 63.8221C40.8739 63.822 41.7462 63.589 42.5508 63.1245L55.8303 55.4577C57.3909 54.5566 57.9277 52.5535 57.0267 50.9922C56.5917 50.2385 55.8864 49.6986 55.0411 49.4721ZM26.2478 64.2875L23.1706 52.8029L24.9256 52.3327L28.0029 63.8173L26.2478 64.2875ZM55.0491 54.1048L41.7696 61.7715C40.9186 62.2628 39.9848 62.3824 38.9147 62.1368L33.6045 60.9194C31.9422 60.5383 30.5017 60.7735 29.0491 61.6844L26.8558 53.4991L29.6627 51.3495C30.4736 50.7285 31.3593 50.4855 32.3682 50.6076L41.5862 53.1165C42.0903 53.2537 42.5127 53.5824 42.7756 54.0418C43.0384 54.5013 43.1075 55.0318 42.9704 55.5358C42.6849 56.5844 41.5998 57.2053 40.5512 56.92L35.5989 55.5721C35.4001 55.521 35.1891 55.5502 35.0117 55.6534C34.8342 55.7566 34.7045 55.9255 34.6506 56.1236C34.5966 56.3217 34.6229 56.533 34.7236 56.7119C34.8243 56.8908 34.9913 57.0229 35.1887 57.0796L40.1409 58.4275C40.443 58.51 40.7547 58.5518 41.0678 58.552C42.4867 58.5519 43.8001 57.6889 44.3435 56.3441L53.3427 51.1486C53.7351 50.9222 54.1944 50.8626 54.6368 50.9812C55.079 51.0997 55.4474 51.381 55.6737 51.7732C56.1439 52.5886 55.8639 53.6344 55.0491 54.1048ZM42.3128 41.2877C42.4154 41.2878 42.517 41.2677 42.6118 41.2284C42.7066 41.1891 42.7927 41.1315 42.8652 41.0589L51.1313 32.7927C51.2778 32.6462 51.3601 32.4475 51.3601 32.2403C51.3601 32.0331 51.2778 31.8344 51.1313 31.6879L48.3626 28.9191C48.2161 28.7726 48.0173 28.6903 47.8101 28.6903H36.7351C36.5279 28.6903 36.3292 28.7726 36.1827 28.9191L33.414 31.6879C33.3412 31.7607 33.2835 31.8471 33.2442 31.9422C33.205 32.0373 33.1849 32.1393 33.1851 32.2422C33.1854 32.3451 33.2059 32.447 33.2457 32.5419C33.2854 32.6368 33.3435 32.723 33.4166 32.7954L41.763 41.0616C41.9092 41.2066 42.1068 41.2879 42.3128 41.2877ZM43.9574 33.0215L42.2756 38.0673L40.5889 33.0215H43.9574ZM41.39 31.459L42.2726 30.5764L43.1553 31.459H41.39ZM45.6045 33.0215H48.6929L44.0603 37.6539L45.6045 33.0215ZM44.1588 30.2527H45.9241L45.0415 31.1354L44.1588 30.2527ZM39.5039 31.1354L38.6213 30.2527H40.3865L39.5039 31.1354ZM38.9414 33.0215L40.4638 37.5756L35.8655 33.0215H38.9414ZM48.6929 31.459H46.9275L47.8102 30.5763L48.6929 31.459ZM36.7351 30.5763L37.6179 31.459H35.8525L36.7351 30.5763ZM41.4914 27.1481V24.8689C41.4914 24.6617 41.5737 24.463 41.7202 24.3165C41.8667 24.17 42.0654 24.0877 42.2726 24.0877C42.4798 24.0877 42.6786 24.17 42.8251 24.3165C42.9716 24.463 43.0539 24.6617 43.0539 24.8689V27.1481C43.0539 27.3553 42.9716 27.5541 42.8251 27.7006C42.6786 27.8471 42.4798 27.9294 42.2726 27.9294C42.0654 27.9294 41.8667 27.8471 41.7202 27.7006C41.5737 27.5541 41.4914 27.3553 41.4914 27.1481ZM45.0802 27.1426L46.2134 25.3019C46.3228 25.1273 46.4969 25.003 46.6976 24.9561C46.8982 24.9092 47.1093 24.9436 47.2848 25.0516C47.4603 25.1596 47.586 25.3326 47.6345 25.5329C47.6831 25.7332 47.6505 25.9445 47.5439 26.1209L46.4107 27.9616C46.357 28.049 46.2866 28.125 46.2034 28.1852C46.1203 28.2453 46.0262 28.2885 45.9263 28.3123C45.8265 28.336 45.723 28.3399 45.6217 28.3236C45.5204 28.3073 45.4233 28.2712 45.3359 28.2174C45.1595 28.1088 45.0334 27.9345 44.9855 27.7329C44.9375 27.5314 44.9716 27.319 45.0802 27.1426ZM37.0014 26.1209C36.8928 25.9445 36.8587 25.7321 36.9066 25.5305C36.9546 25.329 37.0807 25.1547 37.2571 25.0461C37.4336 24.9375 37.6459 24.9035 37.8475 24.9514C38.049 24.9994 38.2233 25.1254 38.3319 25.3019L39.4651 27.1426C39.538 27.2609 39.5779 27.3965 39.5809 27.5354C39.5839 27.6743 39.5498 27.8115 39.4821 27.9329C39.4143 28.0542 39.3155 28.1553 39.1957 28.2257C39.0759 28.2961 38.9395 28.3333 38.8006 28.3334C38.667 28.3336 38.5357 28.2995 38.4191 28.2344C38.3025 28.1693 38.2045 28.0754 38.1346 27.9616L37.0014 26.1209Z" fill="#6C2A80"/>
</svg>
