<svg width="30" height="28" viewBox="0 0 30 28" fill="none" xmlns="http://www.w3.org/2000/svg">
<path d="M6.89999 22.8348L8.19118 18.0259C7.15449 16.1531 6.82865 13.9696 7.27351 11.8762C7.71837 9.78271 8.90404 7.91965 10.613 6.62904C12.3219 5.33844 14.4394 4.70669 16.577 4.8499C18.7145 4.99311 20.7286 5.90156 22.2497 7.40858C23.7708 8.91559 24.6968 10.9202 24.8579 13.0543C25.0189 15.1883 24.4041 17.3087 23.1264 19.0265C21.8486 20.7443 19.9936 21.9441 17.9017 22.4058C15.8099 22.8675 13.6215 22.5601 11.7382 21.54L6.89999 22.8348ZM11.9769 19.7392L12.2839 19.9192C13.8014 20.8168 15.5954 21.1288 17.3272 20.7959C19.059 20.463 20.6091 19.5085 21.6848 18.1124C22.7606 16.7164 23.2877 14.9752 23.1668 13.2175C23.0458 11.4599 22.2851 9.80731 21.0281 8.57146C19.7712 7.33561 18.105 6.60197 16.3439 6.50902C14.5827 6.41608 12.8484 6.97023 11.4681 8.0669C10.0879 9.16358 9.15706 10.7269 8.85137 12.462C8.54569 14.1971 8.88625 15.984 9.80877 17.4855L9.9988 17.7923L9.2777 20.4741L11.9769 19.7392Z" fill="#6C2A80"/>
<path fill-rule="evenodd" clip-rule="evenodd" d="M19.2661 14.9496C19.0895 14.809 18.8834 14.7101 18.6631 14.6604C18.4429 14.6107 18.2143 14.6114 17.9944 14.6625C17.6631 14.7988 17.4486 15.3147 17.2391 15.5775C17.1931 15.6406 17.1257 15.6848 17.0495 15.7018C16.9733 15.7189 16.8935 15.7074 16.825 15.67C15.6182 15.1929 14.6062 14.3261 13.9503 13.2073C13.895 13.1355 13.8688 13.0456 13.877 12.9554C13.8851 12.8652 13.9269 12.7814 13.9941 12.7206C14.2401 12.4887 14.4215 12.1967 14.5204 11.8736C14.5379 11.5241 14.4568 11.1766 14.2865 10.8709C14.1487 10.4375 13.8922 10.0513 13.5459 9.75622C13.3656 9.67236 13.1646 9.64337 12.968 9.6728C12.7713 9.70222 12.5877 9.78892 12.4399 9.92187C12.1859 10.1401 11.9843 10.4128 11.8502 10.7195C11.7161 11.0262 11.6528 11.3589 11.6651 11.6934C11.668 11.8819 11.6909 12.0695 11.7334 12.2531C11.8516 12.6911 12.0339 13.1095 12.2742 13.4944C12.4466 13.7901 12.6354 14.076 12.8394 14.351C13.4963 15.2579 14.3238 16.0283 15.2756 16.6192C15.7541 16.919 16.2659 17.1625 16.8006 17.3446C17.3552 17.5978 17.9683 17.6952 18.5742 17.6267C18.9189 17.5712 19.2451 17.4335 19.525 17.225C19.805 17.0165 20.0304 16.7435 20.1821 16.4293C20.2664 16.2383 20.2917 16.0265 20.2551 15.8209C20.1723 15.4023 19.6071 15.1541 19.2661 14.9496Z" fill="#6C2A80"/>
<rect x="1" y="1" width="28" height="25.6" rx="4" stroke="#6C2A80" stroke-width="2"/>
</svg>
