<svg width="80" height="83" viewBox="0 0 80 83" fill="none" xmlns="http://www.w3.org/2000/svg">
<path d="M57.6758 42.1867H52.7814C52.1153 42.1867 51.4704 42.2777 50.8566 42.4451C49.6459 40.065 47.174 38.4297 44.3257 38.4297H35.6743C32.826 38.4297 30.3541 40.065 29.1434 42.4451C28.5161 42.2737 27.8688 42.1868 27.2186 42.1867H22.3242C18.2856 42.1867 15 45.4724 15 49.5109V57.335C15 59.7581 16.9714 61.7295 19.3945 61.7295H60.6055C63.0286 61.7295 65 59.7581 65 57.335V49.5109C65 45.4724 61.7144 42.1867 57.6758 42.1867ZM28.3501 45.7541V58.7999H19.3945C18.5868 58.7999 17.9297 58.1428 17.9297 57.3351V49.511C17.9297 47.0879 19.9011 45.1165 22.3242 45.1165H27.2186C27.6162 45.1165 28.0013 45.1705 28.3679 45.27C28.3566 45.4311 28.3507 45.5926 28.3501 45.7541ZM48.7202 58.7999H31.2798V45.754C31.2798 43.3309 33.2512 41.3595 35.6743 41.3595H44.3257C46.7488 41.3595 48.7202 43.3309 48.7202 45.754V58.7999ZM62.0703 57.3351C62.0703 58.1428 61.4132 58.7999 60.6055 58.7999H51.6499V45.754C51.6493 45.5925 51.6434 45.431 51.6321 45.2699C52.0067 45.1681 52.3932 45.1165 52.7814 45.1164H57.6758C60.0989 45.1164 62.0703 47.0878 62.0703 49.5109V57.3351Z" fill="#6C2A80"/>
<path d="M24.7715 28.354C21.1827 28.354 18.2631 31.2736 18.2631 34.8624C18.263 38.4512 21.1827 41.3708 24.7715 41.3708C28.3602 41.3708 31.2799 38.4512 31.2799 34.8624C31.2799 31.2736 28.3603 28.354 24.7715 28.354ZM24.7714 38.4411C22.798 38.4411 21.1927 36.8357 21.1927 34.8624C21.1927 32.8891 22.798 31.2837 24.7714 31.2837C26.7447 31.2837 28.3501 32.8891 28.3501 34.8624C28.3501 36.8357 26.7447 38.4411 24.7714 38.4411ZM40 20.2705C35.2055 20.2705 31.3049 24.1711 31.3049 28.9656C31.3049 33.7602 35.2055 37.6607 40 37.6607C44.7945 37.6607 48.6951 33.7602 48.6951 28.9656C48.6951 24.1712 44.7945 20.2705 40 20.2705ZM40 34.7311C36.8209 34.7311 34.2346 32.1447 34.2346 28.9656C34.2346 25.7866 36.8209 23.2002 40 23.2002C43.1791 23.2002 45.7654 25.7865 45.7654 28.9656C45.7654 32.1447 43.1791 34.7311 40 34.7311ZM55.2285 28.354C51.6398 28.354 48.7201 31.2736 48.7201 34.8624C48.7202 38.4512 51.6398 41.3708 55.2285 41.3708C58.8173 41.3708 61.7369 38.4512 61.7369 34.8624C61.7369 31.2736 58.8173 28.354 55.2285 28.354ZM55.2285 38.4411C53.2553 38.4411 51.6498 36.8357 51.6498 34.8624C51.6499 32.8891 53.2553 31.2837 55.2285 31.2837C57.2019 31.2837 58.8072 32.8891 58.8072 34.8624C58.8072 36.8357 57.2019 38.4411 55.2285 38.4411Z" fill="#6C2A80"/>
<rect x="1" y="1" width="78" height="81" rx="4" stroke="#6C2A80" stroke-width="2"/>
</svg>
