<svg width="44" height="40" viewBox="0 0 44 40" fill="none" xmlns="http://www.w3.org/2000/svg">
<rect x="1.84583" y="1" width="40.7313" height="37.3128" rx="4" stroke="#6C2A80" stroke-width="2"/>
<g clip-path="url(#clip0_48_963)">
<path d="M36.124 12.0369C35.779 10.7556 34.7688 9.74545 33.4876 9.4005C31.1469 8.75989 21.7841 8.75989 21.7841 8.75989C21.7841 8.75989 12.4212 8.75989 10.0805 9.37586C8.82395 9.72081 7.78911 10.7556 7.44416 12.0369C6.82819 14.3776 6.82819 19.2315 6.82819 19.2315C6.82819 19.2315 6.82819 24.11 7.44416 26.4261C7.78911 27.7073 8.79931 28.7175 10.0805 29.0624C12.4459 29.7031 21.7841 29.7031 21.7841 29.7031C21.7841 29.7031 31.1469 29.7031 33.4876 29.0871C34.7688 28.7421 35.779 27.7319 36.124 26.4507C36.74 24.11 36.74 19.2561 36.74 19.2561C36.74 19.2561 36.7646 14.3776 36.124 12.0369Z" fill="#6C2A80"/>
<path d="M18.8027 23.7158L26.5887 19.2315L18.8027 14.7472V23.7158Z" fill="white"/>
</g>
<defs>
<clipPath id="clip0_48_963">
<rect width="29.9119" height="29.9119" fill="white" transform="translate(6.82819 4.27307)"/>
</clipPath>
</defs>
</svg>
